<svg xmlns="http://www.w3.org/2000/svg">
<defs>
<font id="UTMAndrogyne" horiz-adv-x="1427" >
  <font-face 
    font-family="UTM Androgyne"
    font-weight="400"
    font-stretch="normal"
    units-per-em="2048"
    panose-1="2 4 6 3 5 5 6 2 2 4"
    ascent="1638"
    descent="-410"
    x-height="1112"
    cap-height="1587"
    bbox="-314.998 -438.004 4942 2498.49"
    underline-thickness="109"
    underline-position="-143"
    unicode-range="U+0020-U+2026"
  />
<missing-glyph horiz-adv-x="5040" 
d="M3351 2045h10c24.667 -6.66699 37 -24 37 -52c0 -8 -10.667 -27 -32 -57h-28c0 16 9.33301 34 28 54l2 10c-3.33301 8.66699 -6.66602 13.667 -10 15h-9c-5.33301 0 -8.66602 -6.33301 -10 -19h-30c4 32.667 18 49 42 49zM2019 2016l29.001 -31
c0 -10.667 -13.333 -20.667 -40 -30h-19l-59 12l-11 -12l-28 25c7.33301 19.333 21.666 29 42.999 29h11l42 -11h2c6.66699 0 16.667 6 30 18zM468.001 1980h142v-60h-94v-75h89v-59h-89v-129l-5 -5h-49v323zM1155 1980h43l6 -5v-78h30v-52h-30v-188l-6 -5h-49v193h-25v52
h25v78zM1621 1980h41.999l4 -5v-94h3c15.333 16 33.333 24 54 24h2c38.667 0 66.334 -23.667 83.001 -71l2 -39v-143h-52v115c0 53.333 -14 80 -42 80h-7c-28.667 0 -43 -28.667 -43 -86v-109h-51v323zM2200 1980l49 -0.000976562l5 -5v-222c6.66699 -34 21.667 -51 45 -51
c29.333 4.66699 44 24.334 44 59.001v214l5 5h49v-216c0 -56.667 -22 -94 -66 -112c-10 -5.33301 -21.667 -8 -35 -8c-31.333 0 -58.666 18.333 -82 55c-9.33301 16 -14 35 -14 57v224zM2435 1980h159v-60h-56v-268h-53v268h-55v55zM2621 1980l71 0.000976562
c4.66699 -2.66699 32.334 -86.334 83 -251.001h2l80 251h73v-328h-54v242h-2l-74 -242h-44c-2.66699 0 -22 60.667 -58 182l-19 60h-3v-242h-55v328zM3760 1980l52 -0.000976562v-328h-45l-5 5v11l3 2l-3 14c-19.333 -26.667 -45.333 -40 -78 -40
c-44.667 0 -78 30.333 -100 91l-5 39v3c0 62.667 30.667 104.334 92 125.001l23 3c23.333 0 44.333 -10.667 63 -32h3v107zM2057 1928l36 0.00195312l4 -6v-49h-45v-221h-48v23c-15.333 -20.667 -35 -31 -59 -31c-59.333 9.33301 -89 41.666 -89 96.999v156h51v-104

<glyph glyph-name=".notdef" horiz-adv-x="5040" 
d="M3351 2045h10c24.667 -6.66699 37 -24 37 -52c0 -8 -10.667 -27 -32 -57h-28c0 16 9.33301 34 28 54l2 10c-3.33301 8.66699 -6.66602 13.667 -10 15h-9c-5.33301 0 -8.66602 -6.33301 -10 -19h-30c4 32.667 18 49 42 49zM2019 2016l29.001 -31
c0 -10.667 -13.333 -20.667 -40 -30h-19l-59 12l-11 -12l-28 25c7.33301 19.333 21.666 29 42.999 29h11l42 -11h2c6.66699 0 16.667 6 30 18zM468.001 1980h142v-60h-94v-75h89v-59h-89v-129l-5 -5h-49v323zM1155 1980h43l6 -5v-78h30v-52h-30v-188l-6 -5h-49v193h-25v52
h25v78zM1621 1980h41.999l4 -5v-94h3c15.333 16 33.333 24 54 24h2c38.667 0 66.334 -23.667 83.001 -71l2 -39v-143h-52v115c0 53.333 -14 80 -42 80h-7c-28.667 0 -43 -28.667 -43 -86v-109h-51v323zM2200 1980l49 -0.000976562l5 -5v-222c6.66699 -34 21.667 -51 45 -51
c29.333 4.66699 44 24.334 44 59.001v214l5 5h49v-216c0 -56.667 -22 -94 -66 -112c-10 -5.33301 -21.667 -8 -35 -8c-31.333 0 -58.666 18.333 -82 55c-9.33301 16 -14 35 -14 57v224zM2435 1980h159v-60h-56v-268h-53v268h-55v55zM2621 1980l71 0.000976562
c4.66699 -2.66699 32.334 -86.334 83 -251.001h2l80 251h73v-328h-54v242h-2l-74 -242h-44c-2.66699 0 -22 60.667 -58 182l-19 60h-3v-242h-55v328zM3760 1980l52 -0.000976562v-328h-45l-5 5v11l3 2l-3 14c-19.333 -26.667 -45.333 -40 -78 -40
c-44.667 0 -78 30.333 -100 91l-5 39v3c0 62.667 30.667 104.334 92 125.001l23 3c23.333 0 44.333 -10.667 63 -32h3v107zM2057 1928l36 0.00195312l4 -6v-49h-45v-221h-48v23c-15.333 -20.667 -35 -31 -59 -31c-59.333 9.33301 -89 41.666 -89 96.999v156h51v-104
c0 -52.667 8.66699 -81.334 26 -86.001l18 -5h6c17.333 0 30.333 12 39 36l3 26v133h53v25zM3476 1928v-55h-31v-221h-47v25h-2c-10 -22 -29 -33 -57 -33c-45.333 0 -74 26 -86 78l-3 29v146h52v-120c0 -33.333 6.33301 -56 19 -68l21 -7h9c28 0 42 23 42 69v126h27
c2.66699 0 4 9.33301 4 28l3 3h49zM758 1905c45.333 0 79.667 -25.667 103 -77c6 -12 10 -30 12 -54c0 -58.667 -30 -101 -90 -127l-32 -3c-42 0 -75.667 24.333 -101 73c-8 14.667 -12 32 -12 52v10c0 62.667 33.667 104.667 101 126h19zM1011 1905h3
c49.333 0 77 -33.667 83 -101v-152h-51v119c0 50.667 -14 76 -42 76h-5c-29.333 0 -44 -25.333 -44 -76v-119h-52v245h46v-21c20 19.333 40.667 29 62 29zM1466 1905l7 -0.000976562c48 0 83 -29.667 105 -89h-60c-10.667 20.667 -24.667 31 -42 31h-17
c-35.333 -9.33301 -53 -29.666 -53 -60.999l-3 -15c8 -46 28.333 -69 61 -69h9c14.667 0 30.334 9 47.001 27h40l2 3h3l2 -3l2 3l3 -3l2 3l2 -7c-22 -54 -58.667 -81 -110 -81c-50.667 0 -87.334 31.333 -110.001 94l-4 36v3c0 56.667 25.667 96.667 77 120
c10 5.33301 22.333 8 37 8zM3141 1905h1.99902c32.667 0 56 -20 70 -60v-14h-52c0 10.667 -5.33301 16 -16 16h-4c-9.33301 0 -15.666 -4.33301 -18.999 -13v-13c0 -6 22.667 -17.667 68 -35c20 -12.667 30 -32.334 30 -59.001c0 -38.667 -20.333 -65.334 -61 -80.001
l-23 -3c-50.667 8 -76 35.667 -76 83h54c0 -13.333 9 -21.666 27 -24.999h4c12.667 0 20.667 7.66699 24 23c0 14.667 -22.667 29.334 -68 44.001c-22.667 18 -34 37.667 -34 59c0 44 24.667 69.667 74 77zM4203 1905c36.666 0 62.333 -21 77 -63
c4.66602 -12 7 -33.667 7 -65v-125h-52v112c0 55.333 -13.334 83 -40 83h-11c-22 0 -35.334 -18 -40 -54v-141h-52v5h-2l2 2v238h47v-21c16.666 19.333 38 29 64 29zM4432 1905h5c26.666 0 49.666 -13.333 69 -40v18l-3 3l3 11h47v-208c0 -64.667 -28.334 -108.667 -85 -132
l-33 -4h-7c-46.666 0 -81.333 26.667 -104 80h59c16 -14.667 31 -22.334 45 -23.001h13c14.666 0 29 7.33301 43 22c10 8.66699 17.334 26 22 52h-3c-21.334 -26.667 -45.667 -40 -73 -40c-38 0 -70 23.333 -96 70c-6.66602 12 -11.333 33 -14 63
c0 58.667 29 100.334 87 125.001zM3851 1897l53 -0.000976562v-136c4 -39.333 17.333 -59 40 -59h7c30.667 0 46 31 46 93v102h51v-245h-47l-3 10h3l-3 3v5l3 2v3h-4c0 -15.333 -19 -25.666 -57 -30.999h-3c-39.333 0 -67.333 25 -84 75l-2 85v93zM690 1771
c6.66699 -46 27.6689 -69 63.002 -69h7c39.333 9.33301 59 31 59 65v15c-8.66699 43.333 -28.334 65 -59.001 65h-5c-38.667 0 -60.334 -25.333 -65.001 -76zM3630 1774c8.66699 -48 29 -72 61 -72h5c38.667 0 60.667 25 66 75c0 32.667 -17 56 -51 70h-22
c-24.667 0 -43.334 -19 -56 -57zM4374 1774c5.33398 -48 27 -71.999 65 -71.999h5c39.334 8 59 32 59 72c0 40.667 -19.666 65 -59 73h-14c-37.334 -10.667 -56 -31.334 -56 -62.001v-11zM3928 1620h52v-57h-52v57zM1054 1402c28.667 -7.33301 43 -23.667 43 -49v-4
c0 -11.333 -10.667 -31.333 -32 -60h-28c0 16.667 10.333 35.667 31 57v7c0 8 -2.33301 13 -7 15h-12c-6.66699 -2.66699 -10 -9 -10 -19h-28v6c0 21.333 11 36 33 44zM3349 1339c61.333 0 107.333 -33.001 138 -99.001h-60c-24.667 28 -51.334 42 -80 42
c-36.667 0 -65.667 -22.667 -87 -68c-6.66699 -14.667 -10 -30.334 -10 -47.001c0 -52 27 -88.667 81 -110l18 -1c24 0 49 13 75 39h61c-29.333 -64.667 -75.333 -97 -138 -97c-62 0 -109 37.333 -141 112c-6.66699 20.667 -10 41.334 -10 62.001
c0 64.667 30 115.334 90 152.001c19.333 10 40.333 15 63 15zM3664 1339c38 0 72.333 -15.666 103 -46.999c30.667 -34 46 -72.333 46 -115v-20c0 -59.333 -30.333 -108 -91 -146c-22 -8.66699 -43 -13 -63 -13c-59.333 0 -105.333 33.667 -138 101
c-8.66699 22 -13 42 -13 60v18c0 65.333 32.667 115.666 98 150.999c19.333 7.33301 38.666 11 58 11zM2261 1337h2l47 -11h3c7.33301 0 16 3.66699 26 11l18 -36c-12 -12.667 -23.667 -19 -35 -19h-3l-54 10l-20 -7l-20 36c12 10.667 24 16 36 16zM716.002 1334h19
c78.667 0 121.667 -8.66699 129 -26c16.667 -17.333 25 -38 25 -62c-6.66699 -38 -16.667 -57 -30 -57v-6c31.333 -15.333 47 -37.333 47 -66v-18c0 -42 -23 -71.333 -69 -88l-54 -5h-67v328zM2550 1334h53v-217c4 -40.667 19 -61 45 -61c19.333 0 34 13 44 39l3 30v203l4 6
h45l5 -6v-171c0 -78.667 -13.333 -123 -40 -133c-16 -17.333 -37.333 -26 -64 -26c-36.667 0 -67 25.333 -91 76l-4 54v206zM2805 1334h59c2.66699 0 43.334 -79 122 -237h4v237h50l4 -6v-322h-58c-19.333 32 -61 111.333 -125 238h-3v-238h-53v328zM3101 1334h54v-328h-54
v328zM3859 1334l8 0.000976562c103.333 0 161.333 -13.333 174 -40c15.333 -7.33301 31 -32.333 47 -75l4 -36v-11l3 -2c0 -62.667 -27.333 -112.334 -82 -149.001c-23.333 -10 -56.333 -15 -99 -15h-55v328zM4141 1334h153v-60h-103v-75h101v-57h-101v-74l4 -5h99v-57h-157
v322zM3563 1175v-10c0 -50.667 26.333 -86.667 79 -108l19 -1c45.333 0 77.333 28.667 96 86l3 20v15c0 40.667 -20 72 -60 94c-8 5.33301 -21 9 -39 11c-44 0 -76 -27.667 -96 -83zM770.002 1274v-67h9c36 0 54 9.33301 54 28l3 14c-7.33301 16.667 -17 25 -29 25h-37z
M3912 1274v-206.001l2 -3v-2c69.333 0 110 25.333 122 76l2 15v29c0 22.667 -10.667 45.334 -32 68.001c-16.667 15.333 -42.667 23 -78 23h-16zM1041 1259h5c25.333 0 49 -13.333 71 -40v32h49v-245h-49v32c-24 -26.667 -50.667 -40 -80 -40c-50 0 -83.667 32.333 -101 97
l-5 36c0 59.333 28.333 101 85 125zM1314 1259h3c49.333 0 77 -34 83 -102v-151h-51v128c0 44.667 -14 67 -42 67h-10c-22.667 0 -35.667 -20.667 -39 -62v-133h-52v245h47v-21c18.667 19.333 39 29 61 29zM1543 1259h5c30 0 53.667 -13.333 71 -40v32h47v-219
c0 -63.333 -34.667 -105.333 -104 -126h-16c-49.333 0 -85.333 27.333 -108 82h59c17.333 -16.667 32 -25 44 -25h14c34.667 0 56 25.667 64 77c-22 -28 -47.333 -42 -76 -42c-40 0 -73.667 27 -101 81l-7 44v16c0 52.667 28.333 91.667 85 117zM1912 1259l2 0.000976562
c28.667 0 49 -12.333 61 -37h2c21.333 24.667 44.333 37 69 37h4c38 0 64.333 -18.333 79 -55c5.33301 -16.667 8 -31.667 8 -45v-153h-52v138c0 29.333 -7.66699 47.666 -23 54.999l-12 2h-15c-21.333 0 -33.333 -21.667 -36 -65v-130h-52v136c0 39.333 -14.333 59 -43 59
h-8c-21.333 0 -33.333 -19 -36 -57v-138h-54v245h50v-21h2c4 16 22 25.667 54 29zM2282 1259c31.333 0 56.333 -14 75 -42v34h47v-245h-47v32c-24 -26.667 -50 -40 -78 -40c-49.333 0 -83.333 30.667 -102 92l-6 41c0 60 28.333 101.667 85 125zM985.002 1117
c0 -32 20.333 -52.333 61 -61h4c30 0 50.667 15.333 62 46l3 15v22c-8 41.333 -27 62 -57 62h-14c-27.333 0 -47 -19 -59 -57v-27zM1487 1128c0 -32 14.332 -54.667 42.999 -68l18 -4h5c31.333 0 52.333 19 63 57v23c-7.33301 43.333 -26.666 65 -57.999 65h-12
c-33.333 0 -53 -24.333 -59 -73zM2225 1131v-14.001c10 -40.667 29 -61 57 -61h14c38.667 8 58 29.333 58 64v11c0 30 -12.333 51.667 -37 65l-18 5h-10c-42.667 -5.33301 -64 -28.666 -64 -69.999zM770.001 1150v-82c0 -3.33301 2.33301 -5 7 -5c51.333 0 77 15 77 45
c0 22.667 -15.667 36.667 -47 42h-37zM2966 752.999l24 -28l-51 -55c-12 8 -21 16.667 -27 26zM1524 726.999l85 -54c0 -10 -7 -24 -21 -42l-87 54c12 27.333 19.667 41.333 23 42zM2850 692.999h38l55 -60h-54l-21 26l-23 -26h-54c36 40 55.667 60 59 60zM3422 692.999h40
l56 -60h-54l-24 26h-1c0 -3.33301 -6.33301 -12 -19 -26h-54zM622.001 684.999l52 0.00195312c5.33301 -2.66699 21 -48.334 47 -137.001l34 -110c6 5.33301 17.333 38.666 34 99.999l48 147h54v-2l-112 -326h-44zM1159 685.001h51v-54h-51v54zM1354 685.001h46l6 -5v-323
h-52v328zM2317 685.001h45l4 -5v-78h31v-52h-31v-193h-53v193h-26v52h26v78zM2425 685.001h52v-98h2c15.333 15.333 33.333 23 54 23h3c38 0 65 -23.667 81 -71l3 -38v-144h-52v115c0 54 -13 81 -39 81h-10c-28 0 -42 -29 -42 -87v-109h-52v328zM2664 685.001h52v-54h-52v54
zM3028 685.001h44l6 -5v-78h29v-52h-29v-193h-54v193h-27v52h27v78zM3234 685.001h52v-328h-52v328zM3957 685.001h52v-328h-52v328zM4316 685.001h51v-54h-51v54zM1555 610.001h5c55.333 0 92 -34 110 -102l3 -23v-11c0 -55.333 -28.333 -95.333 -85 -120l-35 -5
c-50.667 0 -87.667 32.333 -111 97l-4 32c0 64.667 31 108 93 130zM1811 610.001h4c35.333 0 61.333 -20 78 -60c4.66699 -16.667 7 -43.667 7 -81v-112h-54v146c-4.66699 33.333 -17 50 -37 50h-10c-25.333 0 -39.333 -19 -42 -57v-139h-54v245h49v-21
c17.333 19.333 37 29 59 29zM2046 610.001h4.00098c30 0 51 -13 63 -39h3v31h49v-206c0 -68 -29.667 -113 -89 -135l-28 -3h-5c-48.667 0 -84 27 -106 81h52l37 -20l15 -3h14c33.333 0 53.666 24 60.999 72c-22 -26 -46.333 -39 -73 -39c-41.333 0 -74 25.333 -98 76
c-7.33301 15.333 -11.333 35.333 -12 60c0 56.667 28.667 97.667 86 123zM2866 610.001l2 -0.000976562c54.667 0 91.667 -34.667 111 -104l2 -25l-2 -27h-172c10 -30 25 -45 45 -45l14 -3c19.333 0 35.666 7.33301 49 22h57v-3c-23.333 -50.667 -59.333 -76 -108 -76
c-51.333 0 -88.333 32.333 -111 97l-1 28v8c0 32.667 10.667 62.334 32 89.001c22.667 26 50 39 82 39zM3429 610h5c27.333 0 50.666 -13 70 -39h2v31h47v-245h-47v31h-2c-23.333 -26 -49 -39 -77 -39c-47.333 0 -81 29.667 -101 89l-5 36v14c0 57.333 28 97.333 84 120z
M3711 610l7 -0.000976562c58.667 0 94.334 -42.667 107 -128l-2 -1v-15c0 -43.333 -22 -78.666 -66 -105.999c-14 -7.33301 -29.333 -11 -46 -11c-22.667 0 -44 10.667 -64 32v-99l-5 -5h-49v325h49v-28c20.667 24 43.667 36 69 36zM4151 609.999
c29.334 0 54.334 -13 75 -39v31h49v-245h-49v31c-23.334 -26 -49 -39 -77 -39c-61.333 0 -97.333 44 -108 132c0 56 24.333 96.333 73 121c10 5.33301 22.334 8 37 8zM922.002 601.999h50v-136c2 -40 16 -60 42 -60h5c29.333 0 44 29 44 87v109h52v-245h-47v24h-5
c0 -15.333 -18.667 -26 -56 -32h-3c-36.667 0 -64 22.667 -82 68c-2.66699 23.333 -4 56.333 -4 99v81zM1159 601.999h51v-245h-51v245zM2664 601.999h52v-245h-52v245zM4316 601.999h51v-245h-51v245zM1492 487.999v-15.999c8.66699 -44 28.334 -66 59.001 -66h4
c39.333 0 61.333 25.333 66 76c-8.66699 47.333 -28.334 71 -59.001 71h-11c-39.333 -10.667 -59 -32.334 -59 -65.001zM1987 472c10 -44 29.667 -66 59 -66h11c32 0 51.667 25 59 75v1c-8.66699 47.333 -28.334 71 -59 71h-14c-26 0 -44.667 -19 -56 -57v-24zM2805 506h122
v2c-10.667 30 -30.334 45 -59 45h-7c-23.333 0 -42 -15.667 -56 -47zM3373 474c8.66699 -45.333 29 -68 61 -68h5c34.667 0 56.334 21 65 63v12c-6.66699 48 -25.667 72 -57 72h-16c-37.333 -9.33301 -56 -30.333 -56 -63zM3642 478c8 -48 28.333 -72.001 61 -72.001h3
c33.333 0 55 20 65 60v22c0 28.667 -16.333 50.334 -49 65.001h-22c-31.333 0 -50.666 -24 -58 -72v-3zM4095 471.999c6.66602 -44 28.666 -66 66 -66c28.666 0 49 16 61 48l2 15v16c0 36 -17.334 58.667 -52 68h-18c-28 0 -47.666 -20 -59 -60v-21zM3416 320.999h51v-52
h-51v52zM4137 320.999h51v-52h-51v52zM2733 132.999h4c23.333 0 37.666 -16.667 43 -50v-2c0 -10.667 -8 -24.334 -24 -41.001l-10 -17h-28c0 16.667 9.33301 35.334 28 56.001l3 2v2c-2 12.667 -5 19 -9 19h-10c-5.33301 0 -8.33301 -6.33301 -9 -19h-30
c4 33.333 18 50 42 50zM1546 115.999l52 -60l-26 -19l-52 52zM352.002 78.999h4c50 -32 78.333 -52 85 -60l-20 -37c-58.667 32.667 -88 52 -88 58zM3490 78.999l86 -58l-18 -39c-6.66699 0 -37 18.333 -91 55c10 24 17.667 38 23 42zM4578 75.999l19 -42l-91 -52l-20 39
l92 58v-3zM1204 52.999h51v-19l5 -5h14v-36h-14l-5 -5v-279h-46v31c-22.667 -26.667 -49.667 -40 -81 -40c-48 0 -82 35 -102 105l-3 26c0 68 33.667 111.667 101 131h14c22 0 44 -11 66 -33v59l-6 5h-43v36h49v24zM1480 44.999h40l56 -61h-53l-23 27l-23 -27h-53z
M2641 44.999h33c8 0 29 -20.333 63 -61h-54l-23 27c-12.667 -14 -19 -23 -19 -27h-58v4zM49.002 36.999h160v-60h-56v-268h-50l-4 5v245l2 3v2l-2 2l2 3l-2 2l2 3l-2 3h-54v54zM699.002 36.999h47v-73l2 -2l-2 -3v-3l2 -2l-2 -3v-3l2 -2v-2l-2 -3l2 -3h3
c11.333 16 28.333 24 51 24h3c35.333 0 61 -19.333 77 -58c4.66699 -11.333 7 -25.333 7 -42v-153h-52v127c0 45.333 -13.333 68 -40 68h-8c-28.667 0 -43 -28.667 -43 -86v-109h-52v322zM1297 36.999h47l5 -6v-49h-52v55zM1987 36.999h52v-198l70 115h62l-78 -118l90 -125
v-2h-70c-6.66699 14.667 -31.334 53 -74 115v-115h-52v328zM2271 36.999v-98.999c16 16 33.667 24 53 24c38 0 64.667 -18.667 80 -56c6.66699 -12.667 10 -38.334 10 -77.001v-120h-54v133c0 41.333 -13.667 62 -41 62h-11c-20.667 0 -33 -18.333 -37 -55v-140h-53v314
l-1 3v3l1 2l-1 3l1 3h53zM2458 37h51v-55h-51v55zM3148 37h51v-108c18 22 40.667 33 68 33h3c50 0 85 -31.333 105 -94l5 -37c0 -50 -21.333 -90 -64 -120c-20 -7.33301 -36.333 -11 -49 -11c-27.333 0 -51.333 13.333 -72 40v-31h-47v328zM4275 37h52v-99h2
c15.334 16 33.334 24 54 24h3c40 0 67.334 -24.667 82 -74l2 -41v-138h-52v111c0 54.667 -10.666 82 -32 82l-10 2h-12c-24.666 0 -37 -26.667 -37 -80v-115h-52v328zM329.002 -38h3v-58h-5c-28 0 -42 -19 -42 -57v-138h-53v245h47v-21c12 19.333 28.667 29 50 29z
M564.002 -38c47.333 0 75.999 -29 85.999 -87v-166h-51v136c-4 39.333 -17.667 59 -41 59h-6c-30 0 -45 -28 -45 -84v-111h-52v245h50v-21c16.667 19.333 36.334 29 59.001 29zM1504 -38c48 0 83 -31.333 105 -94l5 -39c-1.33301 -16 -3.66602 -24 -6.99902 -24h-169
c11.333 -31.333 32 -47 62 -47c16 0 32 7 48 21h57c-22 -52.667 -58 -79 -108 -79c-54.667 0 -92.334 35 -113.001 105v37c0 54 29.667 93 89 117zM2657 -38h5c51.333 0 87 -32.333 107 -97l3 -26v-21l-3 -13h-170c12 -31.333 29.667 -47 53 -47h12c14 0 28 7 42 21h59
c-22.667 -52.667 -57.667 -79 -105 -79c-56 0 -94.333 34 -115 102l-2 29c0 62 30.333 104.667 91 128zM2915 -38h3.99902c36 0 62 -20 78 -60c4.66699 -16.667 7 -44 7 -82v-111h-54v138c0 32 -11.667 51 -35 57h-11c-25.333 0 -39.666 -19 -42.999 -57v-138h-54v245h50
v-21c16.667 19.333 36 29 58 29zM3508 -38h6c26.667 0 50 -13.333 70 -40h2v32h47v-245h-47v31h-2c-22.667 -26.667 -48.667 -40 -78 -40c-47.333 0 -81 30 -101 90l-4 37v12c0 54.667 25.667 93.667 77 117c7.33301 4 17.333 6 30 6zM3781 -38h4
c41.333 0 68.666 -26 82 -78l3 -84v-91h-54v138c0 32 -12.667 51 -38 57h-9c-25.333 0 -39.333 -17.333 -42 -52v-143h-54v245h49v-21c17.333 19.333 37 29 59 29zM4133 -38h1c49.334 0 84 -31 104 -93l4 -40c0 -58.667 -28 -100.667 -84 -126l-25 -3
c-27.333 0 -50 11.333 -68 34v-106h-52v326h47v-29c20 24.667 44.334 37 73 37zM4714 -38h5c22.666 0 43.666 -12.333 63 -37c18 24.667 41 37 69 37h6c37.334 0 63.667 -22 79 -66l6 -51v-136h-52v122c0 48.667 -13 73 -39 73h-7c-23.334 0 -37 -16.667 -41 -50v-140l-5 -5
h-48v140c0 28 -10.334 46.333 -31 55h-17c-26.666 0 -40 -25.667 -40 -77v-118h-51v245h47v-21c14.666 19.333 33.333 29 56 29zM359 -46h49l5 -6v-234l-5 -5h-49v245zM1297 -46h52v-245h-52v245zM1649 -46h52v-136c2.66699 -40 17 -60 43 -60h4c29.333 0 44 27 44 81v115
h52v-245h-47v24h-5c-8 -22 -27.667 -33 -59 -33c-34.667 0 -61 21 -79 63c-3.33301 8 -5 19.333 -5 34v157zM2458 -46h51v-245h-51v245zM4515 -46h51v-245h-51v245zM1077 -169c0 -35.333 16.999 -59.666 50.999 -72.999h12c36 0 58 22 66 66v10
c0 35.333 -18 58.666 -54 69.999h-17c-25.333 0 -44.666 -19 -57.999 -57v-16zM1438 -143h122.001c-12 31.333 -29.667 47 -53 47h-7c-28.667 0 -49.334 -14.667 -62.001 -44v-3zM2599 -143h122c-14 31.333 -32 47 -54 47h-7c-30.667 0 -51 -15.667 -61 -47zM3196 -158v-11
c6.66699 -48.667 27 -73 61 -73h5c42.667 5.33301 64 29 64 71v5c0 30 -12.667 51.667 -38 65l-18 5h-14c-40 -9.33301 -60 -30 -60 -62zM3452 -173c9.33301 -46 30 -69 62 -69h11c27.333 0 47 20 59 60v13c-5.33301 48.667 -24 73 -56 73h-17
c-31.333 0 -51 -24.333 -59 -73v-4zM4062 -158v-22c0 -31.333 19.667 -52 59 -62h9c33.334 0 53.667 25.333 61 76c-8.66602 46.667 -28 70 -58 70h-15c-37.333 -11.333 -56 -32 -56 -62z" />
    <glyph glyph-name="space" unicode=" " horiz-adv-x="561" 
 />
    <glyph glyph-name="exclam" unicode="!" horiz-adv-x="694" 
d="M756 1393l-172.003 -691c-33.333 -136 -50 -217.667 -50 -245c0 -18 2 -35 6 -51c-30 -3.33301 -51.667 -5 -65 -5c-105.333 0 -162 29.333 -170 88c0 46.667 4.66699 94 14 142l82 397c14.667 76.667 26.334 144 35.001 202c10.667 66.667 17.334 121 20.001 163
c4 52 0 104.333 -12 157c78.667 28.667 141.334 43 188.001 43c88.667 0 133 -38.667 133 -116c0 -26 -3 -54 -9 -84zM482.997 23c-56.667 -38.667 -116.667 -58.001 -180 -58.001c-72.667 0 -109 30.667 -109 92c0 22 3.33301 47.333 10 76c6.66699 28 10 46.333 10 55v13
c0 4.66699 -0.666992 9.33398 -2 14.001c60 28.667 113.333 43 160 43c91.333 0 137 -39 137 -117c0 -14.667 -8.66699 -54 -26 -118z" />
    <glyph glyph-name="quotedbl" unicode="&#x22;" horiz-adv-x="798" 
d="M616 1528c0 -10 -0.666992 -17.667 -2 -23c-5.33301 -32 -27.666 -90 -66.999 -174l-48 -109c-14.667 -35.333 -26.334 -60.333 -35.001 -75c-21.333 -38 -50.333 -57 -87 -57c-48 0 -72 17.667 -72 53c0 12 3 34.667 9 68l10 50l11 54l20 107c6 36.667 9 63.667 9 81
c0 7.33301 -2 16.333 -6 27c60.667 31.333 125 47 193 47c43.333 0 65 -16.333 65 -49zM991 1528c0 -10 -0.666992 -17.667 -2 -23c-5.33301 -32 -28 -90 -68 -174l-47 -109c-15.333 -35.333 -27 -60.333 -35 -75c-22 -38 -51.333 -57 -88 -57c-47.333 0 -71 17.667 -71 53
c0 12 3 34.667 9 68l10 50l10 54l21 107c6 36.667 9 63.667 9 81c0 7.33301 -2 16.333 -6 27c60.667 31.333 125 47 193 47c43.333 0 65 -16.333 65 -49z" />
    <glyph glyph-name="numbersign" unicode="#" horiz-adv-x="1318" 
d="M1177 1135l44.9971 -0.000976562c58 0 116.667 9.33301 176 28c-11.333 -79.333 -40.666 -133 -87.999 -161c-39.333 -23.333 -106 -35 -200 -35l-136 -377h54c74 0 143.667 15.667 209 47c-18.667 -89.333 -54.667 -149.666 -108 -180.999
c-42.667 -24 -112.667 -36 -210 -36c-28 -86.667 -49 -157.334 -63 -212.001c-16.667 -64 -25 -110.667 -25 -140c0 -27.333 2.66699 -50 8 -68c-49.333 -15.333 -91 -23 -125 -23c-57.333 0 -86 23.333 -86 70c0 33.333 10 84 30 152c8.66699 29.333 19.667 64 33 104
l42 119h-225c-76.667 -176.667 -115 -320.667 -115 -432c-39.333 -8.66699 -74.333 -13 -105 -13c-60 0 -90 21.333 -90 64l2 18c1.33301 8 2 15.667 2 23c22 84 63 197.333 123 340h-43c-75.333 0 -136 -11 -182 -33l13 53l13 44c9.33301 27.333 22.333 48 39 62
c33.333 29.333 110 44 230 44l145 375h-51c-92.667 0 -165.667 -10.333 -219 -31c22.667 90.667 55 147.334 97 170.001c36.667 20.667 117 31 241 31c61.333 155.333 92 271.333 92 348c0 15.333 -2 30.333 -6 45c42.667 8 82.334 12 119.001 12
c53.333 0 80 -22.333 80 -67c0 -32.667 -11.667 -83 -35 -151l-74 -189h209l88 230c26 68 44.333 112.667 55 134c42.667 23.333 86.334 35 131.001 35s72 -17.667 82 -53c-42.667 -74.667 -100 -190 -172 -346zM715.997 966.999l-36.001 -97.999l-105 -279h215
c14.667 44 33 95.333 55 154c26.667 73.333 55.334 147.666 86.001 222.999h-215z" />
    <glyph glyph-name="dollar" unicode="$" horiz-adv-x="1159" 
d="M1058 1308c-18 21.333 -32.998 37.332 -44.998 47.999c-32.667 28.667 -75.667 45.667 -129 51l-94 -512c52 -36 94 -66.667 126 -92c42 -33.333 76.333 -65.333 103 -96c64 -72 96 -148 96 -228c0 -132 -50.667 -243 -152 -333c-98.667 -88 -222.667 -137.333 -372 -148
l-5 -50c-2 -17.333 -3 -32 -3 -44c0 -4 0.666992 -9 2 -15c1.33301 -7.33301 3.33301 -14.666 6 -21.999c-27.333 -22 -54 -33 -80 -33c-14 0 -28.333 1.66699 -43 5c-18.667 4.66699 -31.667 10.667 -39 18c6 43.333 13 89.666 21 138.999c-94 4.66699 -177 26.667 -249 66
c-85.333 46.667 -128 106 -128 178c0 88 51.333 161 154 219c-2.66699 -50 16 -104.333 56 -163c50 -72.667 116.667 -116.667 200 -132l100 551c-92.667 58.667 -161.334 115.334 -206.001 170.001c-54 65.333 -81 135 -81 209c0 126.667 44.333 233.667 133 321
c86.667 86 200.667 136.667 342 152l7 71c0 30 -1.66699 52 -5 66c13.333 14.667 45.666 22 96.999 22c35.333 0 53 -24.333 53 -73c0 -9.33301 -1.33301 -21.666 -4 -36.999l-6 -43c36.667 -2.66699 69.667 -6.33398 99 -11.001c38.667 -6.66699 71.667 -15.334 99 -26.001
c71.333 -28 107 -69.667 107 -125c0 -25.333 -12.667 -55.666 -38 -90.999c-20 -26.667 -43.667 -51.667 -71 -75zM669.002 984.999l76 424c-132.667 -18.667 -199 -95 -199 -229c0 -77.333 41 -142.333 123 -195zM704.002 630.999l-64 -360.001l-20 -113
c159.333 18.667 239 98.334 239 239.001c0 76.667 -51.667 154.667 -155 234z" />
    <glyph glyph-name="percent" unicode="%" horiz-adv-x="1794" 
d="M1765 557c0 -152.667 -45.667 -285 -137 -397c-96 -117.333 -215 -176 -357 -176c-177.333 0 -266 86.667 -266 260c0 156 49.667 295.667 149 419c104 127.333 227 191 369 191c161.333 0 242 -99 242 -297zM1501 271c38 78.667 56.999 160.333 56.999 245
c0 48 -6.66699 88.333 -20 121c-18 42 -45.333 63 -82 63c-65.333 0 -122.666 -48.667 -171.999 -146c-45.333 -88 -68 -177 -68 -267c0 -102.667 39.667 -154 119 -154c66 0 121.333 46 166 138zM663.999 171.999c36 62 78.998 129.668 128.998 203.001l141 201l143 196
c195.333 271.333 398.666 534.333 609.999 789c-30 43.333 -66 65 -108 65c-23.333 0 -59 -13 -107 -39c-60.667 -32 -130.334 -56 -209.001 -72c-61.333 -12 -120 -18 -176 -18c-125.333 0 -225.666 46.333 -300.999 139c-64 -58 -96 -113.333 -96 -166
c0 -32 27.333 -62.667 82 -92l3 -44l1 -46c0 -92.667 -19 -180.334 -57 -263.001c-44 -96 -99.333 -144 -166 -144c-75.333 0 -113 53 -113 159c0 78 14.333 152.333 43 223c32 78.667 75.667 135 131 169c-12 26 -28 43.667 -48 53c-13.333 5.33301 -32 8 -56 8
c-79.333 0 -147.666 -59 -204.999 -177c-49.333 -102 -74 -200.667 -74 -296c0 -195.333 88.667 -293 266 -293c135.333 0 250.666 60.333 345.999 181c90.667 113.333 136 241.333 136 384l-1 10c0 5.33301 -0.666992 11.666 -2 18.999c20.667 -6.66699 46.667 -10 78 -10
c42.667 0 90.334 8 143.001 24c36.667 11.333 87.334 30.666 152.001 57.999l-110 -148l-101 -135l-575 -760c-34.667 -46 -62 -84.333 -82 -115c-52 -77.333 -80.667 -138.666 -86 -183.999c0 -43.333 54 -70.666 162 -81.999c28.667 64 64.334 131.667 107.001 203z" />
    <glyph glyph-name="ampersand" unicode="&#x26;" horiz-adv-x="1073" 
d="M1240 344c1.33301 0.666992 3 1.66504 5 2.99805l13 8c12 8 16.333 7 13 -3c-14.667 -42 -41.667 -75.667 -81 -101c-14 -9.33301 -31 -18.333 -51 -27l-48 -19c-28 -8.66699 -71.667 -6 -131 8c-63.333 14.667 -112.333 35.667 -147 63
c-60.667 -72 -123 -132.667 -187 -182c-71.333 -56 -145 -97.667 -221 -125c-59.333 -20 -109 -30 -149 -30c-100 0 -150 57.333 -150 172c0 159.333 101.667 324.333 305 495c-46 40 -69 95.333 -69 166c0 92 35.333 178 106 258c66.667 75.333 150.667 130 252 164
c26.667 9.33301 51.334 14 74.001 14c23.333 0 43.666 -5.33301 60.999 -16c28 -15.333 43 -39.333 45 -72c10 -56 -13 -128 -69 -216c-50.667 -78.667 -116.334 -154 -197.001 -226c70.667 -77.333 151.334 -145.666 242.001 -204.999c30.667 55.333 55.667 111 75 167
c22 62.667 33 116.334 33 161.001c-1.33301 19.333 -5 35 -11 47c-5.33301 8.66699 -12 15.334 -20 20.001c-4.66699 2.66699 -10.667 4.33398 -18 5.00098c-5.33301 1.33301 -8 2.66602 -8 3.99902c0 4.66699 4.66699 11 14 19c8 7.33301 18.667 15 32 23
c27.333 15.333 50 25.666 68 30.999c63.333 22.667 95 3.66699 95 -57c0 -13.333 -1.66699 -29.666 -5 -48.999l-10 -49c-7.33301 -56 -28.333 -119.333 -63 -190c-30 -62.667 -66.333 -123 -109 -181l50 -29c28.667 -16.667 54 -30 76 -40
c70.667 -31.333 127 -38.333 169 -21c4 1.33301 9.33301 4.66602 16 9.99902zM530 865.998c0 -54 13.667 -95.666 41 -124.999c126.667 122.667 188.667 226 186 310c-2 43.333 -32.667 54.666 -92 33.999c-90 -28.667 -135 -101.667 -135 -219zM625 203.999
c36 29.333 72.667 67.667 110 115c-49.333 30.667 -94.333 63 -135 97c-50.667 42 -96 87 -136 135c-91.333 -102 -137 -204.333 -137 -307c0 -87.333 31.333 -131 94 -131c18 0 39.333 4 64 12c49.333 16 96 42.333 140 79z" />
    <glyph glyph-name="quotesingle" unicode="'" horiz-adv-x="460" 
d="M633 1528c0 -10 -0.665039 -18.333 -1.99805 -25c-4.66699 -31.333 -27 -92.666 -67 -183.999l-48 -116c-14.667 -38 -26.334 -64.667 -35.001 -80c-21.333 -40 -51 -60 -89 -60c-52 0 -78 19 -78 57c-0.666992 13.333 1.66602 37.666 6.99902 72.999
c2.66699 14 5.66699 31.333 9 52l29 170c6 39.333 8.66699 68 8 86c0 4.66699 -1 9.66699 -3 15l-5 14c64 34 131.333 51 202 51c46 0 70 -17.667 72 -53z" />
    <glyph glyph-name="parenleft" unicode="(" horiz-adv-x="821" 
d="M616 1147c-106 -202 -163.333 -415.668 -172 -641.001c0 -327.333 81.333 -518.666 244 -573.999c-57.333 -73.333 -117.333 -110 -180 -110c-104 0 -186.333 64 -247 192c-55.333 115.333 -83 256 -83 422c0 308.667 90.667 588.667 272 840
c164.667 212.667 309 319 433 319c45.333 0 81.333 -18.333 108 -55c-150.667 -74 -275.667 -205 -375 -393z" />
    <glyph glyph-name="parenright" unicode=")" horiz-adv-x="786" 
d="M527 145c-166.667 -212.667 -311.667 -319 -435 -319c-44 0 -79.333 18.333 -106 55c161.333 88 293 237.667 395 449c101.333 206 152 417.667 152 635c0 300 -82 474.667 -246 524c57.333 73.333 117.333 110 180 110c106 0 189.333 -66 250 -198
c53.333 -116 80 -254.667 80 -416c0 -307.333 -90 -587.333 -270 -840z" />
    <glyph glyph-name="asterisk" unicode="*" horiz-adv-x="1019" 
d="M815 1075c0 -38.667 -11.334 -70.666 -34.001 -95.999c-4.66699 -6 -11 -12 -19 -18l-104 28l-25 7c-19.333 4.66699 -37 8.66699 -53 12c39.333 -62 64.666 -115.333 75.999 -160c14 -48.667 -0.333008 -80 -43 -94c-38 -12 -72.333 -11.333 -103 2
c-7.33301 2 -14.666 6 -21.999 12l-3 60c0 8 -0.333008 15.667 -1 23c-2 40 -4.33301 74.333 -7 103c-43.333 -52 -86.333 -92 -129 -120c-43.333 -26.667 -77.333 -22.667 -102 12c-22.667 30 -33 62.667 -31 98c0 3.33301 0.666992 7.33301 2 12l2 13l177 69
c-67.333 26 -119.333 54 -156 84c-38.667 34 -45.667 68.333 -21 103c20.667 30 48.667 49 84 57l13 3c4.66699 0.666992 9.33398 1 14.001 1l51 -65c25.333 -32 48 -58.667 68 -80c3.33301 67.333 13.333 125.333 30 174c19.333 48 50.333 65 93 51
c38 -12.667 64.667 -33 80 -61c2 -2.66699 4 -6.33398 6 -11.001l6 -14l-20 -31l-53 -80l-28 -47c64.667 18 123 25.667 175 23c51.333 -2.66699 77 -26 77 -70z" />
    <glyph glyph-name="plus" unicode="+" horiz-adv-x="1107" 
d="M1050 561c-12.667 -40 -53.6709 -66.998 -123.004 -80.998c-29.333 -6 -65 -10 -107 -12c-32 -2 -72.667 -3 -122 -3l-20 -98l-16 -84c-8.66699 -54.667 -13 -97.667 -13 -129c0 -24 2 -45.333 6 -64c-43.333 -9.33301 -78.333 -14 -105 -14c-82 0 -123 19.667 -123 59
c0 41.333 7.33301 93.666 22 156.999c6 25.333 13.333 54 22 86l26 87h-88c-103.333 0 -188.666 -11 -255.999 -33c10.667 52.667 23 97 37 133c16.667 40.667 59 68 127 82c28.667 6 63.334 10 104.001 12c30 2 69.667 3 119 3c16 66 28 123 36 171
c10 57.333 15 104.666 15 141.999c0 13.333 -1.33301 31 -4 53c40.667 9.33301 73.334 14 98.001 14c80.667 0 121 -21.667 121 -65c0 -32 -7.66699 -81 -23 -147l-11 -42l-31 -126h55c126.667 0 224.334 9.33301 293.001 28c-10.667 -52 -23.667 -95 -39 -129z" />
    <glyph glyph-name="comma" unicode="," horiz-adv-x="608" 
d="M359 -129c-46.667 -43.333 -96.001 -79.668 -148.001 -109.001c-63.333 -35.333 -119 -53 -167 -53c-16 0 -32.333 5.66699 -49 17c-20.667 13.333 -31 31 -31 53c0 4 1 8.66699 3 14c2.66699 7.33301 4.33398 12 5.00098 14c166.667 29.333 250 111.333 250 246
c0 22.667 -5.66699 47.667 -17 75c-8 18 -19.333 39.667 -34 65c52 51.333 123 77 213 77c83.333 0 125 -38.667 125 -116c0 -97.333 -50 -191.666 -150 -282.999z" />
    <glyph glyph-name="hyphen" unicode="-" horiz-adv-x="712" 
d="M751 702c-22.667 -84 -57.333 -137.998 -104 -161.998c-33.333 -17.333 -97 -26 -191 -26h-60c-47.333 0 -97.333 -4.66699 -150 -14l-40 -8c-4 -0.666992 -7.66699 -1.33398 -11 -2.00098c-15.333 -3.33301 -26 -5 -32 -5c0 16 4 33.333 12 52
c34 82 64.667 135.333 92 160c24.667 21.333 63 32 115 32c10 0.666992 23.667 1 41 1l117 -1c80.667 0 149 7.66699 205 23c8 -14.667 10 -31.334 6 -50.001z" />
    <glyph glyph-name="hyphen" unicode="&#x2010;" horiz-adv-x="712" 
d="M751 702c-22.667 -84 -57.333 -137.998 -104 -161.998c-33.333 -17.333 -97 -26 -191 -26h-60c-47.333 0 -97.333 -4.66699 -150 -14l-40 -8c-4 -0.666992 -7.66699 -1.33398 -11 -2.00098c-15.333 -3.33301 -26 -5 -32 -5c0 16 4 33.333 12 52
c34 82 64.667 135.333 92 160c24.667 21.333 63 32 115 32c10 0.666992 23.667 1 41 1l117 -1c80.667 0 149 7.66699 205 23c8 -14.667 10 -31.334 6 -50.001z" />
    <glyph glyph-name="period" unicode="." horiz-adv-x="581" 
d="M432 10c-56 -30 -110.667 -45 -164 -45c-70 0 -108.333 27.333 -115 82v31l20 106c2 9.33301 3 17 3 23l-1 12c0 4.66699 -0.666992 8.66699 -2 12c58 30 111.333 45 160 45c90 0 135 -38.667 135 -116c0 -37.333 -12 -87.333 -36 -150z" />
    <glyph glyph-name="slash" unicode="/" horiz-adv-x="915" 
d="M1219 1587c-58 -54 -139.999 -163.667 -245.999 -329c-102.667 -160 -214 -349.333 -334 -568c-219.333 -414 -342.333 -696 -369 -846l-135 -4c-84.667 0 -116.667 28.667 -96 86c9.33301 34.667 50 121.667 122 261l119 228l148 279
c207.333 389.333 359.666 649 456.999 779c40.667 45.333 75 76 103 92c36 20 80.667 30 134 30c12 0 27 -0.666992 45 -2z" />
    <glyph glyph-name="zero" unicode="0" horiz-adv-x="1245" 
d="M1095 336c-71.333 -119.333 -153.999 -211.667 -247.999 -277c-102.667 -72 -214 -108 -334 -108c-134.667 0 -234.334 42.667 -299.001 128c-58.667 76.667 -88 187 -88 331c0 294.667 71.333 562.334 214 803.001c72 122.667 155.333 218 250 286
c103.333 74 213.666 111 330.999 111c140.667 0 242.334 -44.667 305.001 -134c54.667 -78 82 -195.333 82 -352c-4.66699 -294.667 -75.667 -557.334 -213 -788.001zM967.001 1352c-28 58.667 -73.332 88 -135.999 88c-109.333 0 -203.333 -104.333 -282 -313
c-74.667 -199.333 -115.334 -434.333 -122.001 -705c0 -95.333 11.667 -168.333 35 -219c27.333 -60 71 -90 131 -90s116.333 32.333 169 97c48 59.333 90.667 142 128 248c72 204 110.333 429 115 675c0 96 -12.667 169 -38 219z" />
    <glyph glyph-name="one" unicode="1" horiz-adv-x="1042" 
d="M774 193c-30 -3.33301 -55.335 -5.00293 -76.002 -5.00293l291 1246c5.33301 20 8 39 8 57c0 38.667 -19 80.334 -57 125.001c-39.333 -14.667 -86.666 -27 -141.999 -37c-47.333 -9.33301 -100 -16.666 -158 -21.999c-48 -4.66699 -98 -8 -150 -10
c-42 -2 -82.333 -3 -121 -3c-20.667 -49.333 -31 -102.666 -31 -159.999c0 -72 27.333 -99 82 -81c76 25.333 164.667 46.333 266 63c-79.333 -359.333 -164.666 -723.333 -255.999 -1092c-6 -24.667 -14.333 -49.667 -25 -75c-32.667 -2.66699 -61.334 -4 -86.001 -4
c-18.667 0 -44 2.33301 -76 7l-71 13c-27.333 -43.333 -41 -86.333 -41 -129c4 -33.333 23 -58.666 57 -75.999c29.333 -14.667 64.333 -21.334 105 -20.001l186 4h209c42.667 0 76.334 -1.66699 101.001 -5c37.333 -4.66699 69.333 -14 96 -28c32.667 56.667 49 99 49 127
c0 74.667 -53.333 109.667 -160 105z" />
    <glyph glyph-name="two" unicode="2" horiz-adv-x="1245" 
d="M244 269l153.006 135.006c52.667 49.333 101 97.333 145 144c48.667 51.333 93 102.666 133 153.999c86 110 151 207.333 195 292c48 93.333 72.333 174.333 73 243c0 47.333 -18.333 87.666 -55 120.999c-35.333 32.667 -77 49 -125 49c-122.667 0 -221 -54 -295 -162
l-32 -30c-12.667 -10.667 -25.334 -17.667 -38.001 -21c-31.333 51.333 -47 97.666 -47 138.999c0 80 53 146.667 159 200c100 50 217 75 351 75c262.667 0 394 -108.667 394 -326c0 -114.667 -52 -247 -156 -397c-60 -88.667 -141.333 -187.667 -244 -297
c-10.667 -12 -35.334 -37.333 -74.001 -76l-155 -152c0 -0.666992 -0.666992 -1.33398 -2 -2.00098c-0.666992 -0.666992 -1 -1.33398 -1 -2.00098l-149 -147l195 -4c25.333 0 51.666 0.333008 78.999 1l70 3c35.333 2 69.666 6.66699 102.999 14
c26 5.33301 52.667 12.333 80 21l16 6l22 7c3.33301 1.33301 5.66602 2.33301 6.99902 3l12 4c17.333 5.33301 29.666 8 36.999 8c6 0 10.333 -6.33301 13 -19l3 -40c0 -92.667 -12.667 -155.667 -38 -189c-28 -36.667 -80.667 -55 -158 -55l-148 4
c-10.667 0.666992 -19 1 -25 1c-42.667 2 -79 3.33301 -109 4c-42.667 1.33301 -82 2 -118 2c-30 0 -63.333 -0.666992 -100 -2l-264 -11c-7.33301 0.666992 -13.333 1 -18 1c-12 1.33301 -19.667 3.66602 -23 6.99902c-8.66699 8.66699 -16 27 -22 55
c-4.66699 24 -7 46 -7 66s2.66699 34.333 8 43z" />
    <glyph glyph-name="three" unicode="3" horiz-adv-x="1187" 
d="M618 705c61.333 0 111.332 -24.333 149.999 -73c35.333 -44.667 53 -97.667 53 -159c0 -94.667 -34.333 -174.334 -103 -239.001c-69.333 -66 -157 -99 -263 -99c-130 0 -232 53.333 -306 160c-39.333 -64 -59 -127.667 -59 -191c0 -100.667 116 -151 348 -151
c182.667 0 341.334 52 476.001 156c142.667 110.667 214 249.667 214 417c0 90 -26.667 164 -80 222c-59.333 61.333 -131 91.333 -215 90c-2.66699 0 -4 1.33301 -4 4l91 49c30 16 56 31 78 45c52.667 32.667 94.667 66 126 100c71.333 77.333 107 166.333 107 267
c0 203.333 -138.667 305 -416 305c-122.667 0 -223 -19.333 -301 -58c-83.333 -41.333 -125 -98.666 -125 -171.999c0 -17.333 9.66699 -40.333 29 -69c6.66699 -10.667 15.334 -23 26.001 -37l27 -33c59.333 121.333 157 182 293 182c120 0 180 -58.667 180 -176
c0 -80.667 -42 -151.334 -126 -212.001c-34 -24.667 -75.333 -48 -124 -70c-38.667 -17.333 -83.667 -34.666 -135 -51.999l-79 -23c-28.667 -10 -52.334 -20 -71.001 -30c-46 -26 -69 -60.667 -69 -104c0 -24 6.66699 -50.667 20 -80c84 20.667 170 31 258 31z" />
    <glyph glyph-name="four" unicode="4" horiz-adv-x="1263" 
d="M1182 657c46 0 69 -18.9971 69 -56.9971c0 -52.667 -31.333 -113.334 -94 -182.001c-62 17.333 -125.333 26.666 -190 27.999l-41 -205c-10 -54.667 -15 -96 -15 -124c0 -34.667 7.66699 -68.334 23 -101.001c-70.667 -32.667 -133.667 -49 -189 -49
c-78.667 0 -118 34.333 -118 103c0 33.333 8 91.333 24 174c6 29.333 13.667 65 23 107l22 100c-50.667 0 -107 -1.66699 -169 -5l-286 -20c-40 -2.66699 -67.667 -4 -83 -4c-45.333 0 -68 41 -68 123c0 16 2.66699 30.333 8 43c29.333 72 87.333 163.667 174 275
c78 101.333 171 208.333 279 321l121 122c44 43.333 86 82.333 126 117c94.667 82.667 185.667 149.667 273 201c94 0 141 -24.667 141 -74c0 -18.667 -3.33301 -49 -10 -91l-10 -56l-10 -55l-172 -697l72 1zM741 647.003c11.333 46.667 25 99.333 41 158l89 315l38 144
c-102 -88 -218.667 -198.667 -350 -332c-101.333 -101.333 -185.333 -201 -252 -299z" />
    <glyph glyph-name="five" unicode="5" horiz-adv-x="1230" 
d="M567 770c84 0 149.666 -22.667 196.999 -68c56 -49.333 84 -112.666 84 -189.999c0 -122.667 -35.667 -217.667 -107 -285c-68 -65.333 -160.667 -98 -278 -98c-76.667 0 -145 16.333 -205 49c-22 12 -44.333 27.333 -67 46l-54 46c-31.333 -56 -47 -109 -47 -159
c0 -56.667 31.667 -98.334 95 -125.001c54 -22 130.333 -33 229 -33c210 0 385.333 58.667 526 176c143.333 120 215 271.667 215 455c0 129.333 -40.333 228.666 -121 297.999c-75.333 64.667 -177.666 97 -306.999 97c-73.333 0 -132 -4.66699 -176 -14
c17.333 59.333 37.666 124 60.999 194l32 97l34 98c49.333 -7.33301 117 -11 203 -11c123.333 0 217 17.333 281 52c78.667 42.667 132.334 119.667 161.001 231l-16 3h-16c-12 -1.33301 -29.333 -5.66602 -52 -12.999c-44.667 -14 -106 -25.667 -184 -35
c-66 -8 -120 -12 -162 -12c-110.667 0 -228 7.33301 -352 22l-229 -745c-7.33301 -24.667 -11.666 -40.334 -12.999 -47.001c-10.667 -30 19.333 -45 90 -45c19.333 0 40.666 1 63.999 3l28 4l23 3c6.66699 2.66699 17 4.33398 31 5.00098z" />
    <glyph glyph-name="six" unicode="6" horiz-adv-x="1245" 
d="M1241 1325c-10.667 9.33301 -21.002 17.3359 -31.002 24.0029c-14 10 -28.333 18.667 -43 26c-39.333 18.667 -81 28 -125 28c-122.667 0 -238 -66 -346 -198c-93.333 -114.667 -163.666 -253.667 -210.999 -417c112.667 96 224 144 334 144
c233.333 0 350 -115.333 350 -346c0 -178.667 -60 -329.334 -180 -452.001c-118.667 -120.667 -261.334 -181 -428.001 -181c-282.667 0 -424 151 -424 453c0 275.333 85 538.666 255 789.999c84.667 125.333 180.334 223.666 287.001 294.999
c116.667 78 238.334 117 365.001 117c134.667 0 205.667 -47.333 213 -142c0 -58 -5.33301 -105 -16 -141zM675.998 729.003c-69.333 0 -143.333 -29.333 -222 -88c-20 -86 -30 -165.333 -30 -238c0 -86.667 13.667 -152.667 41 -198c33.333 -54.667 87 -82 161 -82
c84.667 0 150.667 35 198 105c44.667 66 67 153 67 261c0 160 -71.667 240 -215 240z" />
    <glyph glyph-name="seven" unicode="7" horiz-adv-x="991" 
d="M1224 1374l-220.001 -266.003c-78.667 -100 -152.667 -199.667 -222 -299c-112 -161.333 -200 -307.666 -264 -438.999c-68.667 -141.333 -103 -253 -103 -335c0 -26 0.666992 -44.333 2 -55c-45.333 -18 -93 -27 -143 -27c-116 0 -174 39.667 -174 119
c0 66.667 43.667 175.334 131 326.001c78.667 136.667 176.334 279 293.001 427l209 263l215 258c-47.333 -2.66699 -105 -5 -173 -7c-56 -2 -116.667 -3.66699 -182 -5c-119.333 -3.33301 -196.333 -5 -231 -5c-68 0 -102 17.667 -102 53
c3.33301 82.667 30.666 153.667 81.999 213l408 -13c66 -2 128 -3 186 -3c72 0 135 2 189 6c62 4 114.333 11 157 21c18.667 -85.333 -0.666016 -162.666 -57.999 -231.999z" />
    <glyph glyph-name="eight" unicode="8" horiz-adv-x="1245" 
d="M921 848c160 -116 240 -241.665 240 -376.998c0 -157.333 -64 -284.666 -192 -381.999c-118 -89.333 -261.667 -134 -431 -134c-290.667 0 -436 117.333 -436 352c0 101.333 41.333 197.666 124 288.999c72.667 81.333 176.667 158.333 312 231
c-112 95.333 -168 200.666 -168 315.999c0 134 53 245.667 159 335c104 88 231.333 132 382 132c252.667 0 379 -94.333 379 -283c0 -182.667 -123 -342.334 -369 -479.001zM854 1452c-143.333 0 -215 -76.332 -215 -228.999c0 -92.667 52.333 -185.667 157 -279
c66 47.333 117.667 98.666 155 153.999c41.333 62.667 62 126 62 190c0 109.333 -53 164 -159 164zM823 559.003c-37.333 51.333 -92.666 108.666 -165.999 171.999c-81.333 -58 -143.333 -118.333 -186 -181c-48 -71.333 -72 -146.666 -72 -225.999
c0 -140.667 66.333 -211 199 -211c79.333 0 147.666 27 204.999 81c56.667 53.333 85 117 85 191c0 54.667 -21.667 112.667 -65 174z" />
    <glyph glyph-name="nine" unicode="9" horiz-adv-x="1245" 
d="M1013 350c-87.333 -121.333 -185.335 -215.999 -294.002 -283.999c-118.667 -74 -241.667 -111 -369 -111c-140.667 0 -211 56 -211 168c0 23.333 4 47 12 71c3.33301 9.33301 7 18.666 11 27.999l12 22l48 -40c6.66699 -5.33301 13.667 -10 21 -14
c36.667 -21.333 78.334 -32 125.001 -32c123.333 0 241 67.333 353 202c98.667 118.667 171 258 217 418c-56 -52 -115 -90.667 -177 -116c-54.667 -22 -109.667 -33 -165 -33c-229.333 0 -344 116 -344 348c0 171.333 59.667 318.333 179 441c120 124 263.667 186 431 186
c281.333 0 422 -158 422 -474c-5.33301 -277.333 -95.666 -537.333 -270.999 -780zM947.998 1359c-35.333 54 -90.001 81 -164.001 81c-83.333 0 -147.666 -35.667 -192.999 -107c-42 -65.333 -63 -152.666 -63 -261.999c0 -155.333 67.667 -233 203 -233
c63.333 0 141 28 233 84c18.667 74 29 152.333 31 235c0 87.333 -15.667 154.666 -47 201.999z" />
    <glyph glyph-name="colon" unicode=":" horiz-adv-x="581" 
d="M444 10c-56 -30 -110.667 -45 -164 -45c-70 0 -108.333 27.333 -115 82v31l20 106c2 9.33301 3 17 3 23l-1 12c0 4.66699 -0.666992 8.66699 -2 12c58 30 111.333 45 160 45c90 0 135 -38.667 135 -116c0 -37.333 -12 -87.333 -36 -150zM595 821
c-56 -30 -110.666 -45 -163.999 -45c-70 0 -108 27.333 -114 82v31l20 106c1.33301 9.33301 2 17 2 23v12c-0.666992 4.66699 -1.33398 8.66699 -2.00098 12c58 30 111.333 45 160 45c90 0 135 -38.667 135 -116c0 -37.333 -12.333 -87.333 -37 -150z" />
    <glyph glyph-name="semicolon" unicode=";" horiz-adv-x="608" 
d="M597 821c-56 -30 -110.666 -45 -163.999 -45c-70 0 -108.333 27.333 -115 82v31l21 106c1.33301 9.33301 2 17 2 23v12c-0.666992 4.66699 -1.33398 8.66699 -2.00098 12c58 30 111.333 45 160 45c90 0 135 -38.667 135 -116c0 -37.333 -12.333 -87.333 -37 -150z
M359.001 -129c-46.667 -43.333 -96.001 -79.668 -148.001 -109.001c-63.333 -35.333 -119 -53 -167 -53c-16 0 -32.333 5.66699 -49 17c-20.667 13.333 -31 31 -31 53c0 4 1 8.66699 3 14c2.66699 7.33301 4.33398 12 5.00098 14c166.667 29.333 250 111.333 250 246
c0 22.667 -5.66699 47.667 -17 75c-8 18 -19.333 39.667 -34 65c52 51.333 123 77 213 77c83.333 0 125 -38.667 125 -116c0 -97.333 -50 -191.666 -150 -282.999z" />
    <glyph glyph-name="less" unicode="&#x3c;" horiz-adv-x="862" 
d="M626 464c56.667 -86 79.333 -170.332 68 -252.999c-5.33301 -28.667 -15.666 -50 -30.999 -64c-128.667 134.667 -279.667 260.334 -453 377.001l-52 35c-18.667 12.667 -33.334 25 -44.001 37c-27.333 32 -41 77.667 -41 137c24 19.333 48.667 34.333 74 45
c223.333 90 445 233.333 665 430c19.333 17.333 43.333 36.666 72 57.999c10 -6.66699 18 -18.334 24 -35.001c4.66699 -14 6.33398 -25 5.00098 -33c-16 -82 -71 -168.667 -165 -260c-88 -85.333 -203 -168.666 -345 -249.999
c99.333 -74.667 173.666 -149.334 222.999 -224.001z" />
    <glyph glyph-name="equal" unicode="=" horiz-adv-x="1191" 
d="M974 293c-88.667 -18 -194.666 -27 -317.999 -27l-157 2c-134 0 -244 -8 -330 -24c18.667 102.667 50.334 167.667 95.001 195c20.667 12 47 19.667 79 23c13.333 1.33301 29.666 2.33301 48.999 3h369c110 0 213.667 9 311 27
c-20.667 -118 -53.334 -184.333 -98.001 -199zM1041 670c-86 -18 -189.668 -27 -311.001 -27l-153 2c-132 0 -240 -8 -324 -24c18.667 102.667 50 167.667 94 195c19.333 12 45 19.667 77 23c12.667 1.33301 28.334 2 47.001 2l362 1c108 0 209.667 8.66699 305 26
c-18.667 -117.333 -51 -183.333 -97 -198z" />
    <glyph glyph-name="greater" unicode="&#x3e;" horiz-adv-x="862" 
d="M366 949c-56.667 86 -79.332 170.331 -67.999 252.998c4.66699 28.667 15 50 31 64c128 -134 278.667 -259.667 452 -377l53 -35c18.667 -12.667 33.334 -25 44.001 -37c27.333 -32 41 -77.667 41 -137c-24.667 -19.333 -49.334 -34.333 -74.001 -45
c-223.333 -90 -445.333 -233.333 -666 -430c-18.667 -17.333 -42.334 -36.666 -71.001 -57.999c-10 6.66699 -18 18.334 -24 35.001c-4.66699 14 -6.33398 25 -5.00098 33c16 82 71 168.667 165 260c88 85.333 203 168.666 345 249.999
c-99.333 74.667 -173.666 149.334 -222.999 224.001z" />
    <glyph glyph-name="question" unicode="?" horiz-adv-x="1038" 
d="M1069 1530c73.333 -57.333 110.002 -144 110.002 -260c0 -109.333 -43.667 -209.666 -131 -300.999c-32.667 -30.667 -78.334 -68 -137.001 -112l-142 -105c-50 -39.333 -87 -74.333 -111 -105c-29.333 -37.333 -44 -72.666 -44 -105.999c0 -36 10 -74.333 30 -115
c-64.667 -44 -126 -66 -184 -66c-36 0 -66.333 17.667 -91 53c-21.333 30 -32 60.333 -32 91c0 73.333 28 134.666 84 183.999l21 18l169 124c28.667 23.333 54.667 45.666 78 66.999c59.333 53.333 104.666 106 135.999 158c39.333 64 59 127.333 59 190
c0 120 -62 180 -186 180c-108 0 -182.667 -55 -224 -165c-16 -22 -33 -35 -51 -39c-60 43.333 -90 88.333 -90 135c0 76 49.333 138.333 148 187c89.333 44.667 190.333 67 303 67c123.333 0 218.333 -26.667 285 -80zM593.002 133c0 -8 -2.33203 -22 -6.99902 -42l-18 -71
c-54.667 -36.667 -112.667 -55 -174 -55c-68 0 -102 29.333 -102 88c0 21.333 3 45.666 9 72.999l2 7l5 21c1.33301 9.33301 2 17.333 2 24v13c0 4.66699 -0.666992 9.33398 -2 14.001c59.333 27.333 110.666 41 153.999 41c87.333 0 131 -37.667 131 -113z" />
    <glyph glyph-name="at" unicode="@" horiz-adv-x="1835" 
d="M1288 -72c0 -20.667 -4.00098 -40.3311 -12.001 -58.998c-20 -40 -82 -74.333 -186 -103c-100 -28 -206.667 -42 -320 -42c-198.667 0 -352.334 47.333 -461.001 142c-112 98 -168 241 -168 429c0 144 31 283 93 417c59.333 126.667 142.333 239.667 249 339
c222.667 208.667 479.334 313 770.001 313c197.333 0 352 -44.667 464 -134c119.333 -94.667 179 -232.334 179 -413.001c0 -163.333 -50.667 -310 -152 -440c-108 -138 -239 -207 -393 -207c-65.333 0 -121.666 23 -168.999 69c-47.333 45.333 -72 101 -74 167
c-123.333 -174 -251.666 -261 -384.999 -261c-114.667 0 -172 67.667 -172 203c0 134 53 266 159 396c110 134.667 227.667 202 353 202c61.333 0 120.666 -19 177.999 -57c26 30 66.333 45 121 45c24 0 55.333 -7 94 -21c-98.667 -174.667 -148 -336.334 -148 -485.001
c0 -74 28 -111 84 -111c87.333 0 158.333 49.333 213 148c49.333 90 74 197 74 321c0 280 -163 420 -489 420c-224.667 0 -419.667 -88.333 -585 -265c-164.667 -176.667 -247 -383 -247 -619c0 -295.333 158.333 -443 475 -443c167.333 0 316.333 34.333 447 103
c5.33301 -14.667 8 -32.667 8 -54zM1073 831.003c-77.333 0 -149.333 -55.333 -216 -166c-60.667 -101.333 -91 -198 -91 -290c0 -53.333 20.333 -80 61 -80c51.333 0 114.333 53 189 159c68 96.667 123 202 165 316c-26.667 40.667 -62.667 61 -108 61z" />
    <glyph glyph-name="A" unicode="A" horiz-adv-x="1318" 
d="M64 -29c-69.333 0 -103.998 24 -103.998 72c0 29.333 11 65 33 107l120 214l134 231l485 818l70 123c76 56.667 161.333 80 256 70c57.333 -6.66699 88 -55.334 92 -146.001l3 -220c0 -7.33301 0.333008 -15.333 1 -24l33 -628c8.66699 -136 23 -250 43 -342
c20.667 -98.667 52.667 -167.667 96 -207c-76.667 -53.333 -161.334 -76 -254.001 -68c-74 6.66699 -119.667 73.667 -137 201c-7.33301 46 -14 102 -20 168l-13 168c-24 -19.333 -55.333 -29 -94 -29c-112.667 -4 -223.334 -6 -332.001 -6
c-42.667 -22 -74.667 -53.333 -96 -94c-12.667 -18 -27.667 -44 -45 -78l-32 -66l-9 -20c-18 -44 -30 -78.333 -36 -103c-9.33301 -39.333 -10.333 -74.666 -3 -105.999c-63.333 -23.333 -127 -35 -191 -35zM845.002 647c8 0 17.001 0.666992 27.001 2l24 4
c-2.66699 226.667 -12.334 446.667 -29.001 660l-358 -666h336z" />
    <glyph glyph-name="B" unicode="B" horiz-adv-x="1327" 
d="M989 854c215.333 -43.333 322.998 -158 322.998 -344v-10c-4 -144 -71.667 -267.667 -203 -371c-133.333 -108 -306.666 -162 -519.999 -162c-120 0 -230.667 11 -332 33c-70.667 17.333 -106 68 -106 152l1 35c0.666992 14 2.33398 26.667 5.00098 38l157 659
c26.667 115.333 47 206 61 272c16 80 24 132.333 24 157c0 18 -1.33301 33 -4 45c-2.66699 14 -7 20 -13 18c-11.333 -2.66699 -24 -4.33398 -38 -5.00098l-27 -1c-6 2 -8 13.667 -6 35c0 20 4 39 12 57c16.667 34 33.334 56.667 50.001 68
c9.33301 6.66699 31.666 15.334 66.999 26.001c133.333 36 267 54 401 54l45 -1c16.667 0 31.667 -0.333008 45 -1c281.333 -15.333 422 -125.333 422 -330c-10 -188 -131.333 -329.333 -364 -424zM1005 479c0 142 -88.665 225.333 -265.998 250
c-18.667 4 -39.334 4.66699 -62.001 2c-13.333 -1.33301 -34.333 -2 -63 -2c-8.66699 0 -16.334 1.66699 -23.001 5c-9.33301 4 -16.666 10.667 -21.999 20l-57 -239c-22 -96 -38 -174.667 -48 -236l-3 -41l-1 -37c48 -42 114.333 -64 199 -66
c107.333 0 192.666 32.667 255.999 98c58 64 88 142.667 90 236v10zM1064 1249c0 69.333 -23.666 120.334 -70.999 153.001c-40.667 28 -99.334 42 -176.001 42c-35.333 0 -85.333 -6.33301 -150 -19c14 -27.333 21 -57.333 21 -90c0 -29.333 -3.66699 -59.333 -11 -90
c-23.333 -110.667 -50 -228.667 -80 -354l83 7l81 9c195.333 35.333 296.333 144.666 303 327.999v14z" />
    <glyph glyph-name="C" unicode="C" horiz-adv-x="1243" 
d="M1228 1192c-38.667 168 -125.999 251.999 -261.999 251.999c-77.333 0 -149 -30.667 -215 -92c-58.667 -54 -110 -130 -154 -228c-40 -87.333 -71 -185.333 -93 -294c-20.667 -101.333 -31 -197.666 -31 -288.999c0 -254 97.667 -381 293 -381
c144 0 291.333 71.667 442 215c19.333 -52.667 29 -89.667 29 -111c0 -75.333 -65.333 -145.666 -196 -210.999c-130 -65.333 -267.667 -98 -413 -98c-322 0 -483 187.667 -483 563c0 283.333 90 534.666 270 753.999c86 106 184 188.333 294 247c116.667 62 238 93 364 93
c103.333 0 185.666 -16.333 246.999 -49c67.333 -36 101 -88.667 101 -158c0 -86 -64.333 -157 -193 -213z" />
    <glyph glyph-name="D" unicode="D" 
d="M1318 1476c110 -93.333 165.001 -234.333 165.001 -423c0 -142 -26.333 -280.333 -79 -415c-50 -128.667 -119.667 -243.667 -209 -345c-190.667 -216 -410.334 -324 -659.001 -324c-148.667 0 -281.667 45 -399 135c-1.33301 13.333 2 39.333 10 78l194 828
c20 87.333 35.333 160.333 46 219c4 20.667 6 37 6 49c0 22 -10.333 38.667 -31 50c-20 12 -30 24.667 -30 38c0 56.667 15.667 108 47 154c69.333 26 145.333 46.667 228 62c90 17.333 177 26 261 26c196 0 346 -44 450 -132zM1026 422c99.333 170 149 361.667 149 575
c0 285.333 -115.333 428 -346 428c-44.667 0 -97.667 -6.66699 -159 -20c9.33301 -28.667 14 -60 14 -94c0 -35.333 -8.33301 -96.333 -25 -183c-12.667 -68.667 -32.334 -161 -59.001 -277l-72 -308l-33 -146l-28 -131c16.667 -73.333 79.334 -110 188.001 -110
c143.333 0 267 88.667 371 266z" />
    <glyph glyph-name="E" unicode="E" horiz-adv-x="1103" 
d="M946 1577c29.333 0 67.999 1.33398 115.999 4.00098l99 4c71.333 0 118.333 -12.333 141 -37c-8 -55.333 -25.333 -103 -52 -143c-31.333 -46.667 -68 -70 -110 -70c-4.66699 0 -12 2.66699 -22 8l-32 18l-49 17c-21.333 5.33301 -44.333 8 -69 8l-319 5
c16 -18.667 24 -39.334 24 -62.001v-16l-44 -203c-16 -72.667 -32 -141.667 -48 -207h121c61.333 0 125.666 3 192.999 9c57.333 5.33301 114 12.666 170 21.999c0 -14.667 -2.33301 -31 -7 -49c-20 -74.667 -60 -124.334 -120 -149.001c-26 -10.667 -58 -17.667 -96 -21
c-28 -2.66699 -66.333 -4 -115 -4h-185c-18 -58 -33.667 -117.667 -47 -179c-17.333 -80 -26 -144.667 -26 -194c0 -72 27 -118 81 -138c20 -7.33301 44.667 -11.666 74 -12.999l72 -1c46.667 0 95.334 4.66699 146.001 14c38 7.33301 78.667 17.333 122 30l94 31
c28 8.66699 47.333 13 58 13c0 -118 -47 -198 -141 -240c-41.333 -18.667 -95 -31.667 -161 -39c-53.333 -6 -122.666 -9 -207.999 -9l-285 2c-70 0 -118 16.667 -144 50c-20 26.667 -30 71.334 -30 134.001c0 36.667 4.66699 82 14 136
c7.33301 44 17.666 92.333 30.999 145l72 273c25.333 96.667 45.333 175.334 60 236.001c36 155.333 54 271 54 347v44c-1.33301 14.667 -4.66602 21 -9.99902 19c-11.333 -2.66699 -24 -4.33398 -38 -5.00098l-27 -1c-6 2 -8 13.667 -6 35c0 20 4 39 12 57
c28.667 58 67.667 89.333 117 94c172 16.667 345.333 25 520 25z" />
    <glyph glyph-name="F" unicode="F" horiz-adv-x="1007" 
d="M692 858c84 0 164.999 2.99512 242.999 8.99512c85.333 6.66699 145 15.334 179 26.001c0 -67.333 -17 -120.666 -51 -159.999c-28 -32 -61 -49.667 -99 -53l-144 -11c-62.667 -3.33301 -120.334 -5 -173.001 -5l-44 -1l-44 -4l-25 -90
c-53.333 -235.333 -80 -384.666 -80 -447.999c0 -15.333 3.66699 -34.666 11 -57.999c0 -2 0.333008 -4.33301 1 -7l6 -18c2 -8 3 -14.667 3 -20c-47.333 -32.667 -114.333 -49 -201 -49c-88.667 0 -133 37 -133 111c0 35.333 7.66699 84.333 23 147l55 244l72 274
c25.333 96 45 174.333 59 235c36.667 156 55 271.667 55 347v45c-1.33301 14 -4.66602 20.333 -9.99902 19c-11.333 -2.66699 -24 -4.66699 -38 -6l-28 -1c-6 2 -8 13.667 -6 35c0 20 4.33301 39.333 13 58c28.667 58 67.334 89.333 116.001 94c172 16 345.333 24 520 24
c30 0 69 1.33301 117 4l99 5c71.333 0 118.333 -12.333 141 -37c-8 -55.333 -25.667 -103.333 -53 -144c-30.667 -46 -67 -69 -109 -69c-4.66699 0 -12 2.66699 -22 8l-32 17l-49 18c-21.333 5.33301 -44.333 8 -69 8l-324 4c19.333 -21.333 29 -43.333 29 -66v-16l-2 -18
c-28 -143.333 -61.333 -293.666 -100 -450.999h94z" />
    <glyph glyph-name="G" unicode="G" horiz-adv-x="1347" 
d="M952 57c-41.333 -33.333 -96.002 -58.3359 -164.002 -75.0029c-58.667 -14 -122 -21 -190 -21c-139.333 0 -250.666 50 -333.999 150c-82 98 -123 227.667 -123 389c0 294 93.333 552.333 280 775c187.333 223.333 404.666 335 651.999 335
c255.333 0 383 -65.667 383 -197c0 -76.667 -63.667 -147.667 -191 -213c-25.333 162.667 -121.333 244 -288 244c-76.667 0 -148.334 -30 -215.001 -90c-60 -53.333 -113.333 -128 -160 -224c-90 -185.333 -135 -381.666 -135 -588.999c0 -254 82.333 -381 247 -381
c54.667 0 119 19.667 193 59c28.667 40.667 52.334 92.334 71.001 155.001c8 26.667 15.667 57.334 23 92.001l21 101c0 32.667 -8.33301 53.334 -25 62.001c-35.333 0 -68.666 -7 -99.999 -21c0 72.667 23.333 118 70 136c22.667 8 57 14 103 18l158 8
c26.667 1.33301 48.667 1 66 -1c25.333 -4 38.333 -12 39 -24c0.666992 -12.667 -1.33301 -28.667 -6 -48l-15 -54c-29.333 -126.667 -51.666 -229.334 -66.999 -308.001c-18 -91.333 -27 -156 -27 -194c0 -14.667 3.33301 -34.334 10 -59.001l4 -13
c1.33301 -5.33301 2.66602 -9.66602 3.99902 -12.999c2 -8.66699 3 -15.667 3 -21c-49.333 -30 -119.666 -45 -210.999 -45c-50.667 0 -76 22.333 -76 67z" />
    <glyph glyph-name="H" unicode="H" horiz-adv-x="1445" 
d="M544 586l-89.999 -342c-33.333 -128.667 -52.666 -210 -57.999 -244c-3.33301 -26 -4 -55.333 -2 -88c-70.667 -42.667 -151.667 -64 -243 -64c-57.333 0 -84 22.667 -80 68c0 32.667 11.333 84 34 154c37.333 110 71.333 216.667 102 320
c35.333 120.667 66 235.667 92 345c29.333 124 52.666 240 69.999 348c18.667 120 29.667 230 33 330c0 35.333 -10.667 75 -32 119c79.333 44.667 149.666 67 210.999 67c38.667 2.66699 69.334 -6 92.001 -26c22 -20 33 -50.667 33 -92c0 -31.333 -7 -98 -21 -200
l-27 -177c-12 -70 -25 -138.333 -39 -205h426c36 0 61.333 2 76 6c15.333 38 26.333 73 33 105l141 618c19.333 94 73.333 137 162 129c69.333 -7.33301 119.333 -28.333 150 -63c-14 -14 -36.667 -84.333 -68 -211c-13.333 -54 -28.333 -118.333 -45 -193l-92 -441
l-88 -443c-10 -50.667 -17.333 -89.667 -22 -117c-6 -38.667 -9 -70 -9 -94c0 -56 15.667 -106 47 -150c0 -20.667 -34.333 -40 -103 -58c-58 -14.667 -106.333 -22 -145 -22c-77.333 0 -116 43.667 -116 131c0 48 10 113 30 195l44 190l51 240
c-27.333 -10.667 -64.666 -18 -111.999 -22c-36.667 -3.33301 -83.334 -5 -140.001 -5l-199 2c-24.667 0 -47.334 -2 -68.001 -6c-8.66699 -24 -18 -58.667 -28 -104z" />
    <glyph glyph-name="I" unicode="I" horiz-adv-x="634" 
d="M284 696c35.333 151.333 65.333 284.667 90 400c20.667 94 33 176.333 37 247l1 34c0 12.667 -1 23.667 -3 33c-6 23.333 -21 40 -45 50c-9.33301 2 -16.333 9 -21 21l-3 19c0 2 3.33301 5 10 9c88 52 174.667 78 260 78c50 0 86 -13.667 108 -41
c22.667 -25.333 29.667 -64 21 -116l-180 -765l-54 -255c-10 -52 -17 -90.667 -21 -116c-6.66699 -38.667 -10 -70.334 -10 -95.001c0 -54 16 -104 48 -150c0 -20 -34.667 -39 -104 -57c-58.667 -15.333 -106.667 -23 -144 -23c-78 0 -117 43.667 -117 131
c0 46.667 10.333 112.334 31 197.001z" />
    <glyph glyph-name="J" unicode="J" horiz-adv-x="694" 
d="M115 -76c31.333 32.667 61.333 81.332 90 145.999c25.333 60.667 48.666 139 69.999 235l97 397c34.667 148 65 282.667 91 404c20.667 94.667 33 177.334 37 248.001l1 34c0 13.333 -1 24.333 -3 33c-6 24 -21 40.333 -45 49c-9.33301 4 -16.333 11.667 -21 23l-4 19
c0.666992 2.66699 4 6 10 10c86.667 50 173.667 75 261 75c51.333 0 87.333 -12.667 108 -38c22 -26 29 -65.667 21 -119l-234 -1020c-42 -184 -94.667 -332.333 -158 -445c-51.333 -100 -121.333 -178.333 -210 -235c-83.333 -53.333 -171 -80 -263 -80
c-150 0 -225 43.667 -225 131c0 44.667 39 85 117 121c34 -38 72 -57 114 -57c56.667 4.66699 105.334 27.667 146.001 69z" />
    <glyph glyph-name="K" unicode="K" horiz-adv-x="1355" 
d="M1414 154c3.33301 -4 3.33008 -7.6709 -0.00292969 -11.0039c-38.667 -122.667 -117.667 -184 -237 -184c-101.333 0 -198.333 67.667 -291 203c-149.333 216 -253.666 412 -312.999 588c-84.667 -363.333 -127 -573.666 -127 -630.999c0 -10 0.666992 -19.667 2 -29
l16 -61c-53.333 -40 -128.333 -60 -225 -60c-74.667 0 -113 28 -115 84c0 38.667 9.66699 93.334 29 164.001l155 592c25.333 106 46.333 205 63 297c19.333 104.667 34 206.334 44 305.001c3.33301 34.667 -4.33398 74.334 -23.001 119.001
c70.667 40.667 142.334 63 215.001 67c41.333 2.66699 72 -6 92 -26c20.667 -20.667 29.667 -51.334 27 -92.001c-3.33301 -34.667 -16.666 -111.667 -39.999 -231c-13.333 -67.333 -27.333 -132.666 -42 -195.999c-16.667 -75.333 -33.667 -144.666 -51 -207.999
c16 14.667 40.667 33.667 74 57c195.333 132.667 335.333 244.667 420 336c83.333 90.667 126.333 176 129 256c0 28.667 -3 54 -9 76c62 14.667 106.667 22 134 22c80 0 120 -40.333 120 -121c0 -83.333 -44.333 -173.333 -133 -270c-32 -34 -76 -74 -132 -120
c-20 -16.667 -45 -36.334 -75 -59.001l-73 -58c-56 -44 -97.333 -78.667 -124 -104c-35.333 -34.667 -55.666 -63 -60.999 -85c96 -190 188.667 -338 278 -444c97.333 -114.667 185 -172 263 -172c4 0 7.33301 -1.33301 10 -4z" />
    <glyph glyph-name="L" unicode="L" horiz-adv-x="1105" 
d="M189 350c17.333 105.333 40.333 225.666 69 360.999c30 140.667 61.667 276.334 95 407.001c36.667 144 71.667 266.333 105 367c10 34 33.333 64.667 70 92c29.333 20 63.333 29 102 27c70 -4.66699 131.333 -28 184 -70c-38 -42.667 -64 -81.667 -78 -117
c-68 -188 -128.333 -396.333 -181 -625c-54 -232.667 -81 -407.334 -81 -524.001c0 -15.333 2 -28.333 6 -39c28.667 -10 67 -16.667 115 -20c32 -2.66699 71.667 -4 119 -4c153.333 0 277 23.667 371 71l8 5c2.66699 0 4 -4.33301 4 -13
c-6 -130 -45.667 -212.667 -119 -248c-34.667 -16.667 -83 -27.667 -145 -33c-26.667 -2 -58.667 -3.66699 -96 -5l-279 -1c-58 0 -112.667 -0.333008 -164 -1c-87.333 0 -131 47.667 -131 143c0 42.667 8.66699 118.334 26 227.001z" />
    <glyph glyph-name="M" unicode="M" horiz-adv-x="1849" 
d="M1603 1477c-34.667 -84 -97.332 -193.996 -187.999 -329.996l-387 -608c-16.667 -26.667 -31.334 -47.334 -44.001 -62.001l-22 80l-60 289l-55 273c-36 187.333 -57.667 316.666 -65 387.999c-7.33301 64 -46.333 93.333 -117 88c-72.667 -4 -145 -26.333 -217 -67
c19.333 -43.333 27.333 -83 24 -119l-100 -375l-246 -870c-10.667 -42 -16 -76.333 -16 -103c4 -60 47 -90 129 -90c52.667 0 114.667 12.333 186 37c-17.333 38 -26 80.333 -26 127c0 50 17.667 152.333 53 307l57 234l82 311c2 9.33301 4 17.333 6 24
c2 8.66699 4.33301 16.334 7 23.001c4 -10 8 -24.333 12 -43l170 -798c12.667 -52 36.667 -78 72 -78c34.667 0 67.334 7.33301 98.001 22c24.667 12 50 29.667 76 53c33.333 76.667 95 189.667 185 339l133 214l142 224c22 32.667 41.333 60 58 82
c-6.66699 -60 -18 -142.667 -34 -248l-65 -422c-7.33301 -46.667 -13.333 -87 -18 -121c-10.667 -80.667 -16 -135.334 -16 -164.001c3.33301 -84.667 45.666 -127 126.999 -127c36 0 81.667 12 137 36l58 28l36 20c-40.667 71.333 -61 145.666 -61 222.999
c0 78 13.333 208.333 40 391c14 95.333 30.333 193 49 293c20 111.333 42 219.333 66 324c28 117.333 46.667 202.666 56 255.999c8 44 -20 62.333 -84 55c-113.333 -10 -191.333 -31.667 -234 -65c7.33301 -14.667 6 -31.667 -4 -51z" />
    <glyph glyph-name="N" unicode="N" horiz-adv-x="1503" 
d="M1068 -29c-36 0 -73.3379 46 -112.005 138l-346 890c-4 10 -9.66699 26.333 -17 49l-16 48c-48 -180 -92.333 -367.333 -133 -562c-41.333 -194.667 -62 -316 -62 -364c0 -64.667 15 -116 45 -154c-76.667 -30 -140.667 -45 -192 -45c-82 0 -123 39.667 -123 119
c0 40 15 116.667 45 230l152 570c22 82.667 39.667 151.667 53 207c36.667 150 55 244.333 55 283c0 45.333 -12.333 84.333 -37 117c82.667 62.667 157.334 94 224.001 94c78 0 150.333 -109 217 -327c62 -203.333 120 -383.333 174 -540
c61.333 -176 110.333 -301.333 147 -376c18.667 55.333 39.334 129.666 62.001 222.999l57 244c30.667 128.667 54.334 240.667 71.001 336c18 102.667 27 183.334 27 242.001c0 64 -13 116.333 -39 157c71.333 31.333 133 47 185 47c82 0 123 -45.667 123 -137
c0 -25.333 -2.33301 -49 -7 -71l-15 -71l-39 -154l-175 -692l-54 -217c-17.333 -69.333 -30.666 -124.333 -39.999 -165c-10.667 -45.333 -17 -74 -19 -86c-65.333 -22 -135.666 -33 -210.999 -33z" />
    <glyph glyph-name="O" unicode="O" 
d="M1490 1085c0 -274.667 -84.668 -528.666 -254.001 -761.999c-83.333 -114.667 -177.333 -204 -282 -268c-113.333 -69.333 -230.666 -104 -351.999 -104c-300.667 0 -451 174.667 -451 524c0 282 82.667 538 248 768c82 113.333 175 201.666 279 264.999
c112 68 230 102 354 102c305.333 0 458 -175 458 -525zM905.999 252.001c57.333 66 108.332 153.002 152.999 261.002c39.333 96 70.333 199.333 93 310c20.667 102.667 31 195 31 277c0 104 -17.667 184.667 -53 242c-38.667 64 -96.667 96 -174 96
c-60.667 0 -121.667 -31.333 -183 -94c-56.667 -56.667 -108.667 -134.334 -156 -233.001c-99.333 -205.333 -149 -407 -149 -605c0 -124.667 17.333 -220.334 52 -287.001c38.667 -76 97.334 -108 176.001 -96c74.667 11.333 144.667 54.333 210 129z" />
    <glyph glyph-name="P" unicode="P" horiz-adv-x="1224" 
d="M506 451c-28.667 -141.333 -43 -247.332 -43 -317.999c0 -36 6.66699 -73.667 20 -113c-55.333 -35.333 -129.666 -53 -222.999 -53c-82 0 -123 30 -123 90c0 23.333 2.66699 51 8 83c4 22.667 10.333 52.334 19 89.001l35 141l33 137l117 495
c16.667 78 30.667 148 42 210l9 60c3.33301 24 5 43 5 57c0 26.667 -11.333 41 -34 43c-22 2 -33 15 -33 39c4 55.333 14.667 90.333 32 105c58.667 30 130.334 53.667 215.001 71c78.667 16.667 156.667 25 234 25c180 0 315 -27.333 405 -82
c102.667 -62 154 -161.667 154 -299c0 -164 -65 -303.667 -195 -419c-130.667 -116.667 -290.334 -175 -479.001 -175c-53.333 0 -80 49 -80 147c0 6 6.33301 9 19 9c284 0 426 133 426 399c0 165.333 -99 248 -297 248l-20 -2
c-8.66699 -0.666992 -16.334 -1.33398 -23.001 -2.00098c-19.333 -2 -36.333 -5 -51 -9c12 -28.667 18 -59.334 18 -92.001c0 -26.667 -5.33301 -66 -16 -118l-90 -383l-44 -190z" />
    <glyph glyph-name="Q" unicode="Q" 
d="M1566 -156c10.667 2.66699 14.6631 -0.671875 11.9961 -10.0049c-6.66699 -18.667 -21 -42 -43 -70c-26.667 -37.333 -59.334 -70.666 -98.001 -99.999c-80.667 -68 -160 -102 -238 -102c-56.667 6 -107.667 19 -153 39c-16 6.66699 -37.667 17.334 -65 32.001l-77 39
c-32.667 16.667 -74 40.334 -124 71.001l-60 38l-61 37c-45.333 26 -87.666 47 -126.999 63c-50.667 19.333 -111.667 35.666 -183 48.999c-65.333 11.333 -110.333 24.333 -135 39c-10.667 8.66699 -16 22.334 -16 41.001c0 10.667 6 18.334 18 23.001
c22.667 8.66699 51.334 15.334 86.001 20.001c-95.333 87.333 -143 227.333 -143 420c0 282 82.667 538 248 768c81.333 113.333 174 201.666 278 264.999c112 68 229.667 102 353 102c306.667 0 460 -175 460 -525c0 -233.333 -65 -457.333 -195 -672
c-64 -105.333 -137.667 -194.666 -221 -267.999c-88.667 -78 -182.667 -132.333 -282 -163l83 -38c32 -14 59.667 -25.333 83 -34l69 -26l70 -24c52.667 -17.333 101.334 -30 146.001 -38c34 -6.66699 66.667 -10 98 -10c28.667 0 57.334 2 86.001 6
c34.667 4.66699 61.334 9.33398 80.001 14.001c8.66699 2 18 4.33301 28 7c4 1.33301 8.33301 2.66602 13 3.99902zM780.996 1341.99c-56.667 -56.667 -108.667 -134.332 -156 -232.999c-99.333 -205.333 -149 -407 -149 -605c0 -124.667 17.333 -220.334 52 -287.001
c38.667 -76 97.334 -108 176.001 -96c74.667 11.333 144.667 54.333 210 129c57.333 66 108.333 153 153 261c39.333 96 70.333 199.333 93 310c20.667 102.667 31 195 31 277c0 103.333 -18 184 -54 242c-38.667 64 -96.334 96 -173.001 96
c-60.667 0 -121.667 -31.333 -183 -94z" />
    <glyph glyph-name="R" unicode="R" horiz-adv-x="1370" 
d="M1244 939c-83.333 -88 -197.667 -153.333 -343 -196c47.333 -118.667 94 -220.334 140 -305.001c40 -74.667 80.333 -137 121 -187c34 -41.333 69.333 -75.666 106 -102.999c14.667 -11.333 30 -22 46 -32l44 -24c-16.667 -42 -49.334 -74.333 -98.001 -97
c-43.333 -20 -92 -30 -146 -30c-92.667 0 -171.334 59.333 -236.001 178c-85.333 156.667 -168.333 350.667 -249 582c-27.333 2.66699 -50 8 -68 16l-62 -276c-7.33301 -32 -13.333 -59.333 -18 -82c-26 -118 -39 -198.667 -39 -242c0 -22 1.66699 -45.667 5 -71l4 -25
c0.666992 -8.66699 1 -16 1 -22c0 -8 -11 -15.667 -33 -23c-17.333 -6 -41.666 -11.333 -72.999 -16c-22.667 -4 -47.667 -7.33301 -75 -10l-38 -3c-66.667 0 -100 30 -100 90l3 36c0.666992 14.667 2.33398 28 5.00098 40l60 257l121 498
c20 85.333 36.333 158.666 49 219.999c20 98 30 168.333 30 211s-22.333 78.334 -67 107.001c20 60 81.333 106 184 138c92.667 29.333 208 44 346 44c160 0 283.667 -27.667 371 -83c92.667 -59.333 139 -147 139 -263c0 -125.333 -43.333 -234.333 -130 -327zM593.999 891
c0 -18 8.99902 -30.3301 26.999 -36.9971c7.33301 -2.66699 16 -4.33398 26 -5.00098l25 -1c122.667 0 220.334 33 293.001 99c73.333 67.333 110 158.666 110 273.999c0 148.667 -84.667 223 -254 223c-66.667 0 -110.667 -6.33301 -132 -19
c-17.333 -10.667 -26 -31 -26 -61c9.33301 -2 16 -6.33301 20 -13c3.33301 -4.66699 5 -11.334 5 -20.001c0 -9.33301 -0.666992 -16 -2 -20z" />
    <glyph glyph-name="S" unicode="S" horiz-adv-x="1181" 
d="M264 322c34 -131.333 132.336 -197.001 295.003 -197.001c190.667 0 286 84.667 286 254c0 83.333 -43 160.333 -129 231l-125 96c-52.667 38.667 -92.667 71 -120 97c-40 38.667 -70 77.667 -90 117c-23.333 46.667 -35 97.667 -35 153
c0 157.333 61.333 287.333 184 390c118 98 260 147 426 147c94 0 167.667 -11.333 221 -34c62.667 -26.667 94 -68.667 94 -126c0 -76.667 -45 -135.334 -135 -176.001c-35.333 56.667 -72 97.667 -110 123c-44.667 30 -99.334 45 -164.001 45
c-161.333 0 -242 -69.667 -242 -209c0 -58 23 -111.333 69 -160c23.333 -24 58.666 -55 105.999 -93l77 -60l94 -72c56 -50.667 97.333 -101 124 -151c30.667 -57.333 46 -120.333 46 -189c0 -159.333 -71.667 -293.666 -215 -402.999
c-132.667 -101.333 -283.334 -152 -452.001 -152c-100 0 -190 18 -270 54c-92 42 -138 97 -138 165c0 108.667 66.333 182.334 199 221.001c-4 -22 -2.66699 -45.667 4 -71z" />
    <glyph glyph-name="T" unicode="T" horiz-adv-x="894" 
d="M618 1378l-21.002 1.00293l-61 1c-52 0 -100.667 -6 -146 -18c-34 -9.33301 -68.667 -23 -104 -41c-18 -12 -35 -18 -51 -18c-2.66699 35.333 -4 61 -4 77c0 138 68.333 207 205 207l310 -3h5l297 -3c66.667 0 131.334 5.66699 194.001 17l138 28
c1.33301 -4.66699 2.33301 -9.33398 3 -14.001c0.666992 -5.33301 1 -11 1 -17c-4 -148.667 -73 -223 -207 -223l-207 8c-35.333 0 -56.333 -12.333 -63 -37l-160 -683c-21.333 -94 -39.666 -178 -54.999 -252c-12.667 -58 -21.667 -105.333 -27 -142
c-8 -50 -12 -92.333 -12 -127c0 -30 9 -68 27 -114c-30.667 -19.333 -69.667 -34.333 -117 -45c-38 -8.66699 -73 -13 -105 -13c-86 0 -129 33.667 -129 101c0 55.333 11 124.666 33 207.999l43 179l79 331l79 338c25.333 107.333 40.333 173.666 45 198.999z" />
    <glyph glyph-name="U" unicode="U" horiz-adv-x="1439" 
d="M1025 32c-13.333 29.333 -20.001 73.999 -20.001 133.999v72c0 4 -0.666992 5.33301 -2 4c-39.333 -45.333 -75.333 -83.666 -108 -114.999c-39.333 -36.667 -77.666 -67 -114.999 -91c-85.333 -55.333 -176 -83 -272 -83c-116 0 -202.333 38.667 -259 116
c-47.333 64 -71 149.667 -71 257c0 33.333 2 65.333 6 96c6.66699 50 21 124.667 43 224l96 425c11.333 49.333 20.666 92.333 27.999 129c18 88.667 28 151.667 30 189c0 33.333 -6 61.333 -18 84l-24 38c-2.66699 4.66699 -5 9 -7 13c27.333 23.333 70.333 41.333 129 54
c45.333 10 88.333 15 129 15c70.667 0 108 -30.667 112 -92c0 -38 -6.66699 -93.333 -20 -166c-11.333 -58.667 -28.333 -134.667 -51 -228l-30 -124l-60 -245l-25 -111c-13.333 -62 -23 -111.333 -29 -148c-8 -49.333 -12 -91 -12 -125c0 -125.333 49 -188 147 -188
c94.667 0 191.667 58.667 291 176c26.667 36 51.334 84 74.001 144c18 46.667 37 107.334 57 182.001c37.333 134.667 73 274.667 107 420c37.333 163.333 62 286.666 74 369.999c0.666992 7.33301 0.333984 14.333 -0.999023 21l-4 20
c-5.33301 37.333 11.667 63.666 51 78.999c28 10 69.333 15 124 15c66 0 110 -5 132 -15c20.667 -10 31 -30 31 -60c-0.666992 -17.333 -5.66699 -40.666 -15 -69.999c-1.33301 -4.66699 -3.33301 -11 -6 -19l-2 -5l-20 -60l-79 -277
c-28 -102.667 -51.667 -196.667 -71 -282c-22.667 -98 -39.667 -185.333 -51 -262c-13.333 -85.333 -20 -157.666 -20 -216.999c0 -35.333 2 -66.333 6 -93c18 -105.333 45.333 -174 82 -206c-76.667 -54 -161.334 -76.667 -254.001 -68
c-50 5.33301 -84.333 29.666 -103 72.999z" />
    <glyph glyph-name="V" unicode="V" horiz-adv-x="1316" 
d="M425 479l-56.998 455c-7.33301 63.333 -17 127 -29 191c-10.667 55.333 -22.667 109.666 -36 162.999c-30 103.333 -69.667 172.333 -119 207c75.333 64.667 162 98 260 100c77.333 0 131.333 -66.667 162 -200c12 -58.667 22.333 -121 31 -187
c14 -98 28 -217.333 42 -358c13.333 -134.667 25.666 -278 36.999 -430l185 298l147 248c87.333 153.333 150.333 280 189 380c16 38.667 27 72.334 33 101.001c8.66699 38.667 9 73.667 1 105c61.333 23.333 123.666 35 186.999 35c70 0 106 -23.667 108 -71
c0 -12.667 -3 -28.667 -9 -48l-21 -59c-13.333 -36 -36.333 -83 -69 -141c-26 -46 -60.333 -102.667 -103 -170l-220 -350l-182 -297c-112 -190 -188.333 -335.667 -229 -437c-4 -6 -13.333 -13 -28 -21c-14 -7.33301 -31 -14.333 -51 -21c-44 -15.333 -82 -23 -114 -23
c-34.667 0 -55.667 25.333 -63 76z" />
    <glyph glyph-name="W" unicode="W" horiz-adv-x="1984" 
d="M1118 1384c-23.333 -66 -71.001 -172.332 -143.001 -318.999c-76 -155.333 -187.333 -371.666 -334 -648.999c0.666992 13.333 1.33398 30 2.00098 50v58c0 73.333 -1.33301 166.333 -4 279c-2.66699 108.667 -6 217 -10 325c-7.33301 182 -24.666 306.667 -51.999 374
c-24.667 62 -66.334 93 -125.001 93c-67.333 0 -144.333 -32.667 -231 -98l26 -27c13.333 -17.333 25.333 -37.333 36 -60c14.667 -30.667 26.334 -66.334 35.001 -107.001c11.333 -49.333 18.666 -106 21.999 -170l25 -561l20 -562c2 -40 25 -59 69 -57
c48 6 93.333 17.333 136 34c40.667 16 63 30 67 42c18.667 50 38 92.333 58 127l299 561l62 117l45 81c12 20.667 18.667 31 20 31l54 -789l13 -147c4 -40 26.667 -59 68 -57c47.333 6 92.666 17.333 135.999 34c40 16 63 30 69 42c10 29.333 28 70.666 54 123.999
c22 44.667 51.333 101.334 88 170.001l52 95l292 537l41 77c30.667 60 56.334 113 77.001 159c54.667 120 82.667 211 84 273c0 87.333 -61 131 -183 131c-43.333 0 -81.333 -5.33301 -114 -16c12 -36.667 18 -74.334 18 -113.001c0 -30.667 -2.66699 -58 -8 -82
c-25.333 -104.667 -76.666 -243 -153.999 -415c-34.667 -77.333 -78.334 -170 -131.001 -278l-168 -339l-11 232l-19 640l4 220c0 60.667 -20.667 88 -62 82c-44 -7.33301 -109.333 -30 -196 -68z" />
    <glyph glyph-name="X" unicode="X" horiz-adv-x="1394" 
d="M798 1176c-18 72 -33 143.666 -45 214.999c-24 142 -30.667 228.667 -20 260c-198 -43.333 -297 -132.333 -297 -267c0 -164 52 -377.667 156 -641c-94.667 -96 -191.667 -214 -291 -354c-106.667 -149.333 -160 -251.666 -160 -306.999c0 -57.333 47 -86 141 -86
c42 0 88.667 9 140 27c-19.333 48.667 -3 129.334 49 242.001c54 117.333 126.333 222.333 217 315c33.333 -94 63.333 -173 90 -237c32 -77.333 63 -142 93 -194c68.667 -120 136.667 -180 204 -180c42 0 88 13.667 138 41c56.667 31.333 107.667 75 153 131
c-101.333 33.333 -180.666 103.666 -237.999 210.999c-37.333 71.333 -71 140 -101 206c-37.333 82.667 -66.333 155.334 -87 218.001l138 137l130 133c93.333 96 160.333 173.333 201 232c56 79.333 84 149 84 209c0 70.667 -46.667 106 -140 106
c-54.667 0 -108.334 -11.333 -161.001 -34c12 -24.667 18 -55.667 18 -93c0 -42.667 -34 -113 -102 -211c-30 -42.667 -66.667 -91.334 -110 -146.001l-132 -161c-25.333 70 -48 146 -68 228z" />
    <glyph glyph-name="Y" unicode="Y" horiz-adv-x="1189" 
d="M1161 1034l80.9951 103.999c60 79.333 105.667 148.666 137 207.999c38.667 72.667 58 133.334 58 182.001c0 88.667 -73 133 -219 133c-26 0 -45.667 -1.33301 -59 -4c4 -22.667 6 -46 6 -70c0 -48.667 -8.33301 -90.334 -25 -125.001
c-26 -56 -57.333 -114.667 -94 -176l-248 -401l-37 174c-14 61.333 -27 115.666 -39 162.999c-28.667 112.667 -56.667 200.334 -84 263.001c-34 82 -91.333 123 -172 123c-88.667 0 -178 -43 -268 -129l51 -25c55.333 -24.667 112.333 -111.667 171 -261
c60.667 -152.667 107.334 -332.667 140.001 -540c-5.33301 -46 -19.666 -98.667 -42.999 -158c-9.33301 -23.333 -20.666 -49.666 -33.999 -78.999l-72 -153c-12.667 -27.333 -23 -51.333 -31 -72c-18.667 -51.333 -28 -94.666 -28 -129.999c0 -62.667 43 -94 129 -94
c74.667 0 146.334 17 215.001 51c-15.333 40.667 -23 77.667 -23 111c0 69.333 28 170.333 84 303c56.667 133.333 120.334 247.333 191.001 342z" />
    <glyph glyph-name="Z" unicode="Z" horiz-adv-x="1310" 
d="M405 190c145.333 -4 292.332 -5.99902 440.999 -5.99902h147c57.333 0 109.333 7 156 21c54.667 16 103 42 145 78c0.666992 -12 1.33398 -25.333 2.00098 -40v-36c0 -144.667 -67.667 -221.334 -203 -230.001l-64 -2c-23.333 -1.33301 -44.333 -2 -63 -2
c-36.667 0 -76 1 -118 3l-351 22c-11.333 0.666992 -24.333 1.33398 -39 2.00098h-38c-103.333 0 -205.333 -11 -306 -33c-33.333 15.333 -56.333 47.333 -69 96c-10 36 -3.33301 69.667 20 101l812 961c110.667 131.333 180 215.666 208 252.999l-325 -4l-207 -8
c-134 0 -203 75 -207 225c0 5.33301 0.333008 11 1 17l3 16c16 -2.66699 37.667 -7.33398 65 -14.001l9 -2c4 -0.666992 6.66699 -1.33398 8 -2.00098l55 -12c63.333 -12.667 128.333 -19 195 -19c274 0 541.667 17 803 51c9.33301 -33.333 14 -62.666 14 -87.999
c0 -38 -17.667 -82 -53 -132c-14.667 -21.333 -34.667 -46.666 -60 -75.999l-128 -145l-104 -120z" />
    <glyph glyph-name="bracketleft" unicode="[" horiz-adv-x="755" 
d="M606 1536c54 26 116.003 39 186.003 39c13.333 0 28.333 0.666992 45 2l88 7c16 0.666992 30.333 1 43 1c8 0 14.667 -1 20 -3c6.66699 -2.66699 9.66699 -6.33398 9 -11.001c-12.667 -55.333 -29.334 -100.333 -50.001 -135c-2.66699 -4.66699 -13 -8.66699 -31 -12
l-128 -19c-24.667 -4 -43.334 -8.66699 -56.001 -14c-84 -343.333 -170 -737.333 -258 -1182l-6 -35c-2 -13.333 -3.66699 -24 -5 -32c-3.33301 -22.667 -5 -40.667 -5 -54c0 -66.667 39 -100 117 -100h57c25.333 1.33301 50.666 3.33301 75.999 6
c-8.66699 -74.667 -33 -123.667 -73 -147c-27.333 -15.333 -78 -23 -152 -23c-99.333 0 -167 8.66699 -203 26c-48.667 23.333 -74 70 -76 140c0 59.333 9 135 27 227c16.667 92 36 191.333 58 298c20 99.333 42.333 203 67 311c44 198.667 89.667 391.667 137 579
c12 56.667 49.667 100.334 113 131.001z" />
    <glyph glyph-name="backslash" unicode="\" horiz-adv-x="901" 
d="M151 1587c44.667 -54.667 100.999 -164.334 168.999 -329.001c68 -162.667 136 -352 204 -568c124 -416.667 182.667 -698.667 176 -846l133 -4c84.667 0 123 28.667 115 86c-1.33301 34.667 -21.666 121.667 -60.999 261l-152 507
c-120 394.667 -212.333 654.334 -277 779.001c-32 46 -59.667 76.667 -83 92c-30.667 20 -72.667 30 -126 30c-11.333 0 -26.333 -0.666992 -45 -2z" />
    <glyph glyph-name="bracketright" unicode="]" horiz-adv-x="755" 
d="M795 1405c8.66699 56.667 -11.998 100.334 -61.998 131.001c-43.333 26 -99.666 39 -168.999 39c-14 0 -29 0.666992 -45 2l-85 7c-15.333 0.666992 -29.333 1 -42 1c-8.66699 0 -16 -1 -22 -3c-8 -2.66699 -12.333 -6.33398 -13 -11.001l-8 -75
c-2 -24.667 -2 -44.667 0 -60c0 -4.66699 8.33301 -8.66699 25 -12l57 -9c30 -4 52 -7.33301 66 -10c24 -4 41.333 -8.66699 52 -14l-106 -560l-65 -320l-66 -302l-10 -35c-4 -13.333 -7.33301 -24 -10 -32c-6 -22.667 -10.333 -40.667 -13 -54
c-32.667 -66.667 -85.334 -100 -158.001 -100h-57c-24.667 1.33301 -49.334 3.33301 -74.001 6c-10.667 -31.333 -16 -60 -16 -86c0 -36.667 15.667 -60.667 47 -72c13.333 -5.33301 31 -8.66602 53 -9.99902c16 -1.33301 38.667 -2 68 -2c98.667 0 170 8.66699 214 26
c58.667 23.333 104 70 136 140l31 91c15.333 47.333 27.666 92.666 36.999 135.999l63 298l62 311l58 303z" />
    <glyph glyph-name="asciicircum" unicode="^" horiz-adv-x="1193" 
d="M1118 635c-78 0 -151.335 44.333 -220.002 133c-60 77.333 -115 186 -165 326c-188 -264 -362.667 -417 -524 -459h-5c-29.333 0 -49.666 9.66699 -60.999 29l63 71c220 220 386 442 498 666c12.667 25.333 29.667 50 51 74c53.333 -10 92 -34 116 -72
c9.33301 -15.333 18.333 -35 27 -59l10 -34l11 -36c76 -233.333 162.667 -437.333 260 -612c-17.333 -18 -37.666 -27 -60.999 -27z" />
    <glyph glyph-name="underscore" unicode="_" horiz-adv-x="974" 
d="M872 -295l-37.001 6c-81.333 10 -163 15 -245 15l-256 -2c-162 0 -255 21 -279 63c14.667 74.667 29 119 43 133l18 -4c56.667 -5.33301 141.334 -8 254.001 -8l312 2c128 0 202.333 -20.667 223 -62c-9.33301 -57.333 -20.333 -105 -33 -143z" />
    <glyph glyph-name="grave" unicode="`" horiz-adv-x="899" 
d="M947 1261c-20 -6.66699 -38.666 -8.66602 -55.999 -5.99902c-123.333 24.667 -230.666 61.667 -321.999 111c-90 48.667 -135 93.667 -135 135c0 29.333 25 56.666 75 81.999c53.333 28 109 37.667 167 29l38 -58c15.333 -22.667 28.666 -41.667 39.999 -57
c31.333 -42 64.666 -77.333 99.999 -106l112 -83c8.66699 -8 13 -14 13 -18c0 -11.333 -10.667 -21 -32 -29z" />
    <glyph glyph-name="a" unicode="a" horiz-adv-x="1183" 
d="M1281 375c7.33301 0 11 -6.33008 11 -18.9971c0 -74.667 -42.333 -155.334 -127 -242.001s-163.334 -130 -236.001 -130c-121.333 0 -182 72.333 -182 217c0 62.667 3.33301 118 10 166c-154 -250.667 -300 -379 -438 -385h-23c-77.333 0 -134.666 27 -171.999 81
c-32.667 48 -49 117 -49 207c4 203.333 71.667 393.666 203 570.999c62 84.667 130.333 151 205 199c79.333 50.667 159 76 239 76c84 0 151 -19 201 -57c33.333 35.333 76.333 53 129 53c58 0 118.667 -16.333 182 -49c-18 -26.667 -39 -75.667 -63 -147
c-22 -64.667 -44 -139.334 -66 -224.001c-48 -189.333 -72 -324.333 -72 -405c0 -10 1 -19.333 3 -28l20 -58c23.333 4 56.666 27.667 99.999 71c62.667 68.667 104.334 103 125.001 103zM768 624.003c41.333 80 74 153.333 98 220c-21.333 79.333 -76 119 -164 119
c-78.667 0 -154 -76.667 -226 -230c-68 -146.667 -102 -290 -102 -430c4 -70.667 26.667 -106 68 -106c38 0 99.333 62.667 184 188c50 72 97.333 151.667 142 239z" />
    <glyph glyph-name="b" unicode="b" horiz-adv-x="1150" 
d="M327 1118c13.333 66 22.332 114.333 26.999 145c6.66699 42 10 77.667 10 107c0 34.667 -7 66.667 -21 96c73.333 42.667 145 64 215 64c71.333 0 107 -32 107 -96c0 -93.333 -53.333 -333 -160 -719c167.333 271.333 330.333 407 489 407c78.667 0 135 -31 169 -93
c26.667 -48 40 -114.667 40 -200c0 -196.667 -62.333 -383.667 -187 -561c-60.667 -87.333 -128.667 -155.333 -204 -204c-82 -53.333 -166 -80 -252 -80c-82 0 -155.667 20.333 -221 61c-33.333 -35.333 -79.666 -53 -138.999 -53c-51.333 0 -105.333 15.667 -162 47
c34.667 56 66.667 136 96 240l94 395zM907.999 782c0 82 -22.333 123 -67 123c-24 0 -57.333 -23.333 -100 -70c-38 -42 -80.667 -99.333 -128 -172c-97.333 -149.333 -168.333 -283.666 -213 -402.999c3.33301 -38 23.666 -68.333 60.999 -91
c32.667 -20 70.667 -30 114 -30c71.333 0 140.333 59.333 207 178c64.667 115.333 105.334 246.666 122.001 393.999c2.66699 27.333 4 51 4 71z" />
    <glyph glyph-name="c" unicode="c" horiz-adv-x="933" 
d="M964 262c0 -80 -62.001 -149.002 -186.001 -207.002c-107.333 -50 -213 -75 -317 -75c-246 0 -369 115.333 -369 346c0 206 69 389 207 549c140.667 162 304.334 243 491.001 243c172 0 258 -43 258 -129c0 -75.333 -64 -133.333 -192 -174
c-24 106.667 -72.667 160 -146 160c-87.333 0 -159 -52.667 -215 -158c-57.333 -109.333 -86 -254.666 -86 -435.999c0 -67.333 12.333 -121.666 37 -162.999c27.333 -45.333 67 -68 119 -68c152 0 279.667 60.667 383 182c10.667 -20 16 -43.333 16 -70z" />
    <glyph glyph-name="d" unicode="d" horiz-adv-x="1185" 
d="M1287 383c8.66699 0 12.999 -6.00098 12.999 -18.001c0 -76 -42.333 -157 -127 -243c-84 -85.333 -162.667 -128 -236 -128c-122.667 0 -184 74.333 -184 223c0 50.667 4 103.334 12 158.001c-80.667 -132.667 -164 -233 -250 -301c-80 -61.333 -157 -92 -231 -92
c-138 0 -207 90.667 -207 272c0 200 64.333 390 193 570c62 86 130.667 153.667 206 203c81.333 52.667 164 79 248 79c66.667 0 132.334 -17.667 197.001 -53c31.333 123.333 47 228.333 47 315c0 38 -7 68 -21 90c72 41.333 141.667 62 209 62
c76.667 0 115 -38.333 115 -115c0 -28.667 -2.66699 -59.667 -8 -93c-4 -24 -10.333 -54.333 -19 -91l-38 -159c-10 -42.667 -22.333 -91.334 -37 -146.001l-64 -257c-21.333 -85.333 -36.666 -154.666 -45.999 -207.999c-11.333 -63.333 -17 -115.333 -17 -156
c0 -18.667 2.33301 -36 7 -52c2 -6 4.33301 -12.333 7 -19l8 -15c21.333 4 54.666 28 99.999 72c62.667 68 103.667 102 123 102zM869.999 812.999c-16.667 90 -71.334 135 -164.001 135c-80.667 0 -156.667 -71 -228 -213c-69.333 -138.667 -104 -282.667 -104 -432
c4 -70.667 25.667 -106 65 -106c56.667 0 139.334 90 248.001 270c66.667 108 127.667 223.333 183 346z" />
    <glyph glyph-name="e" unicode="e" horiz-adv-x="983" 
d="M982 322c12.667 -22.667 19 -46.668 19 -72.001c0 -33.333 -10.333 -63.333 -31 -90c-37.333 -46 -88.333 -83 -153 -111c-101.333 -46 -209.333 -69 -324 -69c-248 0 -377 105 -387 315c-10.667 220.667 57.666 411 204.999 571c138.667 168 303.667 252 495 252
c164 0 246 -64.667 246 -194c0 -144 -62.667 -261 -188 -351c-134 -88.667 -283.667 -128.667 -449 -120c-9.33301 -45.333 -14 -85 -14 -119c0 -45.333 7.33301 -78 22 -98c52.667 -74 118.334 -105 197.001 -93c129.333 12.667 250 72.334 362 179.001zM442 579.999
c102.667 0 181.667 22.333 237 67c68.667 58 103 129 103 213c0 80.667 -26 121 -78 121c-112 0 -199.333 -133.667 -262 -401z" />
    <glyph glyph-name="f" unicode="f" horiz-adv-x="813" 
d="M-24 -270c106.667 88 172.669 198.998 198.002 332.998l150 764h-43c-26.667 0 -51.334 3.66699 -74.001 11c-26 8.66699 -39 19.334 -39 32.001l2 9c16.667 48 35.334 78.333 56.001 91c22.667 14 67.667 21 135 21l24 103c36 146 114.667 260.667 236 344
c114.667 78.667 249 118 403 118c130 0 195 -37.333 195 -112c0 -50 -52 -100 -156 -150c-36.667 78 -88.667 117 -156 117c-59.333 0 -109 -29.333 -149 -88c-40.667 -59.333 -77 -170 -109 -332h76c27.333 0 68 2.33301 122 7c54 5.33301 92.667 8 116 8
c0.666992 -4 1 -8.33301 1 -13l1 -12c0 -56.667 -26.333 -97.667 -79 -123c-40 -19.333 -94.333 -29 -163 -29l-111 2l-73 -348c-14.667 -67.333 -29.334 -128.333 -44.001 -183c-18 -67.333 -37.667 -131 -59 -191c-73.333 -213.333 -215.333 -359.666 -426 -438.999
l-20 -4c-24.667 0 -37 10.333 -37 31c0.666992 6 3 11.333 7 16c1.33301 1.33301 3.66602 4 6.99902 8z" />
    <glyph glyph-name="g" unicode="g" horiz-adv-x="1175" 
d="M1139 -244c11.333 -10 16.999 -16.665 16.999 -19.998c-3.33301 0 -14.333 5 -33 15l-27 15l-52 25l-45 20l-56 23c-20.667 8 -37.667 14.333 -51 19c-108.667 -179.333 -280.667 -269 -516 -269c-116 0 -220.667 21 -314 63c-94 42 -141 89.333 -141 142
s26.333 96.667 79 132c32 22 72.667 39 122 51c56.667 13.333 123.334 20 200.001 20c121.333 0 235.333 -11 342 -33c36.667 100 77 257 121 471c-84 -118.667 -169 -207.334 -255 -266.001c-78 -52 -154 -78 -228 -78c-70 0 -122.333 27 -157 81
c-30.667 48 -46 115.333 -46 202c0 190 60.667 360.667 182 512c126 156.667 275.667 235 449 235c80 0 152.333 -19 217 -57c40.667 34 87.667 51 141 51c51.333 0 106 -15 164 -45c-46 -69.333 -93.667 -211.333 -143 -426c-40.667 -208 -77.667 -378 -111 -510
c-23.333 -92.667 -52 -173.334 -86 -242.001c62 -24 117.333 -52.667 166 -86zM647.999 -83.998c-94 20.667 -201.998 31 -323.998 31h-63l-64 -5c-46 -6.66699 -69 -22 -69 -46c0 -6.66699 2 -13 6 -19c67.333 -94 156.666 -141 267.999 -141c75.333 0 137 26 185 78
c19.333 21.333 39.666 55.333 60.999 102zM682.001 478.002c80.667 108.667 150 233.999 208 375.999c-4 26.667 -25 51.334 -63 74.001c-37.333 23.333 -75 35 -113 35c-85.333 0 -159.666 -60 -222.999 -180c-62 -116 -93 -246 -93 -390c0 -60 21.333 -90 64 -90
c59.333 0 132.666 58.333 219.999 175z" />
    <glyph glyph-name="h" unicode="h" horiz-adv-x="1196" 
d="M739 963c100.667 92.667 195.336 139.001 284.003 139.001c96.667 0 145 -55.333 145 -166c0 -32 -5.66699 -75.667 -17 -131l-54 -250c-6.66699 -32 -12.334 -61.667 -17.001 -89c-10.667 -65.333 -16 -123 -16 -173c0 -18 2.66699 -35.667 8 -53l17 -35
c11.333 3.33301 25.333 11 42 23c21.333 14 40.666 30 57.999 48c66 68.667 107 103 123 103c8 0 12 -5.66699 12 -17c0 -74 -42.333 -154.333 -127 -241c-84.667 -87.333 -163.667 -131 -237 -131c-122 0 -183 71.667 -183 215c0 16.667 0.666992 34.334 2 53.001
c1.33301 23.333 3.33301 47 6 71c6.66699 61.333 17.667 120.333 33 177c17.333 60 30.666 116.333 39.999 169c8 45.333 12.333 84.666 13 117.999c0 15.333 -2.33301 29 -7 41c-6 14.667 -14.333 22 -25 22c-45.333 0 -111.666 -69.333 -198.999 -208
c-88 -140 -178.667 -322 -272 -546c-30.667 -73.333 -87.334 -110 -170.001 -110c-35.333 0 -88 5.33301 -158 16c74.667 195.333 138.667 409.333 192 642c48 211.333 87.667 439.666 119 684.999l2 21c0 28 -8 59.333 -24 94c78 44 151.667 66 221 66
c68 0 102 -32.333 102 -97c0 -8 -0.666992 -14 -2 -18c-2.66699 -36 -17.667 -122.667 -45 -260c-14.667 -76 -31 -153.333 -49 -232c-20 -92 -41 -181.333 -63 -268c72 130.667 154 238 246 322z" />
    <glyph glyph-name="i" unicode="i" horiz-adv-x="606" 
d="M739 1552c0 -9.33301 -0.666016 -17.332 -1.99902 -23.999c-8.66699 -33.333 -36 -85.333 -82 -156c-44.667 -69.333 -75.334 -110.666 -92.001 -123.999c-16.667 -12.667 -54.667 -25.334 -114 -38.001c-72.667 -15.333 -109 4 -109 58c0 12.667 1.66699 30.667 5 54
l12 66c11.333 62 16.666 108 15.999 138c0 4 -1.33301 8.66699 -4 14l-3 7c-1.33301 3.33301 -2.66602 5.66602 -3.99902 6.99902c88 34.667 181 52 279 52c63.333 0 96 -18 98 -54zM442.001 203.001c-6 11.333 -11.001 22.998 -15.001 34.998
c-4.66699 16.667 -7 34.334 -7 53.001c0 75.333 10.333 158 31 248l79 301c7.33301 24.667 15 58.667 23 102c8 44.667 -0.333008 80.334 -25 107.001c-20 21.333 -54 32 -102 32c-59.333 0 -127.666 -14.333 -204.999 -43c20.667 -30.667 31 -64.667 31 -102
c0 -39.333 -3.33301 -76.333 -10 -111l-10 -55c-0.666992 -3.33301 -1.33398 -6.33301 -2.00098 -9l-14 -78c-13.333 -66.667 -27.333 -125.667 -42 -177c-18 -68 -30.333 -136.667 -37 -206c-5.33301 -52.667 -6.66602 -94 -3.99902 -124c8 -125.333 68.667 -188 182 -188
c54 0 115.333 26.667 184 80c69.333 54 118 114 146 180c22 51.333 33 88 33 110c0 42.667 -45 14.667 -135 -84c-46 -43.333 -79.667 -67 -101 -71z" />
    <glyph glyph-name="j" unicode="j" horiz-adv-x="593" 
d="M539 604c-2 -6.66699 -4.33105 -15 -6.99805 -25l-97 -376c-15.333 -69.333 -36.333 -135.666 -63 -198.999c-22 -52 -46.333 -99 -73 -141l108 -34c20 -6.66699 36 -12.334 48 -17.001c14 -4.66699 21 -7.66699 21 -9c0 -2.66699 -5.66699 -4 -17 -4h-21
c-10 0 -20.333 0.333008 -31 1c-31.333 3.33301 -75.333 12 -132 26c-114.667 -158.667 -250.667 -238 -408 -238c-121.333 0 -182 42.333 -182 127c0 139.333 93.667 209 281 209c14.667 0 30.667 -0.666992 48 -2l46 -6c31.333 66.667 64.666 161.667 99.999 285
c8 28.667 20.333 76.667 37 144l48 202c37.333 163.333 60.333 267 69 311c5.33301 27.333 8 53.333 8 78c0 37.333 -10.333 71.333 -31 102c77.333 28.667 145.666 43 204.999 43c87.333 0 131 -35.333 131 -106c0 -16.667 -3 -38 -9 -64zM37.002 -125l-80 4
c-49.333 0 -92 -7.66699 -128 -23c-32 -14 -48 -28.667 -48 -44c0 -14.667 12 -26 36 -34c20.667 -7.33301 45 -11 73 -11c14 0 28.333 2 43 6c32 7.33301 66.667 41.333 104 102zM809.002 1552c0 -35.333 -27.999 -95.332 -83.999 -179.999
c-44.667 -69.333 -75.334 -110.666 -92.001 -123.999c-16.667 -12.667 -54.667 -25.334 -114 -38.001l-37 -4c-48 0 -72 20.667 -72 62c0 12.667 1.66699 30 5 52l5 31l6 33c11.333 61.333 17 106.666 17 135.999c0 6 -1 11.667 -3 17l-7 17c87.333 34.667 180 52 278 52
c65.333 0 98 -18 98 -54z" />
    <glyph glyph-name="k" unicode="k" horiz-adv-x="1085" 
d="M555 1516c66.667 0 99.998 -34.3311 99.998 -102.998l-44 -246c-16.667 -90.667 -34 -178.667 -52 -264c-23.333 -108.667 -47.333 -211 -72 -307c246.667 341.333 431 512 553 512c68 0 107 -67 117 -201c-123.333 0 -262.666 -88.667 -417.999 -266l-2 -23
c0 -16.667 3.33301 -36.334 10 -59.001c15.333 -45.333 29.333 -83.333 42 -114c17.333 -41.333 35.333 -76.333 54 -105c47.333 -71.333 103.666 -107 168.999 -107c50.667 0 109.334 21.333 176.001 64l8 4c2.66699 0 4 -2.66699 4 -8c0 -4 -1.33301 -8.66699 -4 -14
c-28 -72.667 -75.667 -137.334 -143 -194.001c-69.333 -58 -135 -87 -197 -87c-61.333 0 -117.666 33.667 -168.999 101c-53.333 70.667 -107.666 186.334 -162.999 347.001c-22 -40.667 -45 -89 -69 -145l-82 -199c-28.667 -73.333 -85.334 -110 -170.001 -110
c-35.333 0 -88 5.33301 -158 16c74.667 195.333 138.667 409.333 192 642c48 211.333 87.667 439.666 119 684.999l2 21c0 28 -8 59.333 -24 94c69.333 39.333 139 61.333 209 66h12z" />
    <glyph glyph-name="l" unicode="l" horiz-adv-x="675" 
d="M581 254l118.998 87.998c34.667 24.667 56.334 37 65.001 37c16 0 -5.33301 -47 -64 -141c-44 -70 -109.333 -130.333 -196 -181c-79.333 -46 -147 -69 -203 -69c-121.333 0 -182 62 -182 186c-1.33301 28.667 4.66699 86 18 172
c2.66699 10.667 5.33398 28.334 8.00098 53.001l-80 -56c-17.333 -11.333 -27.333 -17 -30 -17c-4 0 4 9.33301 24 28l95 84c36.667 157.333 77.667 320 123 488c42.667 158.667 89 320.334 139 485.001c11.333 34.667 34.333 64 69 88c29.333 20.667 63 29.667 101 27
c65.333 -4.66699 123.333 -26 174 -64c8.66699 -8.66699 14 -18.667 16 -30l5 -43l1 -65l-4 -38c-4.66699 -39.333 -16 -85.666 -34 -138.999c-13.333 -41.333 -32.666 -91.333 -57.999 -150c-16 -37.333 -35 -75.666 -57 -114.999c-18 -32.667 -38 -66 -60 -100
c-17.333 -27.333 -35.333 -54.333 -54 -81l-40 -54l-30 -137c-6.66699 -30.667 -12.334 -58.334 -17.001 -83.001l-15 -81c-4 -26 -6 -45 -6 -57c0 -32.667 7 -61.334 21 -86.001c56 2 106.667 19 152 51zM545.998 915.998l-41 -154.001c25.333 37.333 49.333 76 72 116
c27.333 48.667 51 96.667 71 144c24 54 43 101.667 57 143c16.667 50 27 93 31 129c2.66699 37.333 3.33398 62.666 2.00098 75.999c0 10.667 -4.66699 17.334 -14 20.001c-10 2.66699 -17.667 -0.666016 -23 -9.99902c-6.66699 -12 -12 -23.333 -16 -34
c-34.667 -92.667 -65.334 -185 -92.001 -277c-15.333 -46.667 -31 -97.667 -47 -153z" />
    <glyph glyph-name="m" unicode="m" horiz-adv-x="1792" 
d="M1374 305l30.999 138.999c52 232.667 78 360.334 78 383.001c0 23.333 -10.333 35 -31 35c-22.667 0 -57.334 -28 -104.001 -84c-44 -53.333 -91.333 -122 -142 -206c-51.333 -86 -95.666 -171.333 -132.999 -256c-41.333 -92.667 -68 -170.667 -80 -234
c0 -15.333 2.66699 -31 8 -47c-35.333 -28.667 -83 -43 -143 -43c-56.667 0 -104.334 20.333 -143.001 61l121 509c34 145.333 51 233.666 51 264.999c0 24.667 -11 37 -33 37c-24.667 -0.666992 -63 -32.667 -115 -96c-20.667 -26 -45 -58.667 -73 -98l-76 -111
c-30.667 -44.667 -62 -102.667 -94 -174l-117 -281c-31.333 -74.667 -87.333 -112 -168 -112c-39.333 0 -92.666 6 -159.999 18c38.667 94.667 73.334 192 104.001 292c28 88.667 52 176.334 72 263.001c36.667 157.333 55 276.333 55 357c0 50.667 -8 95.667 -24 135
c88.667 38 160.334 57 215.001 57c73.333 0 110 -33.333 110 -100c0 -34.667 -6.33301 -83.334 -19 -146.001l-22 -92l-26 -102c191.333 297.333 362.666 446 513.999 446c94 0 141 -44.333 141 -133c0 -114 -15.667 -217 -47 -309c89.333 142 182.666 253.333 279.999 334
c88 72 164 108 228 108c92.667 0 139 -49 139 -147c0 -50.667 -6.66699 -111.667 -20 -183c-5.33301 -29.333 -12.333 -61.333 -21 -96l-68 -272c-13.333 -58.667 -20 -103 -20 -133c0 -34 7 -63.333 21 -88c12.667 2.66699 31.334 13.334 56.001 32.001
c17.333 14 40 34 68 60l34 31c12 12 21.667 21 29 27c19.333 17.333 31.333 26 36 26c8 0 12 -6.33301 12 -19c0 -74 -42.333 -154.333 -127 -241c-84.667 -87.333 -163.667 -131 -237 -131c-118.667 0 -178 61.333 -178 184c0.666992 34.667 6.66699 79.667 18 135z" />
    <glyph glyph-name="n" unicode="n" horiz-adv-x="1206" 
d="M745 781c-40 -46.667 -86.9951 -112.329 -140.995 -196.996c-46 -74.667 -84.333 -145.334 -115 -212.001c-14.667 -31.333 -31.334 -70 -50.001 -116l-29 -71l-33 -83c-28.667 -73.333 -85.334 -110 -170.001 -110c-36.667 0 -90 5.33301 -160 16
c43.333 109.333 83.666 224.666 120.999 345.999c37.333 125.333 65.666 239.333 84.999 342c16.667 90.667 25 166 25 226c0 56.667 -7.33301 101 -22 133c84 38 155.667 57 215 57c72 0 108 -32.667 108 -98c0 -36.667 -7.33301 -89.334 -22 -158.001l-51 -215
c68 127.333 149.333 236.666 244 327.999c103.333 99.333 196 149 278 149c104 0 156 -49.667 156 -149c0 -43.333 -6.66699 -101.333 -20 -174c-10.667 -62 -26.667 -136.667 -48 -224l-16 -56c-2 -7.33301 -4 -13.666 -6 -18.999c-8 -29.333 -14.333 -54.333 -19 -75
c-13.333 -54.667 -20 -98 -20 -130c0 -34 6.66699 -63.333 20 -88c11.333 3.33301 25.666 11 42.999 23c20.667 14 39.667 30 57 48c66.667 68.667 107.667 103 123 103c8.66699 0 13 -5.66699 13 -17c0 -75.333 -42.667 -156.333 -128 -243
c-84.667 -86 -163 -129 -235 -129c-122.667 0 -184 62.667 -184 188c0 30 4.33301 66 13 108l28 126c54.667 237.333 82 373.666 82 408.999c0 30 -10.333 45 -31 45c-26.667 0 -63.667 -27.667 -111 -83z" />
    <glyph glyph-name="o" unicode="o" horiz-adv-x="1095" 
d="M764 1118c112.667 0 203 -32.334 271 -97.001c68.667 -66 103 -155 103 -267c0 -197.333 -65 -374.666 -195 -531.999c-134 -161.333 -290 -242 -468 -242c-114 0 -204.667 33.667 -272 101c-68.667 68.667 -103 161.667 -103 279c0 196.667 66.333 373 199 529
c137.333 152.667 292.333 229 465 229zM702 966.999c-43.333 0 -84.667 -21.668 -124 -65.001c-35.333 -39.333 -67 -93 -95 -161c-54.667 -133.333 -82 -267.666 -82 -402.999c0 -139.333 45 -209 135 -209c42.667 0 83.667 21.667 123 65c34.667 38 65.667 91 93 159
c54 132 81 265.667 81 401c0 142 -43.667 213 -131 213z" />
    <glyph glyph-name="p" unicode="p" horiz-adv-x="1173" 
d="M1178 1008c25.333 -50 38 -109.665 38 -178.998c0 -204 -66.333 -392.667 -199 -566c-62.667 -82.667 -133 -147.334 -211 -194.001c-82.667 -50 -166.667 -75 -252 -75c-70 0 -134 13 -192 39c-13.333 -52 -23.666 -99.667 -30.999 -143
c-9.33301 -54 -14 -101.333 -14 -142c0 -22 6.66699 -56 20 -102c-68 -34.667 -132 -52 -192 -52c-82 0 -123 38.333 -123 115c0 30 4 63.667 12 101l207 880c28.667 123.333 43 220.333 43 291c0 34.667 -6.66699 66.667 -20 96c78.667 35.333 149 53 211 53
c77.333 0 116 -31.333 116 -94c0 -37.333 -23 -144.333 -69 -321c33.333 53.333 65.666 100.666 96.999 141.999c38 50 75.333 92.333 112 127c90 84 179.333 126 268 126c9.33301 0 26.333 -1.33301 51 -4c55.333 -7.33301 98 -40 128 -98zM915 768.002
c0 83.333 -21.334 125.002 -64.001 125.002c-25.333 0 -59.333 -23 -102 -69c-39.333 -40.667 -82.333 -96.334 -129 -167.001c-97.333 -147.333 -167.666 -282.333 -210.999 -405c14 -65.333 69.333 -98 166 -98c84 0 160.667 64 230 192
c66 121.333 102.667 253.666 110 396.999v25z" />
    <glyph glyph-name="q" unicode="q" horiz-adv-x="1157" 
d="M1083 1110c-59.333 0 -106.001 -17.668 -140.001 -53.001c-67.333 40.667 -141 61 -221 61c-86.667 0 -170.667 -27 -252 -81c-75.333 -49.333 -143.666 -117.666 -204.999 -204.999c-124 -178.667 -186 -366 -186 -562c0 -84 13.667 -150 41 -198
c34.667 -61.333 90.667 -92 168 -92c158.667 0 319 131.667 481 395l-119 -576l-8 -47c-2.66699 -17.333 -4 -33 -4 -47c0 -74 43.667 -111 131 -111c44 0 100.667 13.667 170 41c-6.66699 36.667 -10 71 -10 103c0 54.667 7.33301 121 22 199
c12.667 69.333 28 146.333 46 231l52 236l99 419c29.333 104 61.333 184 96 240c-56 31.333 -109.667 47 -161 47zM373.999 318.999c0 153.333 37.334 299.666 112.001 438.999c72.667 136.667 146.667 205 222 205c43.333 0 81.333 -10 114 -30
c37.333 -22.667 57.333 -53 60 -91c-44.667 -119.333 -115.667 -253.666 -213 -402.999c-46.667 -72.667 -89.334 -130 -128.001 -172c-42.667 -46.667 -76 -70 -100 -70c-44.667 0 -67 40.667 -67 122z" />
    <glyph glyph-name="r" unicode="r" horiz-adv-x="864" 
d="M935 1114c57.333 0 85.998 -32.668 85.998 -98.001c0 -88 -47 -185 -141 -291c-21.333 34 -47.333 51 -78 51c-73.333 0 -148.333 -67.333 -225 -202c-31.333 -55.333 -66 -127 -104 -215l-105 -257c-29.333 -74.667 -85.333 -112 -168 -112
c-39.333 0 -92.666 6 -159.999 18c37.333 96.667 71.333 194.334 102 293.001c28 88.667 52 175.334 72 260.001c36.667 157.333 55 277 55 359c0 58 -7.33301 103 -22 135c88.667 38 160.334 57 215.001 57c72 0 108 -34.667 108 -104
c0 -36.667 -6.33301 -86.334 -19 -149.001l-46 -189c80.667 141.333 154.334 249 221.001 323c73.333 80 139.666 120.333 198.999 121h10z" />
    <glyph glyph-name="s" unicode="s" horiz-adv-x="825" 
d="M555 893c0 -34.667 17.667 -74.332 53 -118.999l65 -79c23.333 -30 42.333 -57 57 -81c37.333 -62.667 56 -126.667 56 -192c0 -121.333 -47.667 -224.666 -143 -309.999c-94 -84 -204 -126 -330 -126c-76.667 0 -144.667 22 -204 66c-66 48.667 -99 110.667 -99 186
c0 31.333 9 59.666 27 84.999c14 19.333 32.333 35.333 55 48c26 -70.667 58 -127 96 -169c45.333 -48.667 96.666 -74.334 153.999 -77.001c104.667 0 157 54.667 157 164c0 40.667 -17.333 83.667 -52 129l-53 60l-58 63c-54.667 64.667 -82 139 -82 223
c0 122.667 54 218.667 162 288c94 60.667 207 91 339 91c67.333 0 106.333 -20.667 117 -62c0 -43.333 -26.667 -83.333 -80 -120c-39.333 39.333 -78.666 59 -117.999 59c-79.333 0 -119 -42.333 -119 -127z" />
    <glyph glyph-name="t" unicode="t" horiz-adv-x="733" 
d="M866 1001c0 -108.667 -57.335 -163 -172.002 -163l-117 2c-20.667 0 -36.334 -1.33301 -47.001 -4c-11.333 -56 -22.666 -107.667 -33.999 -155c-13.333 -58 -26.666 -112.333 -39.999 -163c-21.333 -82 -32 -155 -32 -219c4 -65.333 30.333 -98 79 -98
c11.333 0 27.333 8 48 24c16.667 12.667 35.667 30.667 57 54c65.333 69.333 107 104 125 104c6.66699 0 10 -6 10 -18c0 -74.667 -42 -155.334 -126 -242.001c-84 -87.333 -162.667 -131 -236 -131c-158.667 0 -238 88.667 -238 266c0 18 1.33301 39 4 63l8 64
c11.333 65.333 20 113.333 26 144c8.66699 40.667 22.667 101.334 42 182.001c26 100.667 47 191 63 271c19.333 99.333 29 176 29 230c0 42 -7.33301 79.667 -22 113c78.667 45.333 152.334 68 221.001 68c66.667 0 100 -33.667 100 -101l-25 -161l-24 -132h106
c64.667 0 129.667 5 195 15v-13z" />
    <glyph glyph-name="u" unicode="u" horiz-adv-x="1206" 
d="M1212 1001c0 -38 -8.66699 -89.002 -26 -153.002l-37 -131c-2 -6.66699 -4 -13 -6 -19c-16.667 -58.667 -29.667 -106.667 -39 -144c-26 -106 -39 -190.333 -39 -253c0 -18.667 2.33301 -36 7 -52c4 -12.667 9 -24.667 15 -36c13.333 2.66699 32 13.667 56 33
c17.333 13.333 40.333 33.333 69 60l33 31l29 26c19.333 17.333 31.333 26 36 26c8.66699 0 13 -6 13 -18c0 -74 -42.333 -154.667 -127 -242c-85.333 -87.333 -164.666 -131 -237.999 -131c-121.333 0 -182 73 -182 219c0 25.333 1.66699 51.666 5 78.999
c2.66699 18.667 7 45 13 79c-160.667 -263.333 -319.667 -395 -477 -395c-68.667 0 -117.334 22 -146.001 66c-21.333 33.333 -32 81.333 -32 144c0 36 7.66699 91.667 23 167l101 444c15.333 74.667 23 129.334 23 164.001c0 44 -6.66699 78.667 -20 104
c74 28.667 141 43 201 43c78.667 0 118 -37.667 118 -113c0 -17.333 -2.33301 -38.666 -7 -63.999l-78 -335c-2 -8 -4 -15.333 -6 -22l-20 -85c-28 -119.333 -42 -199.666 -42 -240.999c0 -35.333 13 -53 39 -53c70.667 0 169.667 114.667 297 344
c104.667 191.333 157 348.333 157 471c0 27.333 -4.66699 50.333 -14 69c55.333 19.333 114 29 176 29c83.333 -5.33301 125 -42.333 125 -111z" />
    <glyph glyph-name="v" unicode="v" horiz-adv-x="1036" 
d="M907 1022c0 53.333 -15.999 96.9971 -47.999 130.997c24.667 4 50 6 76 6c142 0 213 -49.667 213 -149c0 -96 -71.667 -254.333 -215 -475c-58.667 -91.333 -109.334 -166 -152.001 -224c-53.333 -71.333 -103.333 -129.666 -150 -174.999c-106 -104 -212 -156 -318 -156
h-22l-21 4l4 106c2 178 -19.333 398 -64 660c-28 164 -59.333 259.333 -94 286c82 50.667 158.333 76 229 76c89.333 0 138 -62 146 -186c9.33301 -69.333 16.333 -155.333 21 -258c3.33301 -85.333 5 -177.666 5 -276.999v-69c0 -26 -0.666992 -49.333 -2 -70
c56 72.667 108.333 147.334 157 224.001c41.333 64.667 81.333 132 120 202c76.667 135.333 115 250 115 344z" />
    <glyph glyph-name="w" unicode="w" horiz-adv-x="1505" 
d="M1194 166c70.667 80 141.336 181.668 212.003 305.001c146 255.333 219 435.666 219 540.999c0 103.333 -78.333 155 -235 155c-26 0 -51.333 -2 -76 -6c24 -22 42.667 -53 56 -93c10.667 -32 16 -63 16 -93c0 -92 -30.667 -208.333 -92 -349
c-58.667 -136 -130.334 -260.667 -215.001 -374c3.33301 75.333 5.66602 156.666 6.99902 243.999v295c0 30.667 -0.333008 57 -1 79c-2 52 -6.33301 93 -13 123c-14 66 -46 99 -96 99c-53.333 0 -111.333 -13.667 -174 -41c5.33301 -12.667 8 -30.667 8 -54
c0 -90.667 -20 -185.667 -60 -285c-48.667 -121.333 -127.667 -248 -237 -380v96c0 168 -4 305.333 -12 412c-6.66699 104 -17 172.667 -31 206c-18.667 44 -54 66 -106 66c-58 0 -127 -22.667 -207 -68c22 -33.333 39.333 -69.666 52 -108.999
c15.333 -45.333 25.333 -99 30 -161c6 -69.333 10.667 -153 14 -251c2.66699 -90 4 -177.667 4 -263c0 -60.667 -0.666992 -110.667 -2 -150c-2 -48 -5.33301 -88 -10 -120c57.333 0 105.333 5 144 15c50 12.667 90.667 35 122 67c115.333 115.333 225.333 285.333 330 510
l6 -189c1.33301 -69.333 2 -132.666 2 -189.999v-95c-0.666992 -38 -3.33398 -78 -8.00098 -120c67.333 2 111 6 131 12c66.667 17.333 140.667 72.666 222 165.999z" />
    <glyph glyph-name="x" unicode="x" horiz-adv-x="999" 
d="M226 -22l-22.001 -0.999023c-117.333 0 -176 37 -176 111c0 95.333 119.333 244.333 358 447l-96 270c-30 80 -58 131 -84 153c38.667 84.667 108.334 127 209.001 127c37.333 0 69 -16 95 -48c22 -28 38 -64.333 48 -109c16.667 -72 40 -154 70 -246
c178.667 184.667 268 324.667 268 420c0 3.33301 4 6 12 8l26 3l46 1c82 0 123 -27.333 123 -82c0 -50 -39 -121.333 -117 -214c-34.667 -41.333 -78 -88.333 -130 -141l-162 -157c82 -222 175.333 -360.667 280 -416c-74 -80 -153 -120 -237 -120
c-48.667 0 -97 34.333 -145 103c-41.333 59.333 -87.333 152.666 -138 279.999c-143.333 -127.333 -215 -242 -215 -344c0 -16 2.66699 -30.333 8 -43c-6 -1.33301 -13 -2 -21 -2z" />
    <glyph glyph-name="y" unicode="y" horiz-adv-x="1044" 
d="M-157 -311c0 36.667 12.333 81.002 37 133.002c24.667 -22 58.667 -33 102 -33c60.667 0 122.667 23 186 69c56.667 42 110 99 160 171c12.667 17.333 19 48.666 19 93.999c0 16 -1 33.667 -3 53l-5 49c-60 482 -127.667 752.333 -203 811c84 50.667 161 76 231 76
c80 0 128 -56 144 -168c31.333 -214.667 55 -436.334 71 -665.001c105.333 148 188.333 283.667 249 407c64.667 130.667 97 231.667 97 303c0 53.333 -15.667 97 -47 131c24.667 4 50 6 76 6c143.333 0 215 -46.333 215 -139c0 -64 -49 -179 -147 -345
c-97.333 -164.667 -227.666 -354.667 -390.999 -570c-142 -188 -266.333 -322 -373 -402c-90.667 -68 -177.334 -102 -260.001 -102c-92 0 -144 32.667 -156 98c-1.33301 4 -2 11.667 -2 23z" />
    <glyph glyph-name="z" unicode="z" horiz-adv-x="931" 
d="M954 -72c-98.667 0 -196.335 33.665 -293.002 100.998c-56.667 38.667 -111.334 69.667 -164.001 93c-64.667 28 -122 42.667 -172 44c18 24.667 40.333 52 67 82l80 85l21 21l21 22l44 45l88 95l346 397c33.333 39.333 50 84 50 134c0 17.333 -2.33301 34.333 -7 51
c-65.333 -13.333 -122.666 -22.666 -171.999 -27.999c-56.667 -6 -120 -9 -190 -9c-163.333 0 -278.666 20.333 -345.999 61c-62.667 -82 -94 -144.667 -94 -188c0 -70 64 -105 192 -105c26.667 0 56.334 0.666992 89.001 2c41.333 2 85.333 5 132 9l-156 -195l-148 -172
l-240 -266c-45.333 -49.333 -68 -107.333 -68 -174c0 -22.667 3.33301 -46.667 10 -72c43.333 6.66699 83 10 119 10c82.667 0 164.667 -17 246 -51c32.667 -14 71 -36.333 115 -67l114 -82c44.667 -31.333 83.334 -54.333 116.001 -69c42 -20 82 -30 120 -30
c67.333 0 124.666 23.333 171.999 70c48.667 47.333 73 105.333 73 174c0 24.667 -4 49.334 -12 74.001c-42.667 -41.333 -93.667 -62 -153 -62z" />
    <glyph glyph-name="braceleft" unicode="{" horiz-adv-x="718" 
d="M277 299c27.333 92.667 41 164.332 41 214.999c0 52 -21 93 -63 123c-54 33.333 -75.333 82.333 -64 147c29.333 -6.66699 56 -6 80 2c78.667 21.333 139.334 132.666 182.001 333.999c14.667 63.333 31.334 125 50.001 185c56 186.667 160.333 287 313 301
c140 10.667 212.333 -23.666 217 -102.999c-128.667 12 -213.334 -44 -254.001 -168c-32 -91.333 -58 -184.666 -78 -279.999l-22 -90c-27.333 -71.333 -65 -127 -113 -167c-40.667 -33.333 -93.334 -58.333 -158.001 -75c-12 -2.66699 -29 -8 -51 -16l62 -25
c100.667 -39.333 151 -109 151 -209c0 -35.333 -5.33301 -80.333 -16 -135l-23 -102c-13.333 -60.667 -20 -114 -20 -160c0 -96 40.333 -144 121 -144c20 0 43.667 3.66699 71 11c-10 -84.667 -79 -127 -207 -127c-36.667 0 -68.667 3.33301 -96 10
c-113.333 32 -170 107.667 -170 227c2 71.333 17.667 153.333 47 246z" />
    <glyph glyph-name="bar" unicode="|" horiz-adv-x="591" 
d="M673 1438l-313.001 -1303c-26 -113.333 -41.667 -188.333 -47 -225c-4 -20.667 -6 -42.667 -6 -66c-25.333 -6.66699 -47.333 -10 -66 -10c-24.667 0 -69.667 7.66699 -135 23l-5 17c-2 6.66699 -3 14 -3 22v10l301 1280c14.667 56.667 27.334 112.334 38.001 167.001
l12 63l7 48c9.33301 46 15 83 17 111l28 2c60.667 0 123.667 -19.667 189 -59z" />
    <glyph glyph-name="braceright" unicode="}" horiz-adv-x="718" 
d="M525 173c8 34.667 15.6699 76.666 23.0029 125.999c13.333 99.333 31 171 53 215c19.333 49.333 58.333 90.333 117 123c71.333 35.333 113.666 84.333 126.999 147c-31.333 -6.66699 -57.333 -6 -78 2c-43.333 12 -65 56 -65 132c0 50.667 10 118 30 202l33 185
c2.66699 16 4 39 4 69c0 143.333 -62.667 220.666 -188 231.999c-134.667 10.667 -222 -23.666 -262 -102.999c134.667 12 195.334 -44 182.001 -168c-8.66699 -86.667 -24.334 -180 -47.001 -280c-7.33301 -30 -12.333 -60 -15 -90c-5.33301 -71.333 7.66699 -127 39 -167
c26 -33.333 67.667 -58.333 125 -75c7.33301 -2 15.333 -4.33301 24 -7l21 -9l-75 -25c-120.667 -40 -200.667 -109.667 -240 -209c-14 -28 -29.667 -73 -47 -135l-8 -39c-0.666992 -5.33301 -1.33398 -9.66602 -2.00098 -12.999c-4 -20.667 -7 -37.334 -9 -50.001
c-16.667 -65.333 -34.334 -118.666 -53.001 -159.999c-42 -96 -102.667 -144 -182 -144c-20 0 -42.667 3.66699 -68 11c-26 -84.667 24.667 -127 152 -127c38 0 71.333 3.33301 100 10c60.667 15.333 112.667 40 156 74c49.333 39.333 87.666 90.333 114.999 153
c14.667 34.667 27.334 74.667 38.001 120z" />
    <glyph glyph-name="asciitilde" unicode="~" horiz-adv-x="1187" 
d="M170 545c-23.333 20.667 -34.999 46.668 -34.999 78.001c0 68 26.333 124.333 79 169c60 50.667 143 76 249 76c29.333 0 67.333 -8.66699 114 -26c33.333 -12 77 -31.333 131 -58l16 -7l105 -50c40 -18 68.667 -27 86 -27c97.333 0 147.333 49.333 150 148
c80.667 -5.33301 121 -36.666 121 -93.999c0 -84.667 -30.667 -152.334 -92 -203.001c-62.667 -52.667 -142 -72.334 -238 -59.001c-28.667 3.33301 -66.667 14.333 -114 33l-255 112c-39.333 16.667 -67.333 25 -84 25c-97.333 0 -148.333 -49.333 -153 -148
c-32.667 0 -59.334 10.333 -80.001 31z" />
    <glyph glyph-name="dieresis" unicode="&#xa8;" horiz-adv-x="1024" 
 />
    <glyph glyph-name="copyright" unicode="&#xa9;" horiz-adv-x="1816" 
d="M1396 563c-116.667 -134 -273.667 -201 -471 -201c-337.333 0 -506 164.667 -506 494c0 207.333 57.667 374.333 173 501c116 127.333 270.667 191 464 191c338.667 0 508 -162.333 508 -487c0 -203.333 -56 -369.333 -168 -498zM1021 1421
c-141.333 0 -253.667 -55 -337 -165c-76.667 -102 -115 -231.333 -115 -388c0 -255.333 124.667 -383 374 -383c148 0 265 54.333 351 163c81.333 102 122 235 122 399c0 249.333 -131.667 374 -395 374zM1212 717c-23.333 -33.333 -54 -62 -92 -86
c-48.667 -30 -100.667 -45 -156 -45c-184.667 0 -277 94.667 -277 284c0 123.333 39 229.666 117 318.999c78 90.667 173 136 285 136c122.667 0 184 -38.333 184 -115c0 -31.333 -10.333 -57 -31 -77c-28 -26 -61.333 -35 -100 -27c-6 62.667 -33.333 94 -82 94
c-51.333 0 -94 -32.333 -128 -97c-33.333 -63.333 -50 -142.333 -50 -237c0 -95.333 41 -143 123 -143c65.333 0 130 35.333 194 106c36.667 -27.333 41 -64.666 13 -111.999z" />
    <glyph glyph-name="registered" unicode="&#xae;" horiz-adv-x="1792" 
d="M1147 807c39.333 -54.667 74.666 -89.667 105.999 -105c-24.667 -54 -68.667 -81 -132 -81c-35.333 0 -66 19.667 -92 59c-49.333 70.667 -86.666 141.667 -111.999 213c-5.33301 -37.333 -9.33301 -74.333 -12 -111l-2 -84l3 -41c0 -6 -5.66699 -12 -17 -18
c-9.33301 -4.66699 -22.333 -9 -39 -13l-60 -10c-46.667 0 -68 18 -64 54c10 54 19 110.333 27 169c8 52 14.667 103.333 20 154c11.333 94.667 17 159.667 17 195c0 18 -5.66699 39 -17 63c80.667 36 158.667 54 234 54c156.667 0 235 -52.667 235 -158
c0 -92.667 -56.667 -163 -170 -211c18 -41.333 43 -84.333 75 -129zM931 1006c92.667 4 139 44 139 120c0 49.333 -23.667 74 -71 74h-17l-20 -4l-15 -102zM1560 1061c0 -206 -55.333 -372.333 -166 -499c-116 -133.333 -273.667 -200 -473 -200
c-334.667 0 -502 164.667 -502 494c0 208 56.667 375 170 501c114.667 127.333 269 191 463 191c338.667 0 508 -162.333 508 -487zM1291 645c82 102.667 123 236.667 123 402c0 249.333 -131.667 374 -395 374c-142 0 -254.667 -55.333 -338 -166
c-76.667 -102.667 -115 -231.667 -115 -387c0 -255.333 125 -383 375 -383c147.333 0 264 53.333 350 160z" />
    <glyph glyph-name="acute" unicode="&#xb4;" horiz-adv-x="1024" 
 />
    <glyph glyph-name="paragraph" unicode="&#xb6;" horiz-adv-x="1024" 
d="M929 1435l-0.000976562 -70h-127v-1365h-82v1365h-166v-1365h-84v738c-116 5.33301 -207.833 39.5 -275.5 102.5s-101.5 144.833 -101.5 245.5c0 104.667 35.833 189 107.5 253s166.834 96 285.501 96h443z" />
    <glyph glyph-name="onequarter" unicode="&#xbc;" horiz-adv-x="1804" 
d="M1672 412c38.667 1.33301 57.999 -16 57.999 -52c0 -34.667 -19.333 -72.667 -58 -114l-8 -10l-12 4c-24 7.33301 -51.333 12 -82 14l-2 -8c-16.667 -76 -25 -126.667 -25 -152c0 -17.333 3.66699 -33 11 -47l8 -18l-40 -17c-9.33301 -4 -18.333 -7.33301 -27 -10
c-24 -6.66699 -45.333 -10 -64 -10c-57.333 0 -86 25.333 -86 76c0 17.333 4 45.666 12 84.999l22 103c-26 0 -54.333 -0.666992 -85 -2l-187 -12c-38 0 -57 29.333 -57 88c0 22 10.667 51.667 32 89c18 30.667 43.333 66.334 76 107.001c25.333 30.667 54.333 64 87 100
l65 68c50.667 53.333 96.334 97.666 137.001 132.999c52.667 46.667 104 84.334 154 113.001l10 2c65.333 0 98 -19.667 98 -59c0 -6.66699 -0.666992 -15 -2 -25l-16 -92l-40 -166l-48 -192zM1420 403c5.33301 24 12.001 51.667 20.001 83l24 85l24 82
c8 28.667 14 52.667 18 72c-62 -49.333 -122 -102.333 -180 -159c-64.667 -64 -114.334 -121.667 -149.001 -173zM544 676c-23.333 9.33301 -50.666 14.001 -81.999 14.001l-182 -1c-4.66699 0 -6.33398 0 -5.00098 0c-10 0 -17.667 -0.333008 -23 -1h-24
c-66 0 -101.333 24 -106 72v2c0 32 7.66699 59.333 23 82l6 10l108 -12c6.66699 0 12 1.66699 16 5c4.66699 4 8.33398 11.667 11.001 23l131 570l-55 -14c-8 -2.66699 -14 -4.33398 -18 -5.00098c-13.333 -4 -24 -7 -32 -9c-10.667 -2 -19.334 -3 -26.001 -3
c-34 0 -51 22.667 -51 68c0 39.333 5.33301 70.666 16 93.999l6 14l68 1c28 0.666992 54.667 2.33398 80 5.00098c74 6 132 16.333 174 31l10 6l12 -12c24.667 -31.333 37 -58.666 37 -81.999c0 -12 -2.66699 -23.667 -8 -35l-152 -659l23 2c66.667 0 100 -26.667 100 -80
c0 -18.667 -9.33301 -45.334 -28 -80.001l-13 -16zM1491 1331l-163.998 -201l-181 -235c-261.333 -346 -445 -610.333 -551 -793l-45 -76c-16.667 -23.333 -33 -41 -49 -53c-80.667 15.333 -129.334 40 -146.001 74c13.333 52.667 108.333 201 285 445l138 189l262 355
l12 16l274 371c94 114.667 181.333 172 262 172c56.667 0 106 -4.66699 148 -14c-54.667 -38 -136.334 -121.333 -245.001 -250z" />
    <glyph glyph-name="onehalf" unicode="&#xbd;" horiz-adv-x="1792" 
d="M1492 1331c-95.333 -112.667 -209.999 -258.003 -343.999 -436.003c-260 -342 -444.333 -606.333 -553 -793l-45 -76c-16 -23.333 -31.667 -41 -47 -53c-80 14.667 -129.333 39.334 -148 74.001c9.33301 32.667 51.333 105.334 126 218.001
c73.333 110 170.666 248.333 291.999 415c180 254.667 365 502.334 555 743.001c92 114.667 178.667 172 260 172c56 0 106 -4.66699 150 -14c-55.333 -38.667 -137.333 -122 -246 -250zM546.001 675.997c-27.333 12 -59.998 16.668 -97.998 14.001l-175 -1l-42 -1
c-68 0 -104.333 24 -109 72v2c0 30 8.33301 57.333 25 82l6 10l73 -11c7.33301 -0.666992 13.666 -1 18.999 -1l14 -1c4.66699 0 8.33398 0.666992 11.001 2c6.66699 2.66699 12 11.667 16 27l133 570l-74 -19c-14 -4 -25 -7 -33 -9c-10.667 -2 -19.334 -3 -26.001 -3
c-34 0 -51 22.667 -51 68c0 36 6 67.333 18 94l4 14l69 1c28 0.666992 55 2.33398 81 5.00098c73.333 6 130.666 16.333 171.999 31l12 6l10 -12c24.667 -28.667 37 -56 37 -82c0 -10.667 -2 -22.334 -6 -35.001l-154 -659l25 2c66.667 0 100 -26.667 100 -80
c0 -16.667 -10 -43.334 -30 -80.001l-11 -16zM1668 185.998l4 -16.9971v-15c0 -102.667 -43 -154 -129 -154l-219 6c-28.667 0 -65 -1.33301 -109 -4l-83 -4c-11.333 0 -19.333 0.333008 -24 1c-8.66699 1.33301 -15.667 4.33301 -21 9v2c-4.66699 4.66699 -9 11.667 -13 21
c-2.66699 8 -4.66699 17 -6 27l-4 32c0 7.33301 0.333008 13 1 17c1.33301 6.66699 3.66602 12.667 6.99902 18l88 74l84 74c61.333 57.333 112 111.666 152 162.999c95.333 122.667 143 217 143 283c0 48 -26.667 72 -80 72c-60.667 0 -109 -26.667 -145 -80l-24 -23
c-8 -6.66699 -16.333 -11.334 -25 -14.001l-15 -4l-8 14c-18.667 30 -28 58.667 -28 86c0 52 31.333 94.333 94 127c58 30 127 45 207 45c156.667 0 235 -66.333 235 -199c0 -104.667 -75 -237 -225 -397l-74 -76c-44.667 -44.667 -78.667 -77.334 -102 -98.001
c14.667 -1.33301 34.334 -2 59.001 -2c56 0 108.667 6 158 18l45 13c14 4 24.333 6 31 6c13.333 0 22 -7 26 -21z" />
    <glyph glyph-name="threequarters" unicode="&#xbe;" horiz-adv-x="1812" 
d="M1672 412c38.667 1.33301 57.998 -16.001 57.998 -52.001c0 -34.667 -19.333 -72.667 -58 -114l-8 -10l-12 4c-24 7.33301 -51.333 12 -82 14l-2 -8c-16.667 -76 -25 -126.667 -25 -152c0 -17.333 3.66699 -33 11 -47l8 -18l-40 -17
c-9.33301 -4 -18.333 -7.33301 -27 -10c-24 -6.66699 -45.333 -10 -64 -10c-57.333 0 -86 25.333 -86 76c0 17.333 4 45.666 12 84.999l23 103c-26 0 -54.667 -0.666992 -86 -2l-187 -12c-38 0 -57 29.333 -57 88c0 22 10.667 51.667 32 89
c18.667 30.667 44 66.334 76 107.001c25.333 30.667 54.333 64 87 100l65 68c50.667 53.333 96.334 97.666 137.001 132.999c52.667 46.667 104 84.334 154 113.001l10 2c65.333 0 98 -19.667 98 -59c0 -6.66699 -0.666992 -15 -2 -25l-16 -92
c-9.33301 -43.333 -22.666 -98.666 -39.999 -165.999l-48 -192zM1421 402.999c4.66699 24 11.334 51.667 20.001 83c5.33301 22 13 50.333 23 85l24 82c8 28.667 14.333 52.667 19 72c-62.667 -49.333 -123 -102.333 -181 -159c-64.667 -64 -114.334 -121.667 -149.001 -173
zM1491 1331l-163.998 -201l-181 -235c-260.667 -346 -444.334 -610.333 -551.001 -793l-45 -76c-16 -23.333 -32.333 -41 -49 -53c-80.667 15.333 -129 40 -145 74c13.333 52.667 108 201 284 445l138 189l262 355l12 16l274 371c94 114.667 181.667 172 263 172
c56 0 105 -4.66699 147 -14c-54.667 -38 -136.334 -121.333 -245.001 -250zM609 754.999c78 66 116.998 145.335 116.998 238.002c0 91.333 -41 153 -123 185c120.667 68 181 149 181 243c0 53.333 -16 95.666 -48 126.999c-41.333 41.333 -108.666 62 -201.999 62
c-169.333 0 -254 -49.333 -254 -148c0 -12.667 5 -27 15 -43c4 -6.66699 8.66699 -13.667 14 -21l40 -50l15 28c28.667 60 76.334 90 143.001 90c52 0 78 -25.667 78 -77c0 -39.333 -22.333 -74.333 -67 -105c-30 -20 -73.333 -39.667 -130 -59l-51 -16
c-16.667 -6 -30.667 -12.667 -42 -20c-28 -17.333 -42 -40.333 -42 -69c0 -16.667 4.33301 -34.334 13 -53.001l6 -16l16 4c40 10.667 86.333 16 139 16c60 0 90 -35.333 90 -106c0 -110.667 -60.667 -166 -182 -166c-58 0 -107.667 26.667 -149 80l-19 24l-16 -26
c-23.333 -40 -35 -78.333 -35 -115c0 -30 13.667 -53.667 41 -71c35.333 -22.667 92 -34 170 -34c110 0 204 32.667 282 98z" />
    <glyph glyph-name="Agrave" unicode="&#xc0;" horiz-adv-x="1318" 
d="M1115 1735c0 3.33301 -4.33398 8.99805 -13.001 16.998l-112 83c-35.333 29.333 -68.666 65 -99.999 107l-39 56l-39 58c-58 8.66699 -113.667 -0.666016 -167 -27.999c-50 -26 -75 -53.333 -75 -82c0 -41.333 45.333 -86.666 136 -135.999s197.667 -86 321 -110
c17.333 -3.33301 36 -1.33301 56 6c21.333 7.33301 32 17 32 29zM63.999 -29.002c-69.333 0 -103.998 24 -103.998 72c0 29.333 11 65 33 107l120 214l134 231l485 818l70 123c76 56.667 161.333 80 256 70c57.333 -6.66699 88 -55.334 92 -146.001l3 -220
c0 -7.33301 0.333008 -15.333 1 -24l33 -628c8.66699 -136 23 -250 43 -342c20.667 -98.667 52.667 -167.667 96 -207c-76.667 -53.333 -161.334 -76 -254.001 -68c-74 6.66699 -119.667 73.667 -137 201c-7.33301 46 -14 102 -20 168l-13 168
c-24 -19.333 -55.333 -29 -94 -29c-112.667 -4 -223.334 -6 -332.001 -6c-42.667 -22 -74.667 -53.333 -96 -94c-12.667 -18 -27.667 -44 -45 -78l-32 -66l-9 -20c-18 -44 -30 -78.333 -36 -103c-9.33301 -39.333 -10.333 -74.666 -3 -105.999
c-63.333 -23.333 -127 -35 -191 -35zM845.001 646.998c8 0 17.001 0.666992 27.001 2l24 4c-2.66699 226.667 -12.334 446.667 -29.001 660l-358 -666h336z" />
    <glyph glyph-name="Aacute" unicode="&#xc1;" horiz-adv-x="1318" 
d="M64 -29c-69.333 0 -103.998 24 -103.998 72c0 29.333 11 65 33 107l120 214l134 231l485 818l70 123c76 56.667 161.333 80 256 70c57.333 -6.66699 88 -55.334 92 -146.001l3 -220c0 -7.33301 0.333008 -15.333 1 -24l33 -628c8.66699 -136 23 -250 43 -342
c20.667 -98.667 52.667 -167.667 96 -207c-76.667 -53.333 -161.334 -76 -254.001 -68c-74 6.66699 -119.667 73.667 -137 201c-7.33301 46 -14 102 -20 168l-13 168c-24 -19.333 -55.333 -29 -94 -29c-112.667 -4 -223.334 -6 -332.001 -6
c-42.667 -22 -74.667 -53.333 -96 -94c-12.667 -18 -27.667 -44 -45 -78l-32 -66l-9 -20c-18 -44 -30 -78.333 -36 -103c-9.33301 -39.333 -10.333 -74.666 -3 -105.999c-63.333 -23.333 -127 -35 -191 -35zM845.002 647c8 0 17.001 0.666992 27.001 2l24 4
c-2.66699 226.667 -12.334 446.667 -29.001 660l-358 -666h336zM818.003 1733c0 7.33301 4.66699 14 14 20c70 45.333 131 93 183 143c43.333 41.333 87.666 92 132.999 152c154 0 231 -34.667 231 -104c0 -43.333 -42.333 -85 -127 -125
c-102.667 -58 -218.667 -98.333 -348 -121c-17.333 -3.33301 -35.666 -1.33301 -54.999 6c-20.667 7.33301 -31 17 -31 29z" />
    <glyph glyph-name="Acircumflex" unicode="&#xc2;" horiz-adv-x="1318" 
d="M1101 -33h-15.002l-14 2c-73.333 6 -119.666 73.667 -138.999 203c-1.33301 5.33301 -2.33301 12 -3 20c-0.666992 5.33301 -1.33398 12.333 -2.00098 21c0 1.33301 -0.333008 5 -1 11l-25 284c-25.333 -20.667 -56.666 -31 -93.999 -31l-334 -6
c-42.667 -22.667 -74 -53.334 -94 -92.001c-26.667 -38 -55.334 -93.333 -86.001 -166c-26 -62 -41 -112.667 -45 -152v-17c0 -6.66699 0.666992 -11.667 2 -15c0.666992 -5.33301 1.33398 -10.333 2.00098 -15v-8c-6.66699 -3.33301 -15.334 -6.33301 -26.001 -9
c-2 0 -4.33301 -0.666992 -7 -2l-22 -5c-45.333 -12.667 -90 -19 -134 -19c-69.333 0 -104 24 -104 72c0 30 11 64.667 33 104l120 216l134 232l417 701l68 117l70 123c6.66699 3.33301 13.334 7 20.001 11l25 17c2.66699 2.66699 5 4.66699 7 6
c6.66699 4 12.334 7.66699 17.001 11c0 4 6.33301 8 19 12c29.333 6.66699 62.666 11 99.999 13c5.33301 0.666992 11.333 1 18 1h32c6 0 11.333 -0.333008 16 -1c59.333 -6.66699 90 -56 92 -148l6 -266l33 -606c8 -129.333 21.667 -242.666 41 -339.999
c20.667 -99.333 53.334 -168.333 98.001 -207c-76 -48 -151 -72 -225 -72zM874.998 1260c-1.33301 1.33301 -4 1.99902 -8 1.99902v51l-164 -303l-94 -176l-100 -187h336c17.333 0 34.333 2 51 6c2.66699 11.333 4 21 4 29l-12 211c-1.33301 16.667 -2 39.334 -2 68.001v90z
M1320 1708c-8.66699 -2.66699 -17.667 -4.33301 -27 -5l-14 -1c-54.667 0 -131 54 -229 162c-142.667 -108 -252 -162 -328 -162c-39.333 0 -59 10.333 -59 31l161 139c146 126.667 247.333 190 304 190c20 0 36.333 -4 49 -12c38.667 -109.333 107 -210.333 205 -303
c-16 -19.333 -36.667 -32.333 -62 -39z" />
    <glyph glyph-name="Atilde" unicode="&#xc3;" horiz-adv-x="1318" 
d="M64 -29c-69.333 0 -103.998 24 -103.998 72c0 29.333 11 65 33 107l120 214l134 231l485 818l70 123c76 56.667 161.333 80 256 70c57.333 -6.66699 88 -55.334 92 -146.001l3 -220c0 -7.33301 0.333008 -15.333 1 -24l33 -628c8.66699 -136 23 -250 43 -342
c20.667 -98.667 52.667 -167.667 96 -207c-76.667 -53.333 -161.334 -76 -254.001 -68c-74 6.66699 -119.667 73.667 -137 201c-7.33301 46 -14 102 -20 168l-13 168c-24 -19.333 -55.333 -29 -94 -29c-112.667 -4 -223.334 -6 -332.001 -6
c-42.667 -22 -74.667 -53.333 -96 -94c-12.667 -18 -27.667 -44 -45 -78l-32 -66l-9 -20c-18 -44 -30 -78.333 -36 -103c-9.33301 -39.333 -10.333 -74.666 -3 -105.999c-63.333 -23.333 -127 -35 -191 -35zM845.002 647c8 0 17.001 0.666992 27.001 2l24 4
c-2.66699 226.667 -12.334 446.667 -29.001 660l-358 -666h336zM1387 1799c-40.667 -46.667 -88.9961 -70.0029 -144.996 -70.0029c-46.667 0 -117.334 25.667 -212.001 77c-82.667 46.667 -141.667 70 -177 70h-12l-13 -3
c-38.667 -11.333 -66.334 -50.666 -83.001 -117.999l-13 -32c-1.33301 -1.33301 -3.33301 -2 -6 -2c-14 0 -27.333 5 -40 15c-14 11.333 -21 22.333 -21 33l6 51c13.333 61.333 38.666 112.333 75.999 153c38.667 40 84.667 60 138 60
c27.333 0.666992 60.333 -6.33301 99 -21c28 -10.667 66.667 -28.667 116 -54c88.667 -45.333 149.667 -68 183 -68l21 3c41.333 10.667 69.666 51.667 84.999 123l10 29c1.33301 0.666992 3 1 5 1c4.66699 0 11.667 -1.66699 21 -5c28 -13.333 42 -36.666 42 -69.999
c-10 -69.333 -36.667 -126.666 -80 -171.999z" />
    <glyph glyph-name="Egrave" unicode="&#xc8;" horiz-adv-x="1181" 
d="M946 1577c29.333 0 67.999 1.33398 115.999 4.00098l99 4c71.333 0 118.333 -12.333 141 -37c-8 -55.333 -25.333 -103 -52 -143c-31.333 -46.667 -68 -70 -110 -70c-4.66699 0 -12 2.66699 -22 8l-32 18l-49 17c-21.333 5.33301 -44.333 8 -69 8l-319 5
c16 -18.667 24 -39.334 24 -62.001v-16l-44 -203c-16 -72.667 -32 -141.667 -48 -207h121c61.333 0 125.666 3 192.999 9c57.333 5.33301 114 12.666 170 21.999c0 -14.667 -2.33301 -31 -7 -49c-20 -74.667 -60 -124.334 -120 -149.001c-26 -10.667 -58 -17.667 -96 -21
c-28 -2.66699 -66.333 -4 -115 -4h-185c-18 -58 -33.667 -117.667 -47 -179c-17.333 -80 -26 -144.667 -26 -194c0 -72 27 -118 81 -138c20 -7.33301 44.667 -11.666 74 -12.999l72 -1c46.667 0 95.334 4.66699 146.001 14c38 7.33301 78.667 17.333 122 30l94 31
c28 8.66699 47.333 13 58 13c0 -118 -47 -198 -141 -240c-41.333 -18.667 -95 -31.667 -161 -39c-53.333 -6 -122.666 -9 -207.999 -9l-285 2c-70 0 -118 16.667 -144 50c-20 26.667 -30 71.334 -30 134.001c0 36.667 4.66699 82 14 136
c7.33301 44 17.666 92.333 30.999 145l72 273c25.333 96.667 45.333 175.334 60 236.001c36 155.333 54 271 54 347v44c-1.33301 14.667 -4.66602 21 -9.99902 19c-11.333 -2.66699 -24 -4.33398 -38 -5.00098l-27 -1c-6 2 -8 13.667 -6 35c0 20 4 39 12 57
c28.667 58 67.667 89.333 117 94c172 16.667 345.333 25 520 25zM940.999 1706c-20.667 -7.33301 -39.666 -9.33105 -56.999 -5.99805c-122.667 24 -229.667 60.667 -321 110c-90 49.333 -135 94.666 -135 135.999c0 28.667 24.667 56 74 82
c53.333 27.333 109 36.666 167 28l39 -58c15.333 -22.667 28.666 -41.334 39.999 -56.001c31.333 -42 64.333 -77.667 99 -107l112 -83c8.66699 -8 13 -13.667 13 -17c0 -12 -10.333 -21.667 -31 -29z" />
    <glyph glyph-name="Eacute" unicode="&#xc9;" horiz-adv-x="1181" 
d="M946 1577c29.333 0 67.999 1.33398 115.999 4.00098l99 4c71.333 0 118.333 -12.333 141 -37c-8 -55.333 -25.333 -103 -52 -143c-31.333 -46.667 -68 -70 -110 -70c-4.66699 0 -12 2.66699 -22 8l-32 18l-49 17c-21.333 5.33301 -44.333 8 -69 8l-319 5
c16 -18.667 24 -39.334 24 -62.001v-16l-44 -203c-16 -72.667 -32 -141.667 -48 -207h121c61.333 0 125.666 3 192.999 9c57.333 5.33301 114 12.666 170 21.999c0 -14.667 -2.33301 -31 -7 -49c-20 -74.667 -60 -124.334 -120 -149.001c-26 -10.667 -58 -17.667 -96 -21
c-28 -2.66699 -66.333 -4 -115 -4h-185c-18 -58 -33.667 -117.667 -47 -179c-17.333 -80 -26 -144.667 -26 -194c0 -72 27 -118 81 -138c20 -7.33301 44.667 -11.666 74 -12.999l72 -1c46.667 0 95.334 4.66699 146.001 14c38 7.33301 78.667 17.333 122 30l94 31
c28 8.66699 47.333 13 58 13c0 -118 -47 -198 -141 -240c-41.333 -18.667 -95 -31.667 -161 -39c-53.333 -6 -122.666 -9 -207.999 -9l-285 2c-70 0 -118 16.667 -144 50c-20 26.667 -30 71.334 -30 134.001c0 36.667 4.66699 82 14 136
c7.33301 44 17.666 92.333 30.999 145l72 273c25.333 96.667 45.333 175.334 60 236.001c36 155.333 54 271 54 347v44c-1.33301 14.667 -4.66602 21 -9.99902 19c-11.333 -2.66699 -24 -4.33398 -38 -5.00098l-27 -1c-6 2 -8 13.667 -6 35c0 20 4 39 12 57
c28.667 58 67.667 89.333 117 94c172 16.667 345.333 25 520 25zM674.999 1706c20 -7.33301 38.667 -9.33301 56 -6c129.333 22.667 245.333 63 348 121c84.667 40 127 81.667 127 125c0 69.333 -77.333 104 -232 104c-44.667 -60 -88.667 -110.667 -132 -152
c-52 -50 -113 -97.667 -183 -143c-9.33301 -5.33301 -14 -12 -14 -20c0 -12 10 -21.667 30 -29z" />
    <glyph glyph-name="Ecircumflex" unicode="&#xca;" horiz-adv-x="1103" 
d="M946 1577c29.333 0 67.999 1.33398 115.999 4.00098l99 4c71.333 0 118.333 -12.333 141 -37c-8 -55.333 -25.333 -103 -52 -143c-31.333 -46.667 -68 -70 -110 -70c-4.66699 0 -12 2.66699 -22 8l-32 18l-49 17c-21.333 5.33301 -44.333 8 -69 8l-319 5
c16 -18.667 24 -39.334 24 -62.001v-16l-44 -203c-16 -72.667 -32 -141.667 -48 -207h121c61.333 0 125.666 3 192.999 9c57.333 5.33301 114 12.666 170 21.999c0 -14.667 -2.33301 -31 -7 -49c-20 -74.667 -60 -124.334 -120 -149.001c-26 -10.667 -58 -17.667 -96 -21
c-28 -2.66699 -66.333 -4 -115 -4h-185c-18 -58 -33.667 -117.667 -47 -179c-17.333 -80 -26 -144.667 -26 -194c0 -72 27 -118 81 -138c20 -7.33301 44.667 -11.666 74 -12.999l72 -1c46.667 0 95.334 4.66699 146.001 14c38 7.33301 78.667 17.333 122 30l94 31
c28 8.66699 47.333 13 58 13c0 -118 -47 -198 -141 -240c-41.333 -18.667 -95 -31.667 -161 -39c-53.333 -6 -122.666 -9 -207.999 -9l-285 2c-70 0 -118 16.667 -144 50c-20 26.667 -30 71.334 -30 134.001c0 36.667 4.66699 82 14 136
c7.33301 44 17.666 92.333 30.999 145l72 273c25.333 96.667 45.333 175.334 60 236.001c36 155.333 54 271 54 347v44c-1.33301 14.667 -4.66602 21 -9.99902 19c-11.333 -2.66699 -24 -4.33398 -38 -5.00098l-27 -1c-6 2 -8 13.667 -6 35c0 20 4 39 12 57
c28.667 58 67.667 89.333 117 94c172 16.667 345.333 25 520 25zM1168 1708c-8.66699 -2.66699 -17.3311 -4.33301 -25.998 -5l-14 -1c-54.667 0 -131.334 54 -230.001 162c-142 -108 -251 -162 -327 -162c-40 0 -60 10.333 -60 31l162 139
c145.333 126.667 246.333 190 303 190c20.667 0 37 -4 49 -12c39.333 -109.333 107.666 -210.333 204.999 -303c-15.333 -19.333 -36 -32.333 -62 -39z" />
    <glyph glyph-name="Igrave" unicode="&#xcc;" horiz-adv-x="772" 
d="M335 696c35.333 151.333 65.333 284.667 90 400c20.667 94 33 176.333 37 247l1 34c0 12.667 -1 23.667 -3 33c-6 23.333 -21 40 -45 50c-9.33301 2 -16.333 9 -21 21l-3 19c0 2 3.33301 5 10 9c88 52 174.667 78 260 78c50 0 86 -13.667 108 -41
c22.667 -25.333 29.667 -64 21 -116l-180 -765l-54 -255c-10 -52 -17 -90.667 -21 -116c-6.66699 -38.667 -10 -70.334 -10 -95.001c0 -54 16 -104 48 -150c0 -20 -34.667 -39 -104 -57c-58.667 -15.333 -106.667 -23 -144 -23c-78 0 -117 43.667 -117 131
c0 46.667 10.333 112.334 31 197.001zM809 1706c-20 -7.33301 -38.667 -9.33105 -56 -5.99805c-123.333 24 -230.666 60.667 -321.999 110c-90 49.333 -135 94.666 -135 135.999c0 28.667 25 56 75 82c53.333 27.333 109 36.666 167 28l39 -58
c14.667 -22.667 27.667 -41.334 39 -56.001c31.333 -42 64.666 -77.667 99.999 -107l112 -83c8.66699 -8 13 -13.667 13 -17c0 -12 -10.667 -21.667 -32 -29z" />
    <glyph glyph-name="Iacute" unicode="&#xcd;" horiz-adv-x="772" 
d="M540 1704c19.333 -7.33301 37.666 -9.33301 54.999 -6c129.333 22.667 245.333 63 348 121c84.667 40 127 81.667 127 125c0 69.333 -77 104 -231 104c-45.333 -60 -89.666 -110.667 -132.999 -152c-52 -50 -113 -97.667 -183 -143c-9.33301 -6 -14 -12.667 -14 -20
c0 -12 10.333 -21.667 31 -29zM335 696c35.333 151.333 65.333 284.667 90 400c20.667 94 33 176.333 37 247l1 34c0 12.667 -1 23.667 -3 33c-6 23.333 -21 40 -45 50c-9.33301 2 -16.333 9 -21 21l-3 19c0 2 3.33301 5 10 9c88 52 174.667 78 260 78
c50 0 86 -13.667 108 -41c22.667 -25.333 29.667 -64 21 -116l-180 -765l-54 -255c-10 -52 -17 -90.667 -21 -116c-6.66699 -38.667 -10 -70.334 -10 -95.001c0 -54 16 -104 48 -150c0 -20 -34.667 -39 -104 -57c-58.667 -15.333 -106.667 -23 -144 -23
c-78 0 -117 43.667 -117 131c0 46.667 10.333 112.334 31 197.001z" />
    <glyph glyph-name="Ograve" unicode="&#xd2;" 
d="M1490 1085c0 -274.667 -84.668 -528.666 -254.001 -761.999c-83.333 -114.667 -177.333 -204 -282 -268c-113.333 -69.333 -230.666 -104 -351.999 -104c-300.667 0 -451 174.667 -451 524c0 282 82.667 538 248 768c82 113.333 175 201.666 279 264.999
c112 68 230 102 354 102c305.333 0 458 -175 458 -525zM905.999 252.001c57.333 66 108.332 153.002 152.999 261.002c39.333 96 70.333 199.333 93 310c20.667 102.667 31 195 31 277c0 104 -17.667 184.667 -53 242c-38.667 64 -96.667 96 -174 96
c-60.667 0 -121.667 -31.333 -183 -94c-56.667 -56.667 -108.667 -134.334 -156 -233.001c-99.333 -205.333 -149 -407 -149 -605c0 -124.667 17.333 -220.334 52 -287.001c38.667 -76 97.334 -108 176.001 -96c74.667 11.333 144.667 54.333 210 129zM1184 1706
c-20 -7.33301 -38.666 -9.33105 -55.999 -5.99805c-123.333 24 -230.333 60.667 -321 110s-136 94.666 -136 135.999c0 28.667 25 56 75 82c53.333 27.333 109 36.666 167 27.999l39 -58l39 -56c31.333 -42 64.666 -77.667 99.999 -107l112 -83
c8.66699 -8 13 -13.667 13 -17c0 -12 -10.667 -21.667 -32 -29z" />
    <glyph glyph-name="Oacute" unicode="&#xd3;" 
d="M946 1704c19.333 -7.33301 37.666 -9.33301 54.999 -6c129.333 22.667 245.333 63 348 121c84.667 40 127 81.667 127 125c0 69.333 -77 104 -231 104c-45.333 -60 -89.666 -110.667 -132.999 -152c-52 -50 -113 -97.667 -183 -143c-9.33301 -6 -14 -12.667 -14 -20
c0 -12 10.333 -21.667 31 -29zM1490 1085c0 -274.667 -84.668 -528.666 -254.001 -761.999c-83.333 -114.667 -177.333 -204 -282 -268c-113.333 -69.333 -230.666 -104 -351.999 -104c-300.667 0 -451 174.667 -451 524c0 282 82.667 538 248 768
c82 113.333 175 201.666 279 264.999c112 68 230 102 354 102c305.333 0 458 -175 458 -525zM905.999 252.001c57.333 66 108.332 153.002 152.999 261.002c39.333 96 70.333 199.333 93 310c20.667 102.667 31 195 31 277c0 104 -17.667 184.667 -53 242
c-38.667 64 -96.667 96 -174 96c-60.667 0 -121.667 -31.333 -183 -94c-56.667 -56.667 -108.667 -134.334 -156 -233.001c-99.333 -205.333 -149 -407 -149 -605c0 -124.667 17.333 -220.334 52 -287.001c38.667 -76 97.334 -108 176.001 -96
c74.667 11.333 144.667 54.333 210 129z" />
    <glyph glyph-name="Ocircumflex" unicode="&#xd4;" 
d="M1490 1085c0 -274.667 -84.668 -528.666 -254.001 -761.999c-83.333 -114.667 -177.333 -204 -282 -268c-113.333 -69.333 -230.666 -104 -351.999 -104c-300.667 0 -451 174.667 -451 524c0 282 82.667 538 248 768c82 113.333 175 201.666 279 264.999
c112 68 230 102 354 102c305.333 0 458 -175 458 -525zM905.999 252.001c57.333 66 108.332 153.002 152.999 261.002c39.333 96 70.333 199.333 93 310c20.667 102.667 31 195 31 277c0 104 -17.667 184.667 -53 242c-38.667 64 -96.667 96 -174 96
c-60.667 0 -121.667 -31.333 -183 -94c-56.667 -56.667 -108.667 -134.334 -156 -233.001c-99.333 -205.333 -149 -407 -149 -605c0 -124.667 17.333 -220.334 52 -287.001c38.667 -76 97.334 -108 176.001 -96c74.667 11.333 144.667 54.333 210 129zM1369 1708
c-8.66699 -2.66699 -17.3311 -4.33301 -25.998 -5l-14 -1c-54.667 0 -131.334 54 -230.001 162c-142 -108 -251 -162 -327 -162c-40 0 -60 10.333 -60 31l162 139c145.333 126.667 246.333 190 303 190c20.667 0 37 -4 49 -12
c39.333 -109.333 107.666 -210.333 204.999 -303c-15.333 -19.333 -36 -32.333 -62 -39z" />
    <glyph glyph-name="Otilde" unicode="&#xd5;" 
d="M1490 1085c0 -274.667 -84.668 -528.666 -254.001 -761.999c-83.333 -114.667 -177.333 -204 -282 -268c-113.333 -69.333 -230.666 -104 -351.999 -104c-300.667 0 -451 174.667 -451 524c0 282 82.667 538 248 768c82 113.333 175 201.666 279 264.999
c112 68 230 102 354 102c305.333 0 458 -175 458 -525zM905.999 252.001c57.333 66 108.332 153.002 152.999 261.002c39.333 96 70.333 199.333 93 310c20.667 102.667 31 195 31 277c0 104 -17.667 184.667 -53 242c-38.667 64 -96.667 96 -174 96
c-60.667 0 -121.667 -31.333 -183 -94c-56.667 -56.667 -108.667 -134.334 -156 -233.001c-99.333 -205.333 -149 -407 -149 -605c0 -124.667 17.333 -220.334 52 -287.001c38.667 -76 97.334 -108 176.001 -96c74.667 11.333 144.667 54.333 210 129zM1457 1789
c-40.667 -46.667 -89.334 -70.0029 -146.001 -70.0029c-46 0 -116.333 25.667 -211 77c-83.333 46.667 -142.666 70 -177.999 70h-12l-13 -3c-38.667 -11.333 -66.334 -50.666 -83.001 -117.999l-13 -32c-1.33301 -1.33301 -3.33301 -2 -6 -2c-13.333 0 -26.333 5 -39 15
c-14 11.333 -21 22.333 -21 33l6 51c13.333 61.333 38.333 112.333 75 153c38.667 40 84.667 60 138 60c27.333 0.666992 60.333 -6.33301 99 -21c28 -10.667 67 -28.667 117 -54c88.667 -45.333 149.667 -68 183 -68l21 3c40.667 10.667 69 51.667 85 123l9 29
c1.33301 0.666992 3.33301 1 6 1c4 0 11 -1.66699 21 -5c27.333 -13.333 41 -36.666 41 -69.999c-9.33301 -69.333 -35.666 -126.666 -78.999 -171.999z" />
    <glyph glyph-name="Ugrave" unicode="&#xd9;" horiz-adv-x="1439" 
d="M1109 1706c-20 -7.33301 -38.9971 -9.33008 -56.9971 -5.99707c-122.667 24 -229.667 60.667 -321 110c-90 49.333 -135 94.666 -135 135.999c0 28.667 25 56 75 82c53.333 27.333 108.666 36.666 165.999 27.999l39 -58c15.333 -22.667 28.666 -41.334 39.999 -56.001
c31.333 -42 64.666 -77.667 99.999 -107l111 -83c9.33301 -8 14 -13.667 14 -17c0 -12 -10.667 -21.667 -32 -29zM1025 32.0029c-13.333 29.333 -20.001 73.999 -20.001 133.999v72c0 4 -0.666992 5.33301 -2 4c-39.333 -45.333 -75.333 -83.666 -108 -114.999
c-39.333 -36.667 -77.666 -67 -114.999 -91c-85.333 -55.333 -176 -83 -272 -83c-116 0 -202.333 38.667 -259 116c-47.333 64 -71 149.667 -71 257c0 33.333 2 65.333 6 96c6.66699 50 21 124.667 43 224l96 425c11.333 49.333 20.666 92.333 27.999 129
c18 88.667 28 151.667 30 189c0 33.333 -6 61.333 -18 84l-24 38c-2.66699 4.66699 -5 9 -7 13c27.333 23.333 70.333 41.333 129 54c45.333 10 88.333 15 129 15c70.667 0 108 -30.667 112 -92c0 -38 -6.66699 -93.333 -20 -166c-11.333 -58.667 -28.333 -134.667 -51 -228
l-30 -124l-60 -245l-25 -111c-13.333 -62 -23 -111.333 -29 -148c-8 -49.333 -12 -91 -12 -125c0 -125.333 49 -188 147 -188c94.667 0 191.667 58.667 291 176c26.667 36 51.334 84 74.001 144c18 46.667 37 107.334 57 182.001c37.333 134.667 73 274.667 107 420
c37.333 163.333 62 286.666 74 369.999c0.666992 7.33301 0.333984 14.333 -0.999023 21l-4 20c-5.33301 37.333 11.667 63.666 51 78.999c28 10 69.333 15 124 15c66 0 110 -5 132 -15c20.667 -10 31 -30 31 -60c-0.666992 -17.333 -5.66699 -40.666 -15 -69.999
c-1.33301 -4.66699 -3.33301 -11 -6 -19l-2 -5l-20 -60l-79 -277c-28 -102.667 -51.667 -196.667 -71 -282c-22.667 -98 -39.667 -185.333 -51 -262c-13.333 -85.333 -20 -157.666 -20 -216.999c0 -35.333 2 -66.333 6 -93c18 -105.333 45.333 -174 82 -206
c-76.667 -54 -161.334 -76.667 -254.001 -68c-50 5.33301 -84.333 29.666 -103 72.999z" />
    <glyph glyph-name="Uacute" unicode="&#xda;" horiz-adv-x="1439" 
d="M876 1704c20 -7.33301 38.667 -9.33301 56 -6c129.333 22.667 245.333 63 348 121c84.667 40 127 81.667 127 125c0 69.333 -77.333 104 -232 104c-44.667 -60 -88.667 -110.667 -132 -152c-52 -50 -113 -97.667 -183 -143c-9.33301 -6 -14 -12.667 -14 -20
c0 -12 10 -21.667 30 -29zM1025 32c-13.333 29.333 -20.001 73.999 -20.001 133.999v72c0 4 -0.666992 5.33301 -2 4c-39.333 -45.333 -75.333 -83.666 -108 -114.999c-39.333 -36.667 -77.666 -67 -114.999 -91c-85.333 -55.333 -176 -83 -272 -83
c-116 0 -202.333 38.667 -259 116c-47.333 64 -71 149.667 -71 257c0 33.333 2 65.333 6 96c6.66699 50 21 124.667 43 224l96 425c11.333 49.333 20.666 92.333 27.999 129c18 88.667 28 151.667 30 189c0 33.333 -6 61.333 -18 84l-24 38c-2.66699 4.66699 -5 9 -7 13
c27.333 23.333 70.333 41.333 129 54c45.333 10 88.333 15 129 15c70.667 0 108 -30.667 112 -92c0 -38 -6.66699 -93.333 -20 -166c-11.333 -58.667 -28.333 -134.667 -51 -228l-30 -124l-60 -245l-25 -111c-13.333 -62 -23 -111.333 -29 -148c-8 -49.333 -12 -91 -12 -125
c0 -125.333 49 -188 147 -188c94.667 0 191.667 58.667 291 176c26.667 36 51.334 84 74.001 144c18 46.667 37 107.334 57 182.001c37.333 134.667 73 274.667 107 420c37.333 163.333 62 286.666 74 369.999c0.666992 7.33301 0.333984 14.333 -0.999023 21l-4 20
c-5.33301 37.333 11.667 63.666 51 78.999c28 10 69.333 15 124 15c66 0 110 -5 132 -15c20.667 -10 31 -30 31 -60c-0.666992 -17.333 -5.66699 -40.666 -15 -69.999c-1.33301 -4.66699 -3.33301 -11 -6 -19l-2 -5l-20 -60l-79 -277
c-28 -102.667 -51.667 -196.667 -71 -282c-22.667 -98 -39.667 -185.333 -51 -262c-13.333 -85.333 -20 -157.666 -20 -216.999c0 -35.333 2 -66.333 6 -93c18 -105.333 45.333 -174 82 -206c-76.667 -54 -161.334 -76.667 -254.001 -68
c-50 5.33301 -84.333 29.666 -103 72.999z" />
    <glyph glyph-name="Yacute" unicode="&#xdd;" horiz-adv-x="1189" 
d="M1161 1034l80.9951 103.999c60 79.333 105.667 148.666 137 207.999c38.667 72.667 58 133.334 58 182.001c0 88.667 -73 133 -219 133c-26 0 -45.667 -1.33301 -59 -4c4 -22.667 6 -46 6 -70c0 -48.667 -8.33301 -90.334 -25 -125.001
c-26 -56 -57.333 -114.667 -94 -176l-248 -401l-37 174c-14 61.333 -27 115.666 -39 162.999c-28.667 112.667 -56.667 200.334 -84 263.001c-34 82 -91.333 123 -172 123c-88.667 0 -178 -43 -268 -129l51 -25c55.333 -24.667 112.333 -111.667 171 -261
c60.667 -152.667 107.334 -332.667 140.001 -540c-5.33301 -46 -19.666 -98.667 -42.999 -158c-9.33301 -23.333 -20.666 -49.666 -33.999 -78.999l-72 -153c-12.667 -27.333 -23 -51.333 -31 -72c-18.667 -51.333 -28 -94.666 -28 -129.999c0 -62.667 43 -94 129 -94
c74.667 0 146.334 17 215.001 51c-15.333 40.667 -23 77.667 -23 111c0 69.333 28 170.333 84 303c56.667 133.333 120.334 247.333 191.001 342zM784.995 1704c19.333 -7.33301 37.667 -9.33301 55 -6c129.333 22.667 245.333 63 348 121c84.667 40 127 81.667 127 125
c0 69.333 -77 104 -231 104c-45.333 -60 -89.333 -110.667 -132 -152c-52.667 -50 -113.667 -97.667 -183 -143c-10 -6 -15 -12.667 -15 -20c0 -12 10.333 -21.667 31 -29z" />
    <glyph glyph-name="agrave" unicode="&#xe0;" horiz-adv-x="1183" 
d="M1281 375c7.33301 0 11 -6.33008 11 -18.9971c0 -74.667 -42.333 -155.334 -127 -242.001s-163.334 -130 -236.001 -130c-121.333 0 -182 72.333 -182 217c0 62.667 3.33301 118 10 166c-154 -250.667 -300 -379 -438 -385h-23c-77.333 0 -134.666 27 -171.999 81
c-32.667 48 -49 117 -49 207c4 203.333 71.667 393.666 203 570.999c62 84.667 130.333 151 205 199c79.333 50.667 159 76 239 76c84 0 151 -19 201 -57c33.333 35.333 76.333 53 129 53c58 0 118.667 -16.333 182 -49c-18 -26.667 -39 -75.667 -63 -147
c-22 -64.667 -44 -139.334 -66 -224.001c-48 -189.333 -72 -324.333 -72 -405c0 -10 1 -19.333 3 -28l20 -58c23.333 4 56.666 27.667 99.999 71c62.667 68.667 104.334 103 125.001 103zM768 624.003c41.333 80 74 153.333 98 220c-21.333 79.333 -76 119 -164 119
c-78.667 0 -154 -76.667 -226 -230c-68 -146.667 -102 -290 -102 -430c4 -70.667 26.667 -106 68 -106c38 0 99.333 62.667 184 188c50 72 97.333 151.667 142 239zM965 1263c-20 -6.66699 -38.665 -8.66602 -55.998 -5.99902c-123.333 24.667 -230.666 61.667 -321.999 111
c-90 48.667 -135 93.667 -135 135c0 29.333 25 56.666 75 81.999c53.333 28 108.666 37.667 165.999 29l39 -58c15.333 -22.667 28.666 -41.667 39.999 -57c31.333 -42 64.666 -77.333 99.999 -106l111 -83c9.33301 -8 14 -14 14 -18c0 -11.333 -10.667 -21 -32 -29z" />
    <glyph glyph-name="aacute" unicode="&#xe1;" horiz-adv-x="1183" 
d="M1281 375c7.33301 0 11 -6.33008 11 -18.9971c0 -74.667 -42.333 -155.334 -127 -242.001s-163.334 -130 -236.001 -130c-121.333 0 -182 72.333 -182 217c0 62.667 3.33301 118 10 166c-154 -250.667 -300 -379 -438 -385h-23c-77.333 0 -134.666 27 -171.999 81
c-32.667 48 -49 117 -49 207c4 203.333 71.667 393.666 203 570.999c62 84.667 130.333 151 205 199c79.333 50.667 159 76 239 76c84 0 151 -19 201 -57c33.333 35.333 76.333 53 129 53c58 0 118.667 -16.333 182 -49c-18 -26.667 -39 -75.667 -63 -147
c-22 -64.667 -44 -139.334 -66 -224.001c-48 -189.333 -72 -324.333 -72 -405c0 -10 1 -19.333 3 -28l20 -58c23.333 4 56.666 27.667 99.999 71c62.667 68.667 104.334 103 125.001 103zM768 624.003c41.333 80 74 153.333 98 220c-21.333 79.333 -76 119 -164 119
c-78.667 0 -154 -76.667 -226 -230c-68 -146.667 -102 -290 -102 -430c4 -70.667 26.667 -106 68 -106c38 0 99.333 62.667 184 188c50 72 97.333 151.667 142 239zM677 1261c19.333 -6.66699 37.667 -8.66602 55 -5.99902c130 23.333 246.333 63.666 349 120.999
c84.667 40.667 127 82.334 127 125.001c0 70 -77.333 105 -232 105c-45.333 -60 -89.333 -110.667 -132 -152c-52 -50.667 -113 -98.334 -183 -143.001c-10 -6 -15 -13 -15 -21c0 -11.333 10.333 -21 31 -29z" />
    <glyph glyph-name="acircumflex" unicode="&#xe2;" horiz-adv-x="1183" 
d="M1281 375c7.33301 0 11 -6.33008 11 -18.9971c0 -74.667 -42.333 -155.334 -127 -242.001s-163.334 -130 -236.001 -130c-121.333 0 -182 72.333 -182 217c0 62.667 3.33301 118 10 166c-154 -250.667 -300 -379 -438 -385h-23c-77.333 0 -134.666 27 -171.999 81
c-32.667 48 -49 117 -49 207c4 203.333 71.667 393.666 203 570.999c62 84.667 130.333 151 205 199c79.333 50.667 159 76 239 76c84 0 151 -19 201 -57c33.333 35.333 76.333 53 129 53c58 0 118.667 -16.333 182 -49c-18 -26.667 -39 -75.667 -63 -147
c-22 -64.667 -44 -139.334 -66 -224.001c-48 -189.333 -72 -324.333 -72 -405c0 -10 1 -19.333 3 -28l20 -58c23.333 4 56.666 27.667 99.999 71c62.667 68.667 104.334 103 125.001 103zM768 624.003c41.333 80 74 153.333 98 220c-21.333 79.333 -76 119 -164 119
c-78.667 0 -154 -76.667 -226 -230c-68 -146.667 -102 -290 -102 -430c4 -70.667 26.667 -106 68 -106c38 0 99.333 62.667 184 188c50 72 97.333 151.667 142 239zM1131 1263c-8.66699 -2 -17.3311 -3.66797 -25.998 -5.00098l-14 -1c-54.667 0 -131.334 54 -230.001 162
c-142 -108 -251 -162 -327 -162c-40 0 -60 10.333 -60 31l162 139c145.333 127.333 246.333 191 303 191c20.667 0 37 -4 49 -12c39.333 -109.333 107.666 -210.333 204.999 -303c-15.333 -19.333 -36 -32.666 -62 -39.999z" />
    <glyph glyph-name="atilde" unicode="&#xe3;" horiz-adv-x="1183" 
d="M1281 375c7.33301 0 11 -6.33008 11 -18.9971c0 -74.667 -42.333 -155.334 -127 -242.001s-163.334 -130 -236.001 -130c-121.333 0 -182 72.333 -182 217c0 62.667 3.33301 118 10 166c-154 -250.667 -300 -379 -438 -385h-23c-77.333 0 -134.666 27 -171.999 81
c-32.667 48 -49 117 -49 207c4 203.333 71.667 393.666 203 570.999c62 84.667 130.333 151 205 199c79.333 50.667 159 76 239 76c84 0 151 -19 201 -57c33.333 35.333 76.333 53 129 53c58 0 118.667 -16.333 182 -49c-18 -26.667 -39 -75.667 -63 -147
c-22 -64.667 -44 -139.334 -66 -224.001c-48 -189.333 -72 -324.333 -72 -405c0 -10 1 -19.333 3 -28l20 -58c23.333 4 56.666 27.667 99.999 71c62.667 68.667 104.334 103 125.001 103zM768 624.003c41.333 80 74 153.333 98 220c-21.333 79.333 -76 119 -164 119
c-78.667 0 -154 -76.667 -226 -230c-68 -146.667 -102 -290 -102 -430c4 -70.667 26.667 -106 68 -106c38 0 99.333 62.667 184 188c50 72 97.333 151.667 142 239zM1336 1317c-41.333 -46.667 -89.998 -70.0029 -145.998 -70.0029c-46.667 0 -117.334 25.667 -212.001 77
c-82.667 46.667 -141.667 70 -177 70h-12l-13 -3c-38.667 -11.333 -66.334 -50.666 -83.001 -117.999l-13 -32c-1.33301 -1.33301 -3.33301 -2 -6 -2c-14 0 -27.333 5 -40 15c-13.333 11.333 -20 22.333 -20 33l5 51c13.333 61.333 38.666 112.333 75.999 153
c38.667 40 84.667 60 138 60c27.333 0.666992 60.333 -6.33301 99 -21c28 -10.667 66.667 -28.667 116 -54c88.667 -45.333 150 -68 184 -68l20 3c41.333 10.667 70 51.667 86 123l9 29c1.33301 0.666992 3.33301 1 6 1c4 0 10.667 -1.66699 20 -5
c28 -13.333 42 -36.666 42 -69.999c-9.33301 -69.333 -35.666 -126.666 -78.999 -171.999z" />
    <glyph glyph-name="egrave" unicode="&#xe8;" horiz-adv-x="983" 
d="M982 322c12.667 -22.667 19 -46.668 19 -72.001c0 -33.333 -10.333 -63.333 -31 -90c-37.333 -46 -88.333 -83 -153 -111c-101.333 -46 -209.333 -69 -324 -69c-248 0 -377 105 -387 315c-10.667 220.667 57.666 411 204.999 571c138.667 168 303.667 252 495 252
c164 0 246 -64.667 246 -194c0 -144 -62.667 -261 -188 -351c-134 -88.667 -283.667 -128.667 -449 -120c-9.33301 -45.333 -14 -85 -14 -119c0 -45.333 7.33301 -78 22 -98c52.667 -74 118.334 -105 197.001 -93c129.333 12.667 250 72.334 362 179.001zM442 579.999
c102.667 0 181.667 22.333 237 67c68.667 58 103 129 103 213c0 80.667 -26 121 -78 121c-112 0 -199.333 -133.667 -262 -401zM920 1261c-20 -6.66699 -38.666 -8.66602 -55.999 -5.99902c-123.333 24.667 -230.666 61.667 -321.999 111c-90 48.667 -135 93.667 -135 135
c0 29.333 25 56.666 75 81.999c53.333 28 109 37.667 167 29l38 -58c15.333 -22.667 28.666 -41.667 39.999 -57c31.333 -42 64.666 -77.333 99.999 -106l112 -83c8.66699 -8 13 -14 13 -18c0 -11.333 -10.667 -21 -32 -29z" />
    <glyph glyph-name="eacute" unicode="&#xe9;" horiz-adv-x="983" 
d="M982 322c12.667 -22.667 19 -46.668 19 -72.001c0 -33.333 -10.333 -63.333 -31 -90c-37.333 -46 -88.333 -83 -153 -111c-101.333 -46 -209.333 -69 -324 -69c-248 0 -377 105 -387 315c-10.667 220.667 57.666 411 204.999 571c138.667 168 303.667 252 495 252
c164 0 246 -64.667 246 -194c0 -144 -62.667 -261 -188 -351c-134 -88.667 -283.667 -128.667 -449 -120c-9.33301 -45.333 -14 -85 -14 -119c0 -45.333 7.33301 -78 22 -98c52.667 -74 118.334 -105 197.001 -93c129.333 12.667 250 72.334 362 179.001zM442 579.999
c102.667 0 181.667 22.333 237 67c68.667 58 103 129 103 213c0 80.667 -26 121 -78 121c-112 0 -199.333 -133.667 -262 -401zM634 1261c20 -6.66699 38.667 -8.66602 56 -5.99902c129.333 23.333 245.333 63.666 348 120.999c84.667 40.667 127 82.334 127 125.001
c0 70 -77.333 105 -232 105c-44.667 -60 -88.667 -110.667 -132 -152c-52 -50.667 -113 -98.334 -183 -143.001c-9.33301 -6 -14 -13 -14 -21c0 -11.333 10 -21 30 -29z" />
    <glyph glyph-name="ecircumflex" unicode="&#xea;" horiz-adv-x="980" 
d="M982 322c12.667 -22.667 19 -46.668 19 -72.001c0 -33.333 -10.333 -63.333 -31 -90c-37.333 -46 -88.333 -83 -153 -111c-101.333 -46 -209.333 -69 -324 -69c-248 0 -377 105 -387 315c-10.667 220.667 57.666 411 204.999 571c138.667 168 303.667 252 495 252
c164 0 246 -64.667 246 -194c0 -144 -62.667 -261 -188 -351c-134 -88.667 -283.667 -128.667 -449 -120c-9.33301 -45.333 -14 -85 -14 -119c0 -45.333 7.33301 -78 22 -98c52.667 -74 118.334 -105 197.001 -93c129.333 12.667 250 72.334 362 179.001zM442 579.999
c102.667 0 181.667 22.333 237 67c68.667 58 103 129 103 213c0 80.667 -26 121 -78 121c-112 0 -199.333 -133.667 -262 -401zM1103 1263c-8 -2 -16.668 -3.66797 -26.001 -5.00098l-14 -1c-54.667 0 -131 54 -229 162c-142.667 -108 -252 -162 -328 -162
c-39.333 0 -59 10.333 -59 31l161 139c145.333 127.333 246.333 191 303 191c20.667 0 37.334 -4 50.001 -12c38.667 -109.333 106.667 -210.333 204 -303c-15.333 -19.333 -36 -32.666 -62 -39.999z" />
    <glyph glyph-name="igrave" unicode="&#xec;" horiz-adv-x="604" 
d="M482 203c-6 11.333 -11.0029 22.999 -15.0029 34.999c-4.66699 16.667 -7 34.334 -7 53.001c0 75.333 10.333 158 31 248c2.66699 13.333 7.33398 33.333 14.001 60l74 271c6.66699 24.667 14 59 22 103c8 44.667 0 80 -24 106c-20.667 22 -55 33 -103 33
c-59.333 0 -127.666 -14.333 -204.999 -43c20.667 -30.667 31 -64.667 31 -102c0 -40 -3.33301 -77 -10 -111l-30 -157c-16 -76.667 -31.333 -141 -46 -193c-18 -68 -30.333 -136.667 -37 -206c-5.33301 -52.667 -6.66602 -94 -3.99902 -124
c8 -125.333 68.667 -188 182 -188c54 0 115.333 26.667 184 80c69.333 54 118 114 146 180c22 51.333 33 88 33 110c0 42.667 -45 14.667 -135 -84c-46 -43.333 -79.667 -67 -101 -71zM763.997 1261c-20 -6.66699 -38.666 -8.66602 -55.999 -5.99902
c-123.333 24.667 -230.666 61.667 -321.999 111c-90 48.667 -135 93.667 -135 135c0 29.333 25 56.666 75 81.999c53.333 28 109 37.667 167 29l38 -58c15.333 -22.667 28.666 -41.667 39.999 -57c31.333 -42 64.666 -77.333 99.999 -106l112 -83c8.66699 -8 13 -14 13 -18
c0 -11.333 -10.667 -21 -32 -29z" />
    <glyph glyph-name="iacute" unicode="&#xed;" horiz-adv-x="595" 
d="M482 203c-6 11.333 -11.0029 22.999 -15.0029 34.999c-4.66699 16.667 -7 34.334 -7 53.001c0 75.333 10.333 158 31 248c2.66699 13.333 7.33398 33.333 14.001 60l74 271c6.66699 24.667 14 59 22 103c8 44.667 0 80 -24 106c-20.667 22 -55 33 -103 33
c-59.333 0 -127.666 -14.333 -204.999 -43c20.667 -30.667 31 -64.667 31 -102c0 -40 -3.33301 -77 -10 -111l-30 -157c-16 -76.667 -31.333 -141 -46 -193c-18 -68 -30.333 -136.667 -37 -206c-5.33301 -52.667 -6.66602 -94 -3.99902 -124
c8 -125.333 68.667 -188 182 -188c54 0 115.333 26.667 184 80c69.333 54 118 114 146 180c22 51.333 33 88 33 110c0 42.667 -45 14.667 -135 -84c-46 -43.333 -79.667 -67 -101 -71zM293.997 1261c19.333 -6.66699 37.667 -8.66602 55 -5.99902
c129.333 23.333 245.333 63.666 348 120.999c84.667 40.667 127 82.334 127 125.001c0 70 -77 105 -231 105c-45.333 -60 -89.333 -110.667 -132 -152c-52 -50.667 -113 -98.334 -183 -143.001c-10 -6 -15 -13 -15 -21c0 -11.333 10.333 -21 31 -29z" />
    <glyph glyph-name="ograve" unicode="&#xf2;" horiz-adv-x="1095" 
d="M764 1118c112.667 0 203 -32.334 271 -97.001c68.667 -66 103 -155 103 -267c0 -197.333 -65 -374.666 -195 -531.999c-134 -161.333 -290 -242 -468 -242c-114 0 -204.667 33.667 -272 101c-68.667 68.667 -103 161.667 -103 279c0 196.667 66.333 373 199 529
c137.333 152.667 292.333 229 465 229zM702 966.999c-43.333 0 -84.667 -21.668 -124 -65.001c-35.333 -39.333 -67 -93 -95 -161c-54.667 -133.333 -82 -267.666 -82 -402.999c0 -139.333 45 -209 135 -209c42.667 0 83.667 21.667 123 65c34.667 38 65.667 91 93 159
c54 132 81 265.667 81 401c0 142 -43.667 213 -131 213zM921.999 1261c-20 -6.66699 -38.666 -8.66602 -55.999 -5.99902c-123.333 24.667 -230.333 61.667 -321 111c-90.667 48.667 -136 93.667 -136 135c0 29.333 25 56.666 75 81.999c53.333 28 109 37.667 167 29l39 -58
l39 -57c31.333 -42 64.666 -77.333 99.999 -106l112 -83c8.66699 -8 13 -14 13 -18c0 -11.333 -10.667 -21 -32 -29z" />
    <glyph glyph-name="oacute" unicode="&#xf3;" horiz-adv-x="1095" 
d="M764 1118c112.667 0 203 -32.334 271 -97.001c68.667 -66 103 -155 103 -267c0 -197.333 -65 -374.666 -195 -531.999c-134 -161.333 -290 -242 -468 -242c-114 0 -204.667 33.667 -272 101c-68.667 68.667 -103 161.667 -103 279c0 196.667 66.333 373 199 529
c137.333 152.667 292.333 229 465 229zM702 966.999c-43.333 0 -84.667 -21.668 -124 -65.001c-35.333 -39.333 -67 -93 -95 -161c-54.667 -133.333 -82 -267.666 -82 -402.999c0 -139.333 45 -209 135 -209c42.667 0 83.667 21.667 123 65c34.667 38 65.667 91 93 159
c54 132 81 265.667 81 401c0 142 -43.667 213 -131 213zM613.999 1261c19.333 -6.66699 37.667 -8.66602 55 -5.99902c130 23.333 246.333 63.666 349 120.999c84 40.667 126 82.334 126 125.001c0 70 -77 105 -231 105c-45.333 -60 -89.333 -110.667 -132 -152
c-52 -50.667 -113 -98.334 -183 -143.001c-10 -6 -15 -13 -15 -21c0 -11.333 10.333 -21 31 -29z" />
    <glyph glyph-name="ocircumflex" unicode="&#xf4;" horiz-adv-x="1095" 
d="M764 1118c112.667 0 203 -32.334 271 -97.001c68.667 -66 103 -155 103 -267c0 -197.333 -65 -374.666 -195 -531.999c-134 -161.333 -290 -242 -468 -242c-114 0 -204.667 33.667 -272 101c-68.667 68.667 -103 161.667 -103 279c0 196.667 66.333 373 199 529
c137.333 152.667 292.333 229 465 229zM702 966.999c-43.333 0 -84.667 -21.668 -124 -65.001c-35.333 -39.333 -67 -93 -95 -161c-54.667 -133.333 -82 -267.666 -82 -402.999c0 -139.333 45 -209 135 -209c42.667 0 83.667 21.667 123 65c34.667 38 65.667 91 93 159
c54 132 81 265.667 81 401c0 142 -43.667 213 -131 213zM1116 1263c-8.66699 -2 -17.3311 -3.66797 -25.998 -5.00098l-14 -1c-54.667 0 -131.334 54 -230.001 162c-142 -108 -251 -162 -327 -162c-40 0 -60 10.333 -60 31l162 139c145.333 127.333 246.333 191 303 191
c20.667 0 37 -4 49 -12c39.333 -109.333 107.666 -210.333 204.999 -303c-15.333 -19.333 -36 -32.666 -62 -39.999z" />
    <glyph glyph-name="otilde" unicode="&#xf5;" horiz-adv-x="1095" 
d="M764 1118c112.667 0 203 -32.334 271 -97.001c68.667 -66 103 -155 103 -267c0 -197.333 -65 -374.666 -195 -531.999c-134 -161.333 -290 -242 -468 -242c-114 0 -204.667 33.667 -272 101c-68.667 68.667 -103 161.667 -103 279c0 196.667 66.333 373 199 529
c137.333 152.667 292.333 229 465 229zM702 966.999c-43.333 0 -84.667 -21.668 -124 -65.001c-35.333 -39.333 -67 -93 -95 -161c-54.667 -133.333 -82 -267.666 -82 -402.999c0 -139.333 45 -209 135 -209c42.667 0 83.667 21.667 123 65c34.667 38 65.667 91 93 159
c54 132 81 265.667 81 401c0 142 -43.667 213 -131 213zM1255 1317c-40.667 -46.667 -89.001 -70.0029 -145.001 -70.0029c-46.667 0 -117.334 25.667 -212.001 77c-83.333 46.667 -142.666 70 -177.999 70h-11l-13 -3c-38.667 -11.333 -66.667 -50.666 -84 -117.999
l-13 -32c-1.33301 -1.33301 -3 -2 -5 -2c-14 0 -27.333 5 -40 15c-14 11.333 -21 22.333 -21 33l6 51c13.333 61.333 38.333 112.333 75 153c38.667 40 84.667 60 138 60c28 0.666992 61.333 -6.33301 100 -21c28 -10.667 66.667 -28.667 116 -54
c88.667 -45.333 149.667 -68 183 -68l21 3c40.667 10.667 69 51.667 85 123l9 29c1.33301 0.666992 3.33301 1 6 1c4.66699 0 11.667 -1.66699 21 -5c27.333 -13.333 41 -36.666 41 -69.999c-9.33301 -69.333 -35.666 -126.666 -78.999 -171.999z" />
    <glyph glyph-name="divide" unicode="&#xf7;" horiz-adv-x="1706" 
 />
    <glyph glyph-name="glyph216" unicode="&#xf9;" horiz-adv-x="1206" 
d="M1212 1001c0 -38 -8.66699 -89.002 -26 -153.002l-37 -131c-2 -6.66699 -4 -13 -6 -19c-16.667 -58.667 -29.667 -106.667 -39 -144c-26 -106 -39 -190.333 -39 -253c0 -18.667 2.33301 -36 7 -52c4 -12.667 9 -24.667 15 -36c13.333 2.66699 32 13.667 56 33
c17.333 13.333 40.333 33.333 69 60l33 31l29 26c19.333 17.333 31.333 26 36 26c8.66699 0 13 -6 13 -18c0 -74 -42.333 -154.667 -127 -242c-85.333 -87.333 -164.666 -131 -237.999 -131c-121.333 0 -182 73 -182 219c0 25.333 1.66699 51.666 5 78.999
c2.66699 18.667 7 45 13 79c-160.667 -263.333 -319.667 -395 -477 -395c-68.667 0 -117.334 22 -146.001 66c-21.333 33.333 -32 81.333 -32 144c0 36 7.66699 91.667 23 167l101 444c15.333 74.667 23 129.334 23 164.001c0 44 -6.66699 78.667 -20 104
c74 28.667 141 43 201 43c78.667 0 118 -37.667 118 -113c0 -17.333 -2.33301 -38.666 -7 -63.999l-78 -335c-2 -8 -4 -15.333 -6 -22l-20 -85c-28 -119.333 -42 -199.666 -42 -240.999c0 -35.333 13 -53 39 -53c70.667 0 169.667 114.667 297 344
c104.667 191.333 157 348.333 157 471c0 27.333 -4.66699 50.333 -14 69c55.333 19.333 114 29 176 29c83.333 -5.33301 125 -42.333 125 -111zM935 1261c-20.667 -6.66699 -39.666 -8.66602 -56.999 -5.99902c-122.667 24.667 -229.667 61.667 -321 111
c-90 48.667 -135 93.667 -135 135c0 29.333 24.667 56.666 74 81.999c54 28 109.667 37.667 167 29l39 -58c15.333 -22.667 28.666 -41.667 39.999 -57c31.333 -42 64.333 -77.333 99 -106l112 -83c8.66699 -8 13 -14 13 -18c0 -11.333 -10.333 -21 -31 -29z" />
    <glyph glyph-name="glyph217" unicode="&#xfa;" horiz-adv-x="1206" 
d="M1212 1001c0 -38 -8.66699 -89.002 -26 -153.002l-37 -131c-2 -6.66699 -4 -13 -6 -19c-16.667 -58.667 -29.667 -106.667 -39 -144c-26 -106 -39 -190.333 -39 -253c0 -18.667 2.33301 -36 7 -52c4 -12.667 9 -24.667 15 -36c13.333 2.66699 32 13.667 56 33
c17.333 13.333 40.333 33.333 69 60l33 31l29 26c19.333 17.333 31.333 26 36 26c8.66699 0 13 -6 13 -18c0 -74 -42.333 -154.667 -127 -242c-85.333 -87.333 -164.666 -131 -237.999 -131c-121.333 0 -182 73 -182 219c0 25.333 1.66699 51.666 5 78.999
c2.66699 18.667 7 45 13 79c-160.667 -263.333 -319.667 -395 -477 -395c-68.667 0 -117.334 22 -146.001 66c-21.333 33.333 -32 81.333 -32 144c0 36 7.66699 91.667 23 167l101 444c15.333 74.667 23 129.334 23 164.001c0 44 -6.66699 78.667 -20 104
c74 28.667 141 43 201 43c78.667 0 118 -37.667 118 -113c0 -17.333 -2.33301 -38.666 -7 -63.999l-78 -335c-2 -8 -4 -15.333 -6 -22l-20 -85c-28 -119.333 -42 -199.666 -42 -240.999c0 -35.333 13 -53 39 -53c70.667 0 169.667 114.667 297 344
c104.667 191.333 157 348.333 157 471c0 27.333 -4.66699 50.333 -14 69c55.333 19.333 114 29 176 29c83.333 -5.33301 125 -42.333 125 -111zM633 1261c19.333 -6.66699 37.666 -8.66602 54.999 -5.99902c129.333 23.333 245.333 63.666 348 120.999
c84.667 40.667 127 82.334 127 125.001c0 70 -77 105 -231 105c-45.333 -60 -89.666 -110.667 -132.999 -152c-52 -50.667 -113 -98.334 -183 -143.001c-9.33301 -6 -14 -13 -14 -21c0 -11.333 10.333 -21 31 -29z" />
    <glyph glyph-name="glyph234" unicode="&#xfd;" horiz-adv-x="1044" 
d="M-157 -311c0 36.667 12.333 81.002 37 133.002c24.667 -22 58.667 -33 102 -33c60.667 0 122.667 23 186 69c56.667 42 110 99 160 171c12.667 17.333 19 48.666 19 93.999c0 16 -1 33.667 -3 53l-5 49c-60 482 -127.667 752.333 -203 811c84 50.667 161 76 231 76
c80 0 128 -56 144 -168c31.333 -214.667 55 -436.334 71 -665.001c105.333 148 188.333 283.667 249 407c64.667 130.667 97 231.667 97 303c0 53.333 -15.667 97 -47 131c24.667 4 50 6 76 6c143.333 0 215 -46.333 215 -139c0 -64 -49 -179 -147 -345
c-97.333 -164.667 -227.666 -354.667 -390.999 -570c-142 -188 -266.333 -322 -373 -402c-90.667 -68 -177.334 -102 -260.001 -102c-92 0 -144 32.667 -156 98c-1.33301 4 -2 11.667 -2 23zM615 1261c19.333 -6.66699 37.667 -8.66602 55 -5.99902
c130 23.333 246.333 63.666 349 120.999c84.667 40.667 127 82.334 127 125.001c0 70 -77.333 105 -232 105c-45.333 -60 -89.333 -110.667 -132 -152c-52 -50.667 -113 -98.334 -183 -143.001c-10 -6 -15 -13 -15 -21c0 -11.333 10.333 -21 31 -29z" />
    <glyph glyph-name="Abreve" unicode="&#x102;" horiz-adv-x="1318" 
d="M64 -29c-69.333 0 -103.998 24 -103.998 72c0 29.333 11 65 33 107l120 214l134 231l485 818l70 123c76 56.667 161.333 80 256 70c57.333 -6.66699 88 -55.334 92 -146.001l3 -220c0 -7.33301 0.333008 -15.333 1 -24l33 -628c8.66699 -136 23 -250 43 -342
c20.667 -98.667 52.667 -167.667 96 -207c-76.667 -53.333 -161.334 -76 -254.001 -68c-74 6.66699 -119.667 73.667 -137 201c-7.33301 46 -14 102 -20 168l-13 168c-24 -19.333 -55.333 -29 -94 -29c-112.667 -4 -223.334 -6 -332.001 -6
c-42.667 -22 -74.667 -53.333 -96 -94c-12.667 -18 -27.667 -44 -45 -78l-32 -66l-9 -20c-18 -44 -30 -78.333 -36 -103c-9.33301 -39.333 -10.333 -74.666 -3 -105.999c-63.333 -23.333 -127 -35 -191 -35zM845.002 647c8 0 17.001 0.666992 27.001 2l24 4
c-2.66699 226.667 -12.334 446.667 -29.001 660l-358 -666h336zM1262 1794c-78.667 -50.667 -156.668 -76 -234.001 -76c-183.333 0 -284.333 69.667 -303 209c0 27.333 6.33301 52 19 74c16 27.333 38.333 41 67 41c8.66699 0 14.334 -0.666992 17.001 -2
c28 -100 101 -150 219 -150c132 0 222.667 49.333 272 148c4 1.33301 10.333 2 19 2c50 0 75 -19.333 75 -58c-18.667 -71.333 -69 -134 -151 -188z" />
    <glyph glyph-name="abreve" unicode="&#x103;" horiz-adv-x="1183" 
d="M1281 375c7.33301 0 11 -6.33008 11 -18.9971c0 -74.667 -42.333 -155.334 -127 -242.001s-163.334 -130 -236.001 -130c-121.333 0 -182 72.333 -182 217c0 62.667 3.33301 118 10 166c-154 -250.667 -300 -379 -438 -385h-23c-77.333 0 -134.666 27 -171.999 81
c-32.667 48 -49 117 -49 207c4 203.333 71.667 393.666 203 570.999c62 84.667 130.333 151 205 199c79.333 50.667 159 76 239 76c84 0 151 -19 201 -57c33.333 35.333 76.333 53 129 53c58 0 118.667 -16.333 182 -49c-18 -26.667 -39 -75.667 -63 -147
c-22 -64.667 -44 -139.334 -66 -224.001c-48 -189.333 -72 -324.333 -72 -405c0 -10 1 -19.333 3 -28l20 -58c23.333 4 56.666 27.667 99.999 71c62.667 68.667 104.334 103 125.001 103zM768 624.003c41.333 80 74 153.333 98 220c-21.333 79.333 -76 119 -164 119
c-78.667 0 -154 -76.667 -226 -230c-68 -146.667 -102 -290 -102 -430c4 -70.667 26.667 -106 68 -106c38 0 99.333 62.667 184 188c50 72 97.333 151.667 142 239zM1161 1312c-78 -50.667 -155.668 -76 -233.001 -76c-184 0 -285.333 69.667 -304 209
c0 27.333 6.66699 52 20 74c16 27.333 38 41 66 41c8.66699 0 14.334 -0.666992 17.001 -2c28 -100 101 -150 219 -150c132.667 0 223.334 49.333 272.001 148c4.66699 1.33301 11 2 19 2c50.667 0 76 -19.333 76 -58c-18.667 -71.333 -69.334 -134 -152.001 -188z" />
    <glyph glyph-name="Ccaron" unicode="&#x10c;" horiz-adv-x="1274" 
 />
    <glyph glyph-name="ccaron" unicode="&#x10d;" horiz-adv-x="922" 
 />
    <glyph glyph-name="Dslash" unicode="&#x110;" 
d="M1317 1476c110 -93.333 165.001 -234.335 165.001 -423.002c0 -142 -26 -280.333 -78 -415c-50 -128.667 -120 -243.667 -210 -345c-190 -216 -409.333 -324 -658 -324c-148 0 -281 44.333 -399 133c-1.33301 14.667 2 41.334 10 80.001l62 267l65 266h-68
c-46.667 0 -81.334 -3.33301 -104.001 -10c13.333 58.667 27.333 99.334 42 122.001c21.333 31.333 53 47 95 47l72 -2l43 192c14.667 66.667 25.667 121.667 33 165c4 20.667 6 37 6 49c0 22 -10.333 38.667 -31 50s-31 23.333 -31 36c0 58 15.667 110 47 156
c70 26 146 46.667 228 62c90.667 17.333 178 26 262 26c196 0 345.667 -44 449 -132zM1026 421.998c99.333 170 148.995 361.667 148.995 575c0 285.333 -115.333 428 -346 428c-45.333 0 -98.666 -6.66699 -159.999 -20c10 -28.667 15 -60 15 -94
c0 -35.333 -7.66699 -94 -23 -176c-12 -64 -30.333 -151.667 -55 -263h59c96 0 176.667 6.33301 242 19c-13.333 -86 -40.666 -138.667 -81.999 -158c-20 -9.33301 -48.333 -15 -85 -17c-15.333 -0.666992 -34.666 -1 -57.999 -1h-113l-80 -350
c-8.66699 -37.333 -16 -70.333 -22 -99c16.667 -73.333 79.334 -110 188.001 -110c142.667 0 266.334 88.667 371.001 266z" />
    <glyph glyph-name="dcroat" unicode="&#x111;" horiz-adv-x="1185" 
d="M869 813c-16 90 -70.335 135 -163.002 135c-80.667 0 -156.667 -71 -228 -213c-69.333 -138.667 -104 -282.667 -104 -432c4 -70.667 25.667 -106 65 -106c56.667 0 139.334 90 248.001 270c66.667 108 127.334 223.333 182.001 346zM1234 1180l-27.998 -118.001
l-37 -146l-65 -257c-20.667 -85.333 -35.667 -154.666 -45 -207.999c-12 -63.333 -18 -115.333 -18 -156c0 -18.667 2.66699 -36 8 -52c2 -6 4.33301 -12.333 7 -19l8 -15c20.667 4 54 28 100 72c62.667 68 103.667 102 123 102c8 0 12 -6 12 -18c0 -76 -42 -157 -126 -243
c-84.667 -85.333 -163.334 -128 -236.001 -128c-122.667 0 -184 74.333 -184 223c0 50.667 4 103.334 12 158.001c-80.667 -132.667 -164.334 -233 -251.001 -301c-79.333 -61.333 -156 -92 -230 -92c-138 0 -207 90.667 -207 272c0 200 64.333 390 193 570
c62 86 130.667 153.667 206 203c81.333 52.667 164 79 248 79c66.667 0 132.334 -17.667 197.001 -53c10.667 42.667 19.667 83 27 121h-23c-106 0 -184 -6.33301 -234 -19l12 56c5.33301 25.333 10.666 45.666 15.999 60.999c10 26.667 31.333 45 64 55
c27.333 2 52.666 3 75.999 3l108 -2c0.666992 14 1 27.333 1 40c0 38 -7 68 -21 90c72 41.333 141.667 62 209 62c76.667 0 115 -38.333 115 -115c0 -24 -2 -49.667 -6 -77c60.667 3.33301 106 9.33301 136 18c-13.333 -86.667 -44.666 -138.667 -93.999 -156
c-22 -4 -46.333 -7.33301 -73 -10z" />
    <glyph glyph-name="Itilde" unicode="&#x128;" horiz-adv-x="634" 
d="M284 696c35.333 151.333 65.333 284.667 90 400c20.667 94 33 176.333 37 247l1 34c0 12.667 -1 23.667 -3 33c-6 23.333 -21 40 -45 50c-9.33301 2 -16.333 9 -21 21l-3 19c0 2 3.33301 5 10 9c88 52 174.667 78 260 78c50 0 86 -13.667 108 -41
c22.667 -25.333 29.667 -64 21 -116l-180 -765l-54 -255c-10 -52 -17 -90.667 -21 -116c-6.66699 -38.667 -10 -70.334 -10 -95.001c0 -54 16 -104 48 -150c0 -20 -34.667 -39 -104 -57c-58.667 -15.333 -106.667 -23 -144 -23c-78 0 -117 43.667 -117 131
c0 46.667 10.333 112.334 31 197.001zM1066 1789c-40.667 -46.667 -89.333 -70.0029 -146 -70.0029c-46 0 -116.667 25.667 -212 77c-82.667 46.667 -141.667 70 -177 70h-12l-13 -3c-38.667 -11.333 -66.334 -50.666 -83.001 -117.999l-13 -32
c-1.33301 -1.33301 -3.33301 -2 -6 -2c-14 0 -27.333 5 -40 15c-13.333 11.333 -20 22.333 -20 33l5 51c14 61.333 39.333 112.333 76 153c38.667 40 84.667 60 138 60c27.333 0.666992 60.333 -6.33301 99 -21c28 -10.667 66.667 -28.667 116 -54
c88.667 -45.333 150 -68 184 -68l21 3c40.667 10.667 69 51.667 85 123l9 29c1.33301 0.666992 3.33301 1 6 1c4 0 11 -1.66699 21 -5c27.333 -13.333 41 -36.666 41 -69.999c-9.33301 -69.333 -35.666 -126.666 -78.999 -171.999z" />
    <glyph glyph-name="itilde" unicode="&#x129;" horiz-adv-x="606" 
d="M442 203c-6.66699 11.333 -11.667 22.998 -15 34.998c-5.33301 16.667 -8 34.334 -8 53.001c0 75.333 10.333 158 31 248l80 301c6.66699 24.667 14.334 58.667 23.001 102c8 44.667 -0.333008 80.334 -25 107.001c-20 21.333 -54 32 -102 32
c-59.333 0 -127.666 -14.333 -204.999 -43c20 -30.667 30 -64.667 30 -102c0 -39.333 -3.33301 -76.333 -10 -111l-10 -55c-0.666992 -3.33301 -1 -6.33301 -1 -9l-15 -78c-12.667 -66.667 -26.334 -125.667 -41.001 -177c-18.667 -68 -31.334 -136.667 -38.001 -206
c-4.66699 -52.667 -5.66699 -94 -3 -124c8 -125.333 68.667 -188 182 -188c54 0 115 26.667 183 80c69.333 54 118.333 114 147 180c21.333 51.333 32 88 32 110c0 42.667 -45 14.667 -135 -84c-46 -43.333 -79.333 -67 -100 -71zM825 1317
c-40.667 -46.667 -89.335 -70.0029 -146.002 -70.0029c-46 0 -116.333 25.667 -211 77c-83.333 46.667 -142.666 70 -177.999 70h-11l-13 -3c-38.667 -11.333 -66.667 -50.666 -84 -117.999l-13 -32c-1.33301 -1.33301 -3.33301 -2 -6 -2c-13.333 0 -26.333 5 -39 15
c-14 11.333 -21 22.333 -21 33l6 51c13.333 61.333 38.333 112.333 75 153c38.667 40 84.667 60 138 60c28 0.666992 61 -6.33301 99 -21c28.667 -10.667 67.667 -28.667 117 -54c88.667 -45.333 149.667 -68 183 -68l21 3c40.667 10.667 69 51.667 85 123l9 29
c1.33301 0.666992 3.33301 1 6 1c4.66699 0 11.667 -1.66699 21 -5c27.333 -13.333 41 -36.666 41 -69.999c-9.33301 -69.333 -35.666 -126.666 -78.999 -171.999z" />
    <glyph glyph-name="Utilde" unicode="&#x168;" horiz-adv-x="1439" 
d="M1025 32c-13.333 29.333 -20.001 73.999 -20.001 133.999v72c0 4 -0.666992 5.33301 -2 4c-39.333 -45.333 -75.333 -83.666 -108 -114.999c-39.333 -36.667 -77.666 -67 -114.999 -91c-85.333 -55.333 -176 -83 -272 -83c-116 0 -202.333 38.667 -259 116
c-47.333 64 -71 149.667 -71 257c0 33.333 2 65.333 6 96c6.66699 50 21 124.667 43 224l96 425c11.333 49.333 20.666 92.333 27.999 129c18 88.667 28 151.667 30 189c0 33.333 -6 61.333 -18 84l-24 38c-2.66699 4.66699 -5 9 -7 13c27.333 23.333 70.333 41.333 129 54
c45.333 10 88.333 15 129 15c70.667 0 108 -30.667 112 -92c0 -38 -6.66699 -93.333 -20 -166c-11.333 -58.667 -28.333 -134.667 -51 -228l-30 -124l-60 -245l-25 -111c-13.333 -62 -23 -111.333 -29 -148c-8 -49.333 -12 -91 -12 -125c0 -125.333 49 -188 147 -188
c94.667 0 191.667 58.667 291 176c26.667 36 51.334 84 74.001 144c18 46.667 37 107.334 57 182.001c37.333 134.667 73 274.667 107 420c37.333 163.333 62 286.666 74 369.999c0.666992 7.33301 0.333984 14.333 -0.999023 21l-4 20
c-5.33301 37.333 11.667 63.666 51 78.999c28 10 69.333 15 124 15c66 0 110 -5 132 -15c20.667 -10 31 -30 31 -60c-0.666992 -17.333 -5.66699 -40.666 -15 -69.999c-1.33301 -4.66699 -3.33301 -11 -6 -19l-2 -5l-20 -60l-79 -277
c-28 -102.667 -51.667 -196.667 -71 -282c-22.667 -98 -39.667 -185.333 -51 -262c-13.333 -85.333 -20 -157.666 -20 -216.999c0 -35.333 2 -66.333 6 -93c18 -105.333 45.333 -174 82 -206c-76.667 -54 -161.334 -76.667 -254.001 -68
c-50 5.33301 -84.333 29.666 -103 72.999zM1387 1789c-40.667 -46.667 -89 -70.0029 -145 -70.0029c-46.667 0 -117.334 25.667 -212.001 77c-83.333 46.667 -142.666 70 -177.999 70h-11l-13 -3c-38.667 -11.333 -66.334 -50.666 -83.001 -117.999l-14 -32
c-1.33301 -1.33301 -3 -2 -5 -2c-14 0 -27.333 5 -40 15c-14 11.333 -21 22.333 -21 33l6 51c13.333 61.333 38.333 112.333 75 153c38.667 40 84.667 60 138 60c28 0.666992 61.333 -6.33301 100 -21c28 -10.667 66.667 -28.667 116 -54
c88.667 -45.333 149.667 -68 183 -68l21 3c40.667 10.667 69 51.667 85 123l10 29c0.666992 0.666992 2.33398 1 5.00098 1c4.66699 0 11.667 -1.66699 21 -5c28 -13.333 42 -36.666 42 -69.999c-10 -69.333 -36.667 -126.666 -80 -171.999z" />
    <glyph glyph-name="utilde" unicode="&#x169;" horiz-adv-x="1206" 
d="M1212 1001c0 -38 -8.66699 -89.002 -26 -153.002l-37 -131c-2 -6.66699 -4 -13 -6 -19c-16.667 -58.667 -29.667 -106.667 -39 -144c-26 -106 -39 -190.333 -39 -253c0 -18.667 2.33301 -36 7 -52c4 -12.667 9 -24.667 15 -36c13.333 2.66699 32 13.667 56 33
c17.333 13.333 40.333 33.333 69 60l33 31l29 26c19.333 17.333 31.333 26 36 26c8.66699 0 13 -6 13 -18c0 -74 -42.333 -154.667 -127 -242c-85.333 -87.333 -164.666 -131 -237.999 -131c-121.333 0 -182 73 -182 219c0 25.333 1.66699 51.666 5 78.999
c2.66699 18.667 7 45 13 79c-160.667 -263.333 -319.667 -395 -477 -395c-68.667 0 -117.334 22 -146.001 66c-21.333 33.333 -32 81.333 -32 144c0 36 7.66699 91.667 23 167l101 444c15.333 74.667 23 129.334 23 164.001c0 44 -6.66699 78.667 -20 104
c74 28.667 141 43 201 43c78.667 0 118 -37.667 118 -113c0 -17.333 -2.33301 -38.666 -7 -63.999l-78 -335c-2 -8 -4 -15.333 -6 -22l-20 -85c-28 -119.333 -42 -199.666 -42 -240.999c0 -35.333 13 -53 39 -53c70.667 0 169.667 114.667 297 344
c104.667 191.333 157 348.333 157 471c0 27.333 -4.66699 50.333 -14 69c55.333 19.333 114 29 176 29c83.333 -5.33301 125 -42.333 125 -111zM1205 1317c-40.667 -46.667 -88.999 -70.0029 -144.999 -70.0029c-46.667 0 -117.334 25.667 -212.001 77
c-83.333 46.667 -142.666 70 -177.999 70h-11l-13 -3c-38.667 -11.333 -66.334 -50.666 -83.001 -117.999l-14 -32c-1.33301 -1.33301 -3 -2 -5 -2c-14 0 -27.333 5 -40 15c-14 11.333 -21 22.333 -21 33l6 51c13.333 61.333 38.333 112.333 75 153
c38.667 40 84.667 60 138 60c28 0.666992 61.333 -6.33301 100 -21c28 -10.667 66.667 -28.667 116 -54c88.667 -45.333 149.667 -68 183 -68l21 3c40.667 10.667 69 51.667 85 123l9 29c1.33301 0.666992 3.33301 1 6 1c4.66699 0 11.667 -1.66699 21 -5
c28 -13.333 42 -36.666 42 -69.999c-10 -69.333 -36.667 -126.666 -80 -171.999z" />
    <glyph glyph-name="Ohorn" unicode="&#x1a0;" 
d="M1490 1085c0 -274.667 -84.668 -528.666 -254.001 -761.999c-83.333 -114.667 -177.333 -204 -282 -268c-113.333 -69.333 -230.666 -104 -351.999 -104c-300.667 0 -451 174.667 -451 524c0 282 82.667 538 248 768c82 113.333 175 201.666 279 264.999
c112 68 230 102 354 102c305.333 0 458 -175 458 -525zM905.999 252.001c57.333 66 108.332 153.002 152.999 261.002c39.333 96 70.333 199.333 93 310c20.667 102.667 31 195 31 277c0 104 -17.667 184.667 -53 242c-38.667 64 -96.667 96 -174 96
c-60.667 0 -121.667 -31.333 -183 -94c-56.667 -56.667 -108.667 -134.334 -156 -233.001c-99.333 -205.333 -149 -407 -149 -605c0 -124.667 17.333 -220.334 52 -287.001c38.667 -76 97.334 -108 176.001 -96c74.667 11.333 144.667 54.333 210 129zM1259 1289
c-18 11.333 -27 26 -27 44c0 4 0.666992 8.33301 2 13l5 12c143.333 24.667 215 94 215 208c0 36 -14.667 74.667 -44 116c46 44 107.333 66 184 66c74 0 111 -32.667 111 -98c0 -80 -43 -159.333 -129 -238c-40.667 -36 -84.334 -66.667 -131.001 -92
c-55.333 -30 -103.666 -45 -144.999 -45c-13.333 0 -27 4.66699 -41 14z" />
    <glyph glyph-name="ohorn" unicode="&#x1a1;" horiz-adv-x="1095" 
d="M702 967c-42.667 0 -83.668 -21.668 -123.001 -65.001c-35.333 -39.333 -67 -93 -95 -161c-55.333 -133.333 -83 -267.666 -83 -402.999c0 -139.333 45.333 -209 136 -209c42.667 0 83.334 21.667 122.001 65c34.667 38 66 91 94 159c54 132 81 265.667 81 401
c0 142 -44 213 -132 213zM1113 903.999c17.333 -44 26 -94 26 -150c0 -197.333 -65 -374.666 -195 -531.999c-134 -161.333 -290.333 -242 -469 -242c-113.333 0 -204 33.667 -272 101c-68.667 68.667 -103 161.667 -103 279c0 196.667 66.333 373 199 529
c137.333 152.667 292.333 229 465 229c112.667 0 203 -32.333 271 -97c9.33301 -9.33301 18.333 -19 27 -29c36 31.333 54 74 54 128c0 32 -12.667 66.667 -38 104c40.667 38.667 95 58 163 58c66 0 99 -29 99 -87c0 -70.667 -38.333 -141 -115 -211
c-34.667 -30.667 -72 -57.334 -112 -80.001z" />
    <glyph glyph-name="Uhorn" unicode="&#x1af;" horiz-adv-x="1439" 
d="M1492 1282c-107.333 -370.667 -172.665 -682.001 -195.998 -934.001l-4 -59c0 -74 25.333 -126.667 76 -158c16.667 -19.333 25 -36.333 25 -51c-94 -72.667 -183.667 -109 -269 -109c-82 0 -123 63.667 -123 191l5 76c0 2.66699 -0.666992 4 -2 4
c-10 -11.333 -25.333 -27 -46 -47c-64 -76.667 -131.333 -135 -202 -175c-78.667 -44.667 -161.334 -67 -248.001 -67c-219.333 0 -330 124.333 -332 373c0 13.333 1 29 3 47l5 49c14 106.667 46.333 256.667 97 450c18.667 73.333 34 137 46 191
c14.667 62.667 25.667 116.667 33 162c11.333 60 18.333 114.667 21 164c0 46.667 -9.66699 78.667 -29 96l-20 39c15.333 13.333 34.333 23.333 57 30c74 26 141 39 201 39c71.333 0 108.666 -30.667 111.999 -92c0 -29.333 -10.667 -97.666 -32 -204.999l-37 -168
l-79 -334l-38 -167c-16.667 -77.333 -29 -145.666 -37 -204.999l-4 -68c0 -105.333 35.667 -166 107 -182c14 -4 27.667 -6 41 -6c15.333 0 30.333 2 45 6c80 15.333 161.667 72 245 170c49.333 96 93 204.667 131 326c18.667 67.333 39.334 146.666 62.001 237.999l59 253
c28.667 119.333 48.667 219 60 299l-4 41c42 62.667 100 94 174 94h32l37 -4c63.333 -3.33301 95 -23.666 95 -60.999v-10l-27 -98c42 35.333 63 84 63 146c0 36 -14.333 74.667 -43 116c46 44 107.333 66 184 66c74 0 111 -32.667 111 -98
c0 -80 -43.333 -159.333 -130 -238c-40.667 -36 -84 -66.667 -130 -92c-34.667 -18.667 -66.334 -31.334 -95.001 -38.001z" />
    <glyph glyph-name="uhorn" unicode="&#x1b0;" horiz-adv-x="1206" 
d="M1179 822l-30.001 -105.002c-2 -6.66699 -3.66699 -13 -5 -19c-16.667 -58.667 -29.667 -106.667 -39 -144c-26.667 -106 -40 -190.333 -40 -253c0 -18.667 2.33301 -36 7 -52c4 -12.667 9 -24.667 15 -36c13.333 2.66699 32 13.667 56 33c18 13.333 41 33.333 69 60
l33 31l29 26c19.333 17.333 31.666 26 36.999 26c8 0 12 -6 12 -18c0 -74 -42.333 -154.667 -127 -242s-164 -131 -238 -131c-121.333 0 -182 73 -182 219c0 25.333 2 51.666 6 78.999c2 18.667 6.33301 45 13 79c-161.333 -263.333 -320.666 -395 -477.999 -395
c-68.667 0 -117 22 -145 66c-22 33.333 -33 81.333 -33 144c0 36 7.66699 91.667 23 167l102 444c15.333 74.667 23 129.334 23 164.001c0 44 -7 78.667 -21 104c74 28.667 141 43 201 43c79.333 0 119 -37.667 119 -113c0 -17.333 -2.33301 -38.666 -7 -63.999l-79 -335
c-2 -8 -4 -15.333 -6 -22l-20 -85c-28 -119.333 -42 -199.666 -42 -240.999c0 -35.333 13 -53 39 -53c70.667 0 169.667 114.667 297 344c105.333 191.333 158 348.333 158 471c0 27.333 -5 50.333 -15 69c55.333 19.333 114 29 176 29
c83.333 -5.33301 125 -42.333 125 -111c0 -16 -1.33301 -34 -4 -54c32 31.333 48 72.333 48 123c0 32 -12.667 66.667 -38 104c40.667 38.667 95 58 163 58c66 0 99 -29 99 -87c0 -70.667 -38.333 -141 -115 -211c-36 -32 -74.667 -59.333 -116 -82
c-25.333 -13.333 -48.666 -23.333 -69.999 -30z" />
    <glyph glyph-name="uni1EA0" unicode="&#x1ea0;" horiz-adv-x="1318" 
d="M473 -314c0 18 1.33301 35.333 4 52l8 40c0.666992 2.66699 1.66699 5.66699 3 9l2 8c2 6 3.33301 11 4 15c2.66699 10.667 4 20 4 28c57.333 28.667 108.333 43 153 43c84.667 0 127 -35 127 -105c0 -30.667 -11.667 -75.667 -35 -135
c-54.667 -32.667 -109 -49 -163 -49c-71.333 0 -107 31.333 -107 94zM64 -29c-69.333 0 -103.998 24 -103.998 72c0 29.333 11 65 33 107l120 214l134 231l485 818l70 123c76 56.667 161.333 80 256 70c57.333 -6.66699 88 -55.334 92 -146.001l3 -220
c0 -7.33301 0.333008 -15.333 1 -24l33 -628c8.66699 -136 23 -250 43 -342c20.667 -98.667 52.667 -167.667 96 -207c-76.667 -53.333 -161.334 -76 -254.001 -68c-74 6.66699 -119.667 73.667 -137 201c-7.33301 46 -14 102 -20 168l-13 168
c-24 -19.333 -55.333 -29 -94 -29c-112.667 -4 -223.334 -6 -332.001 -6c-42.667 -22 -74.667 -53.333 -96 -94c-12.667 -18 -27.667 -44 -45 -78l-32 -66l-9 -20c-18 -44 -30 -78.333 -36 -103c-9.33301 -39.333 -10.333 -74.666 -3 -105.999
c-63.333 -23.333 -127 -35 -191 -35zM845.002 647c8 0 17.001 0.666992 27.001 2l24 4c-2.66699 226.667 -12.334 446.667 -29.001 660l-358 -666h336z" />
    <glyph glyph-name="uni1EA1" unicode="&#x1ea1;" horiz-adv-x="1183" 
d="M1281 375c7.33301 0 11 -6.33008 11 -18.9971c0 -74.667 -42.333 -155.334 -127 -242.001s-163.334 -130 -236.001 -130c-121.333 0 -182 72.333 -182 217c0 62.667 3.33301 118 10 166c-154 -250.667 -300 -379 -438 -385h-23c-77.333 0 -134.666 27 -171.999 81
c-32.667 48 -49 117 -49 207c4 203.333 71.667 393.666 203 570.999c62 84.667 130.333 151 205 199c79.333 50.667 159 76 239 76c84 0 151 -19 201 -57c33.333 35.333 76.333 53 129 53c58 0 118.667 -16.333 182 -49c-18 -26.667 -39 -75.667 -63 -147
c-22 -64.667 -44 -139.334 -66 -224.001c-48 -189.333 -72 -324.333 -72 -405c0 -10 1 -19.333 3 -28l20 -58c23.333 4 56.666 27.667 99.999 71c62.667 68.667 104.334 103 125.001 103zM768 624.003c41.333 80 74 153.333 98 220c-21.333 79.333 -76 119 -164 119
c-78.667 0 -154 -76.667 -226 -230c-68 -146.667 -102 -290 -102 -430c4 -70.667 26.667 -106 68 -106c38 0 99.333 62.667 184 188c50 72 97.333 151.667 142 239zM391 -313.997c0 18 1.33301 35.333 4 52l9 40c0.666992 2.66699 1.33398 5.66699 2.00098 9l2 8
c2 6 3.33301 11 4 15c2.66699 10.667 4 20 4 28c57.333 28.667 108.666 43 153.999 43c84.667 0 127 -35 127 -105c0 -30.667 -11.667 -75.667 -35 -135c-55.333 -32.667 -110 -49 -164 -49c-71.333 0 -107 31.333 -107 94z" />
    <glyph glyph-name="uni1EA2" unicode="&#x1ea2;" horiz-adv-x="1318" 
d="M64 -29c-69.333 0 -103.998 24 -103.998 72c0 29.333 11 65 33 107l120 214l134 231l485 818l70 123c76 56.667 161.333 80 256 70c57.333 -6.66699 88 -55.334 92 -146.001l3 -220c0 -7.33301 0.333008 -15.333 1 -24l33 -628c8.66699 -136 23 -250 43 -342
c20.667 -98.667 52.667 -167.667 96 -207c-76.667 -53.333 -161.334 -76 -254.001 -68c-74 6.66699 -119.667 73.667 -137 201c-7.33301 46 -14 102 -20 168l-13 168c-24 -19.333 -55.333 -29 -94 -29c-112.667 -4 -223.334 -6 -332.001 -6
c-42.667 -22 -74.667 -53.333 -96 -94c-12.667 -18 -27.667 -44 -45 -78l-32 -66l-9 -20c-18 -44 -30 -78.333 -36 -103c-9.33301 -39.333 -10.333 -74.666 -3 -105.999c-63.333 -23.333 -127 -35 -191 -35zM845.002 647c8 0 17.001 0.666992 27.001 2l24 4
c-2.66699 226.667 -12.334 446.667 -29.001 660l-358 -666h336zM1318 2167c45.333 -22 69.668 -55.999 73.001 -101.999c3.33301 -43.333 -16.667 -84.666 -60 -123.999c-16 -12.667 -38 -28.334 -66 -47.001l-66 -44c-22 -15.333 -38.667 -29 -50 -41
c-10 -10.667 -14.667 -20.667 -14 -30c1.33301 -10.667 9.33301 -25.334 24 -44.001c-42 -25.333 -79.667 -39.333 -113 -42c-24.667 -2 -45.334 4.33301 -62.001 19c-15.333 13.333 -23.666 27 -24.999 41c-2 30.667 12 57.667 42 81l11 7l79 52l38 28
c24 19.333 43.333 39.333 58 60s21 41 19 61c-2.66699 33.333 -27.334 48.333 -74.001 45c-43.333 -4 -72.333 -24 -87 -60c-11.333 -12.667 -26.666 -21.667 -45.999 -27c-42.667 18.667 -64.667 38.667 -66 60c-2.66699 33.333 23.666 62.666 78.999 88
c44 20 95 32.667 153 38c65.333 4.66699 116.333 -1.66602 153 -19z" />
    <glyph glyph-name="uni1EA3" unicode="&#x1ea3;" horiz-adv-x="1183" 
d="M1281 375c7.33301 0 11 -6.33008 11 -18.9971c0 -74.667 -42.333 -155.334 -127 -242.001s-163.334 -130 -236.001 -130c-121.333 0 -182 72.333 -182 217c0 62.667 3.33301 118 10 166c-154 -250.667 -300 -379 -438 -385h-23c-77.333 0 -134.666 27 -171.999 81
c-32.667 48 -49 117 -49 207c4 203.333 71.667 393.666 203 570.999c62 84.667 130.333 151 205 199c79.333 50.667 159 76 239 76c84 0 151 -19 201 -57c33.333 35.333 76.333 53 129 53c58 0 118.667 -16.333 182 -49c-18 -26.667 -39 -75.667 -63 -147
c-22 -64.667 -44 -139.334 -66 -224.001c-48 -189.333 -72 -324.333 -72 -405c0 -10 1 -19.333 3 -28l20 -58c23.333 4 56.666 27.667 99.999 71c62.667 68.667 104.334 103 125.001 103zM768 624.003c41.333 80 74 153.333 98 220c-21.333 79.333 -76 119 -164 119
c-78.667 0 -154 -76.667 -226 -230c-68 -146.667 -102 -290 -102 -430c4 -70.667 26.667 -106 68 -106c38 0 99.333 62.667 184 188c50 72 97.333 151.667 142 239zM1137 1675c44.667 -22 68.6689 -55.998 72.002 -101.998c4 -43.333 -16 -84.666 -60 -123.999
c-16 -12.667 -38 -28.334 -66 -47.001l-66 -44c-22 -15.333 -38.667 -29 -50 -41c-10 -10.667 -14.667 -20.667 -14 -30c1.33301 -10.667 9.33301 -25.334 24 -44.001c-42 -25.333 -79.667 -39.333 -113 -42c-24.667 -2 -45 4.33301 -61 19c-16 13.333 -24.333 27 -25 41
c-2.66699 30.667 11 57.667 41 81l11 7l79 52c13.333 9.33301 26 18.666 38 27.999c24 19.333 43.333 39.333 58 60s21 41 19 61c-2.66699 33.333 -27.334 48.333 -74.001 45c-43.333 -4 -72.333 -24 -87 -60c-10.667 -12.667 -25.667 -21.667 -45 -27
c-42.667 18.667 -65 38.667 -67 60c-2.66699 33.333 23.666 62.666 78.999 87.999c44 20 95.333 32.667 154 38c64.667 4.66699 115.667 -1.66602 153 -18.999z" />
    <glyph glyph-name="uni1EA4" unicode="&#x1ea4;" horiz-adv-x="1318" 
d="M64 -29c-69.333 0 -103.998 24 -103.998 72c0 29.333 11 65 33 107l120 214l134 231l485 818l70 123c76 56.667 161.333 80 256 70c57.333 -6.66699 88 -55.334 92 -146.001l3 -220c0 -7.33301 0.333008 -15.333 1 -24l33 -628c8.66699 -136 23 -250 43 -342
c20.667 -98.667 52.667 -167.667 96 -207c-76.667 -53.333 -161.334 -76 -254.001 -68c-74 6.66699 -119.667 73.667 -137 201c-7.33301 46 -14 102 -20 168l-13 168c-24 -19.333 -55.333 -29 -94 -29c-112.667 -4 -223.334 -6 -332.001 -6
c-42.667 -22 -74.667 -53.333 -96 -94c-12.667 -18 -27.667 -44 -45 -78l-32 -66l-9 -20c-18 -44 -30 -78.333 -36 -103c-9.33301 -39.333 -10.333 -74.666 -3 -105.999c-63.333 -23.333 -127 -35 -191 -35zM845.002 647c8 0 17.001 0.666992 27.001 2l24 4
c-2.66699 226.667 -12.334 446.667 -29.001 660l-358 -666h336zM1269 1984c0 7.33301 4.66699 14 14 20c70 45.333 131 93 183 143c43.333 41.333 87.666 92 132.999 152c154 0 231 -34.667 231 -104c0 -43.333 -42.333 -85 -127 -125
c-102.667 -58 -218.667 -98.333 -348 -121c-17.333 -3.33301 -35.666 -1.33301 -54.999 6c-20.667 7.33301 -31 17 -31 29zM1320 1708c-8.66699 -2.66699 -17.667 -4.33301 -27 -5l-14 -1c-54.667 0 -131 54 -229 162c-142.667 -108 -252 -162 -328 -162
c-39.333 0 -59 10.333 -59 31l161 139c146 126.667 247.333 190 304 190c20 0 36.333 -4 49 -12c38.667 -109.333 107 -210.333 205 -303c-16 -19.333 -36.667 -32.333 -62 -39z" />
    <glyph glyph-name="uni1EA5" unicode="&#x1ea5;" horiz-adv-x="1183" 
d="M1281 375c7.33301 0 11 -6.33008 11 -18.9971c0 -74.667 -42.333 -155.334 -127 -242.001s-163.334 -130 -236.001 -130c-121.333 0 -182 72.333 -182 217c0 62.667 3.33301 118 10 166c-154 -250.667 -300 -379 -438 -385h-23c-77.333 0 -134.666 27 -171.999 81
c-32.667 48 -49 117 -49 207c4 203.333 71.667 393.666 203 570.999c62 84.667 130.333 151 205 199c79.333 50.667 159 76 239 76c84 0 151 -19 201 -57c33.333 35.333 76.333 53 129 53c58 0 118.667 -16.333 182 -49c-18 -26.667 -39 -75.667 -63 -147
c-22 -64.667 -44 -139.334 -66 -224.001c-48 -189.333 -72 -324.333 -72 -405c0 -10 1 -19.333 3 -28l20 -58c23.333 4 56.666 27.667 99.999 71c62.667 68.667 104.334 103 125.001 103zM768 624.003c41.333 80 74 153.333 98 220c-21.333 79.333 -76 119 -164 119
c-78.667 0 -154 -76.667 -226 -230c-68 -146.667 -102 -290 -102 -430c4 -70.667 26.667 -106 68 -106c38 0 99.333 62.667 184 188c50 72 97.333 151.667 142 239zM1118 1531c0 8 4.99902 14.999 14.999 20.999c70 44.667 131 92.334 183 143.001
c42.667 41.333 86.667 92 132 152c154.667 0 232 -35 232 -105c0 -42.667 -42.333 -84.334 -127 -125.001c-102.667 -57.333 -219 -97.666 -349 -120.999c-17.333 -2.66699 -35.666 -0.666992 -54.999 6c-20.667 8 -31 17.667 -31 29zM1131 1263
c-8.66699 -2 -17.3311 -3.66797 -25.998 -5.00098l-14 -1c-54.667 0 -131.334 54 -230.001 162c-142 -108 -251 -162 -327 -162c-40 0 -60 10.333 -60 31l162 139c145.333 127.333 246.333 191 303 191c20.667 0 37 -4 49 -12
c39.333 -109.333 107.666 -210.333 204.999 -303c-15.333 -19.333 -36 -32.666 -62 -39.999z" />
    <glyph glyph-name="uni1EA6" unicode="&#x1ea6;" horiz-adv-x="1318" 
d="M1334 2078c-20 -7.33301 -38.666 -9.33301 -55.999 -6c-123.333 24 -230.333 60.667 -321 110s-136 94.666 -136 136c0 28.667 25 56 75 82c53.333 27.333 109 36.666 167 28l39 -58l39 -56c31.333 -42 64.666 -77.667 99.999 -107l112 -83c8.66699 -8 13 -13.667 13 -17
c0 -12 -10.667 -21.667 -32 -29zM64.001 -29c-69.333 0 -103.998 24 -103.998 72c0 29.333 11 65 33 107l120 214l134 231l485 818l70 123c76 56.667 161.333 80 256 70c57.333 -6.66699 88 -55.334 92 -146.001l3 -220c0 -7.33301 0.333008 -15.333 1 -24l33 -628
c8.66699 -136 23 -250 43 -342c20.667 -98.667 52.667 -167.667 96 -207c-76.667 -53.333 -161.334 -76 -254.001 -68c-74 6.66699 -119.667 73.667 -137 201c-7.33301 46 -14 102 -20 168l-13 168c-24 -19.333 -55.333 -29 -94 -29c-112.667 -4 -223.334 -6 -332.001 -6
c-42.667 -22 -74.667 -53.333 -96 -94c-12.667 -18 -27.667 -44 -45 -78l-32 -66l-9 -20c-18 -44 -30 -78.333 -36 -103c-9.33301 -39.333 -10.333 -74.666 -3 -105.999c-63.333 -23.333 -127 -35 -191 -35zM845.003 647c8 0 17.001 0.666992 27.001 2l24 4
c-2.66699 226.667 -12.334 446.667 -29.001 660l-358 -666h336zM1320 1708c-8.66699 -2.66699 -17.667 -4.33301 -27 -5l-14 -1c-54.667 0 -131 54 -229 162c-142.667 -108 -252 -162 -328 -162c-39.333 0 -59 10.333 -59 31l161 139c146 126.667 247.333 190 304 190
c20 0 36.333 -4 49 -12c38.667 -109.333 107 -210.333 205 -303c-16 -19.333 -36.667 -32.333 -62 -39z" />
    <glyph glyph-name="uni1EA7" unicode="&#x1ea7;" horiz-adv-x="1183" 
d="M1281 375c7.33301 0 11 -6.33008 11 -18.9971c0 -74.667 -42.333 -155.334 -127 -242.001s-163.334 -130 -236.001 -130c-121.333 0 -182 72.333 -182 217c0 62.667 3.33301 118 10 166c-154 -250.667 -300 -379 -438 -385h-23c-77.333 0 -134.666 27 -171.999 81
c-32.667 48 -49 117 -49 207c4 203.333 71.667 393.666 203 570.999c62 84.667 130.333 151 205 199c79.333 50.667 159 76 239 76c84 0 151 -19 201 -57c33.333 35.333 76.333 53 129 53c58 0 118.667 -16.333 182 -49c-18 -26.667 -39 -75.667 -63 -147
c-22 -64.667 -44 -139.334 -66 -224.001c-48 -189.333 -72 -324.333 -72 -405c0 -10 1 -19.333 3 -28l20 -58c23.333 4 56.666 27.667 99.999 71c62.667 68.667 104.334 103 125.001 103zM768 624.003c41.333 80 74 153.333 98 220c-21.333 79.333 -76 119 -164 119
c-78.667 0 -154 -76.667 -226 -230c-68 -146.667 -102 -290 -102 -430c4 -70.667 26.667 -106 68 -106c38 0 99.333 62.667 184 188c50 72 97.333 151.667 142 239zM1186 1624c-20 -6.66699 -38.665 -8.66602 -55.998 -5.99902
c-123.333 24.667 -230.666 61.667 -321.999 111c-90 48.667 -135 93.667 -135 135c0 29.333 25 56.666 75 81.999c53.333 28 108.666 37.667 165.999 29l39 -58c15.333 -22.667 28.666 -41.667 39.999 -57c31.333 -42 64.666 -77.333 99.999 -106l111 -83
c9.33301 -8 14 -14 14 -18c0 -11.333 -10.667 -21 -32 -29zM1131 1263c-8.66699 -2 -17.3311 -3.66797 -25.998 -5.00098l-14 -1c-54.667 0 -131.334 54 -230.001 162c-142 -108 -251 -162 -327 -162c-40 0 -60 10.333 -60 31l162 139c145.333 127.333 246.333 191 303 191
c20.667 0 37 -4 49 -12c39.333 -109.333 107.666 -210.333 204.999 -303c-15.333 -19.333 -36 -32.666 -62 -39.999z" />
    <glyph glyph-name="uni1EA8" unicode="&#x1ea8;" horiz-adv-x="1318" 
d="M64 -29c-69.333 0 -103.998 24 -103.998 72c0 29.333 11 65 33 107l120 214l134 231l485 818l70 123c76 56.667 161.333 80 256 70c57.333 -6.66699 88 -55.334 92 -146.001l3 -220c0 -7.33301 0.333008 -15.333 1 -24l33 -628c8.66699 -136 23 -250 43 -342
c20.667 -98.667 52.667 -167.667 96 -207c-76.667 -53.333 -161.334 -76 -254.001 -68c-74 6.66699 -119.667 73.667 -137 201c-7.33301 46 -14 102 -20 168l-13 168c-24 -19.333 -55.333 -29 -94 -29c-112.667 -4 -223.334 -6 -332.001 -6
c-42.667 -22 -74.667 -53.333 -96 -94c-12.667 -18 -27.667 -44 -45 -78l-32 -66l-9 -20c-18 -44 -30 -78.333 -36 -103c-9.33301 -39.333 -10.333 -74.666 -3 -105.999c-63.333 -23.333 -127 -35 -191 -35zM845.002 647c8 0 17.001 0.666992 27.001 2l24 4
c-2.66699 226.667 -12.334 446.667 -29.001 660l-358 -666h336zM1609 2418c45.333 -22 69.668 -56 73.001 -102c3.33301 -43.333 -16.667 -84.666 -60 -124c-16 -12.667 -38 -28.334 -66 -47l-66 -44c-22 -15.333 -38.667 -29 -50 -41c-10 -10.667 -14.667 -20.667 -14 -30
c1.33301 -10.667 9.33301 -25.334 24 -44.001c-42 -25.333 -79.667 -39.333 -113 -42c-24.667 -2 -45.334 4.33301 -62.001 19c-15.333 13.333 -23.666 27 -24.999 41c-2 30.667 12 57.667 42 81.001l11 7l79 52l38 28c24 19.333 43.333 39.333 58 60s21 41 19 61
c-2.66699 33.333 -27.334 48.333 -74.001 45c-43.333 -4 -72.333 -24 -87 -60c-11.333 -12.667 -26.666 -21.667 -45.999 -27c-42.667 18.667 -64.667 38.667 -66 60c-2.66699 33.333 23.666 62.666 78.999 88c44 20 95 32.667 153 38
c65.333 4.66699 116.333 -1.66602 153 -19zM1320 1708c-8.66699 -2.66699 -17.667 -4.33301 -27 -5l-14 -1c-54.667 0 -131 54 -229 162c-142.667 -108 -252 -162 -328 -162c-39.333 0 -59 10.333 -59 31l161 139c146 126.667 247.333 190 304 190c20 0 36.333 -4 49 -12
c38.667 -109.333 107 -210.333 205 -303c-16 -19.333 -36.667 -32.333 -62 -39z" />
    <glyph glyph-name="uni1EA9" unicode="&#x1ea9;" horiz-adv-x="1183" 
d="M1281 375c7.33301 0 11 -6.33008 11 -18.9971c0 -74.667 -42.333 -155.334 -127 -242.001s-163.334 -130 -236.001 -130c-121.333 0 -182 72.333 -182 217c0 62.667 3.33301 118 10 166c-154 -250.667 -300 -379 -438 -385h-23c-77.333 0 -134.666 27 -171.999 81
c-32.667 48 -49 117 -49 207c4 203.333 71.667 393.666 203 570.999c62 84.667 130.333 151 205 199c79.333 50.667 159 76 239 76c84 0 151 -19 201 -57c33.333 35.333 76.333 53 129 53c58 0 118.667 -16.333 182 -49c-18 -26.667 -39 -75.667 -63 -147
c-22 -64.667 -44 -139.334 -66 -224.001c-48 -189.333 -72 -324.333 -72 -405c0 -10 1 -19.333 3 -28l20 -58c23.333 4 56.666 27.667 99.999 71c62.667 68.667 104.334 103 125.001 103zM768 624.003c41.333 80 74 153.333 98 220c-21.333 79.333 -76 119 -164 119
c-78.667 0 -154 -76.667 -226 -230c-68 -146.667 -102 -290 -102 -430c4 -70.667 26.667 -106 68 -106c38 0 99.333 62.667 184 188c50 72 97.333 151.667 142 239zM1449 1956c44.667 -22 68.6689 -55.998 72.002 -101.998c4 -43.333 -16 -84.666 -60 -123.999
c-16 -12.667 -38 -28.334 -66 -47.001l-66 -44c-22 -15.333 -38.667 -29 -50 -41c-10 -10.667 -14.667 -20.667 -14 -30c1.33301 -10.667 9.33301 -25.334 24 -44.001c-42 -25.333 -79.667 -39.333 -113 -42c-24.667 -2 -45 4.33301 -61 19c-16 13.333 -24.333 27 -25 41
c-2.66699 30.667 11 57.667 41 81l11 7l79 52c13.333 9.33301 26 18.666 38 27.999c24 19.333 43.333 39.333 58 60s21 41 19 61c-2.66699 33.333 -27.334 48.333 -74.001 45c-43.333 -4 -72.333 -24 -87 -60c-10.667 -12.667 -25.667 -21.667 -45 -27
c-42.667 18.667 -65 38.667 -67 60c-2.66699 33.333 23.666 62.666 78.999 87.999c44 20 95.333 32.667 154 38c64.667 4.66699 115.667 -1.66602 153 -18.999zM1131 1263c-8.66699 -2 -17.3311 -3.66797 -25.998 -5.00098l-14 -1c-54.667 0 -131.334 54 -230.001 162
c-142 -108 -251 -162 -327 -162c-40 0 -60 10.333 -60 31l162 139c145.333 127.333 246.333 191 303 191c20.667 0 37 -4 49 -12c39.333 -109.333 107.666 -210.333 204.999 -303c-15.333 -19.333 -36 -32.666 -62 -39.999z" />
    <glyph glyph-name="uni1EAA" unicode="&#x1eaa;" horiz-adv-x="1318" 
d="M64 -29c-69.333 0 -103.998 24 -103.998 72c0 29.333 11 65 33 107l120 214l134 231l485 818l70 123c76 56.667 161.333 80 256 70c57.333 -6.66699 88 -55.334 92 -146.001l3 -220c0 -7.33301 0.333008 -15.333 1 -24l33 -628c8.66699 -136 23 -250 43 -342
c20.667 -98.667 52.667 -167.667 96 -207c-76.667 -53.333 -161.334 -76 -254.001 -68c-74 6.66699 -119.667 73.667 -137 201c-7.33301 46 -14 102 -20 168l-13 168c-24 -19.333 -55.333 -29 -94 -29c-112.667 -4 -223.334 -6 -332.001 -6
c-42.667 -22 -74.667 -53.333 -96 -94c-12.667 -18 -27.667 -44 -45 -78l-32 -66l-9 -20c-18 -44 -30 -78.333 -36 -103c-9.33301 -39.333 -10.333 -74.666 -3 -105.999c-63.333 -23.333 -127 -35 -191 -35zM845.002 647c8 0 17.001 0.666992 27.001 2l24 4
c-2.66699 226.667 -12.334 446.667 -29.001 660l-358 -666h336zM1517 2110c-40.667 -46.667 -88.9961 -70 -144.996 -70c-46.667 0 -117.334 25.667 -212.001 77c-82.667 46.667 -141.667 70 -177 70h-12l-13 -3c-38.667 -11.333 -66.334 -50.666 -83.001 -118l-13 -32
c-1.33301 -1.33301 -3.33301 -2 -6 -2c-14 0 -27.333 5 -40 15c-14 11.333 -21 22.333 -21 33l6 51c13.333 61.333 38.666 112.333 75.999 153c38.667 40 84.667 60 138 60c27.333 0.666992 60.333 -6.33301 99 -21c28 -10.667 66.667 -28.667 116 -54
c88.667 -45.333 149.667 -68 183 -68l21 3c41.333 10.667 69.666 51.667 84.999 123l10 29c1.33301 0.666992 3 1 5 1c4.66699 0 11.667 -1.66699 21 -5c28 -13.333 42 -36.666 42 -70c-10 -69.333 -36.667 -126.666 -80 -172zM1320.01 1708
c-8.66699 -2.66699 -17.667 -4.33301 -27 -5l-14 -1c-54.667 0 -131 54 -229 162c-142.667 -108 -252 -162 -328 -162c-39.333 0 -59 10.333 -59 31l161 139c146 126.667 247.333 190 304 190c20 0 36.333 -4 49 -12c38.667 -109.333 107 -210.333 205 -303
c-16 -19.333 -36.667 -32.333 -62 -39z" />
    <glyph glyph-name="uni1EAB" unicode="&#x1eab;" horiz-adv-x="1183" 
d="M1281 375c7.33301 0 11 -6.33008 11 -18.9971c0 -74.667 -42.333 -155.334 -127 -242.001s-163.334 -130 -236.001 -130c-121.333 0 -182 72.333 -182 217c0 62.667 3.33301 118 10 166c-154 -250.667 -300 -379 -438 -385h-23c-77.333 0 -134.666 27 -171.999 81
c-32.667 48 -49 117 -49 207c4 203.333 71.667 393.666 203 570.999c62 84.667 130.333 151 205 199c79.333 50.667 159 76 239 76c84 0 151 -19 201 -57c33.333 35.333 76.333 53 129 53c58 0 118.667 -16.333 182 -49c-18 -26.667 -39 -75.667 -63 -147
c-22 -64.667 -44 -139.334 -66 -224.001c-48 -189.333 -72 -324.333 -72 -405c0 -10 1 -19.333 3 -28l20 -58c23.333 4 56.666 27.667 99.999 71c62.667 68.667 104.334 103 125.001 103zM768 624.003c41.333 80 74 153.333 98 220c-21.333 79.333 -76 119 -164 119
c-78.667 0 -154 -76.667 -226 -230c-68 -146.667 -102 -290 -102 -430c4 -70.667 26.667 -106 68 -106c38 0 99.333 62.667 184 188c50 72 97.333 151.667 142 239zM1386 1679c-41.333 -46.667 -89.998 -70.0029 -145.998 -70.0029c-46.667 0 -117.334 25.667 -212.001 77
c-82.667 46.667 -141.667 70 -177 70h-12l-13 -3c-38.667 -11.333 -66.334 -50.666 -83.001 -117.999l-13 -32c-1.33301 -1.33301 -3.33301 -2 -6 -2c-14 0 -27.333 5 -40 15c-13.333 11.333 -20 22.333 -20 33l5 51c13.333 61.333 38.666 112.333 75.999 153
c38.667 40 84.667 60 138 60c27.333 0.666992 60.333 -6.33301 99 -21c28 -10.667 66.667 -28.667 116 -54c88.667 -45.333 150 -68 184 -68l20 3c41.333 10.667 70 51.667 86 123l9 29c1.33301 0.666992 3.33301 1 6 1c4 0 10.667 -1.66699 20 -5
c28 -13.333 42 -36.666 42 -69.999c-9.33301 -69.333 -35.666 -126.666 -78.999 -171.999zM1131 1263c-8.66699 -2 -17.3311 -3.66797 -25.998 -5.00098l-14 -1c-54.667 0 -131.334 54 -230.001 162c-142 -108 -251 -162 -327 -162c-40 0 -60 10.333 -60 31l162 139
c145.333 127.333 246.333 191 303 191c20.667 0 37 -4 49 -12c39.333 -109.333 107.666 -210.333 204.999 -303c-15.333 -19.333 -36 -32.666 -62 -39.999z" />
    <glyph glyph-name="uni1EAC" unicode="&#x1eac;" horiz-adv-x="1318" 
d="M473 -314c0 18 1.33301 35.333 4 52l8 40c0.666992 2.66699 1.66699 5.66699 3 9l2 8c2 6 3.33301 11 4 15c2.66699 10.667 4 20 4 28c57.333 28.667 108.333 43 153 43c84.667 0 127 -35 127 -105c0 -30.667 -11.667 -75.667 -35 -135
c-54.667 -32.667 -109 -49 -163 -49c-71.333 0 -107 31.333 -107 94zM64 -29c-69.333 0 -103.998 24 -103.998 72c0 29.333 11 65 33 107l120 214l134 231l485 818l70 123c76 56.667 161.333 80 256 70c57.333 -6.66699 88 -55.334 92 -146.001l3 -220
c0 -7.33301 0.333008 -15.333 1 -24l33 -628c8.66699 -136 23 -250 43 -342c20.667 -98.667 52.667 -167.667 96 -207c-76.667 -53.333 -161.334 -76 -254.001 -68c-74 6.66699 -119.667 73.667 -137 201c-7.33301 46 -14 102 -20 168l-13 168
c-24 -19.333 -55.333 -29 -94 -29c-112.667 -4 -223.334 -6 -332.001 -6c-42.667 -22 -74.667 -53.333 -96 -94c-12.667 -18 -27.667 -44 -45 -78l-32 -66l-9 -20c-18 -44 -30 -78.333 -36 -103c-9.33301 -39.333 -10.333 -74.666 -3 -105.999
c-63.333 -23.333 -127 -35 -191 -35zM845.002 647c8 0 17.001 0.666992 27.001 2l24 4c-2.66699 226.667 -12.334 446.667 -29.001 660l-358 -666h336zM1320 1708c-8.66699 -2.66699 -17.667 -4.33301 -27 -5l-14 -1c-54.667 0 -131 54 -229 162
c-142.667 -108 -252 -162 -328 -162c-39.333 0 -59 10.333 -59 31l161 139c146 126.667 247.333 190 304 190c20 0 36.333 -4 49 -12c38.667 -109.333 107 -210.333 205 -303c-16 -19.333 -36.667 -32.333 -62 -39z" />
    <glyph glyph-name="uni1EAD" unicode="&#x1ead;" horiz-adv-x="1183" 
d="M1281 375c7.33301 0 11 -6.33008 11 -18.9971c0 -74.667 -42.333 -155.334 -127 -242.001s-163.334 -130 -236.001 -130c-121.333 0 -182 72.333 -182 217c0 62.667 3.33301 118 10 166c-154 -250.667 -300 -379 -438 -385h-23c-77.333 0 -134.666 27 -171.999 81
c-32.667 48 -49 117 -49 207c4 203.333 71.667 393.666 203 570.999c62 84.667 130.333 151 205 199c79.333 50.667 159 76 239 76c84 0 151 -19 201 -57c33.333 35.333 76.333 53 129 53c58 0 118.667 -16.333 182 -49c-18 -26.667 -39 -75.667 -63 -147
c-22 -64.667 -44 -139.334 -66 -224.001c-48 -189.333 -72 -324.333 -72 -405c0 -10 1 -19.333 3 -28l20 -58c23.333 4 56.666 27.667 99.999 71c62.667 68.667 104.334 103 125.001 103zM768 624.003c41.333 80 74 153.333 98 220c-21.333 79.333 -76 119 -164 119
c-78.667 0 -154 -76.667 -226 -230c-68 -146.667 -102 -290 -102 -430c4 -70.667 26.667 -106 68 -106c38 0 99.333 62.667 184 188c50 72 97.333 151.667 142 239zM391 -313.997c0 18 1.33301 35.333 4 52l9 40c0.666992 2.66699 1.33398 5.66699 2.00098 9l2 8
c2 6 3.33301 11 4 15c2.66699 10.667 4 20 4 28c57.333 28.667 108.666 43 153.999 43c84.667 0 127 -35 127 -105c0 -30.667 -11.667 -75.667 -35 -135c-55.333 -32.667 -110 -49 -164 -49c-71.333 0 -107 31.333 -107 94zM1131 1263
c-8.66699 -2 -17.3311 -3.66797 -25.998 -5.00098l-14 -1c-54.667 0 -131.334 54 -230.001 162c-142 -108 -251 -162 -327 -162c-40 0 -60 10.333 -60 31l162 139c145.333 127.333 246.333 191 303 191c20.667 0 37 -4 49 -12
c39.333 -109.333 107.666 -210.333 204.999 -303c-15.333 -19.333 -36 -32.666 -62 -39.999z" />
    <glyph glyph-name="uni1EAE" unicode="&#x1eae;" horiz-adv-x="1318" 
d="M64 -29c-69.333 0 -103.998 24 -103.998 72c0 29.333 11 65 33 107l120 214l134 231l485 818l70 123c76 56.667 161.333 80 256 70c57.333 -6.66699 88 -55.334 92 -146.001l3 -220c0 -7.33301 0.333008 -15.333 1 -24l33 -628c8.66699 -136 23 -250 43 -342
c20.667 -98.667 52.667 -167.667 96 -207c-76.667 -53.333 -161.334 -76 -254.001 -68c-74 6.66699 -119.667 73.667 -137 201c-7.33301 46 -14 102 -20 168l-13 168c-24 -19.333 -55.333 -29 -94 -29c-112.667 -4 -223.334 -6 -332.001 -6
c-42.667 -22 -74.667 -53.333 -96 -94c-12.667 -18 -27.667 -44 -45 -78l-32 -66l-9 -20c-18 -44 -30 -78.333 -36 -103c-9.33301 -39.333 -10.333 -74.666 -3 -105.999c-63.333 -23.333 -127 -35 -191 -35zM845.002 647c8 0 17.001 0.666992 27.001 2l24 4
c-2.66699 226.667 -12.334 446.667 -29.001 660l-358 -666h336zM958.003 2044c0 7.33301 4.66699 14 14 20c70 45.333 131 93 183 143c43.333 41.333 87.666 92 132.999 152c154 0 231 -34.667 231 -104c0 -43.333 -42.333 -85 -127 -125
c-102.667 -58 -218.667 -98.333 -348 -121c-17.333 -3.33301 -35.666 -1.33301 -54.999 6c-20.667 7.33301 -31 17 -31 29zM1262 1794c-78.667 -50.667 -156.668 -76 -234.001 -76c-183.333 0 -284.333 69.667 -303 209c0 27.333 6.33301 52 19 74
c16 27.333 38.333 41 67 41c8.66699 0 14.334 -0.666992 17.001 -2c28 -100 101 -150 219 -150c132 0 222.667 49.333 272 148c4 1.33301 10.333 2 19 2c50 0 75 -19.333 75 -58c-18.667 -71.333 -69 -134 -151 -188z" />
    <glyph glyph-name="uni1EAF" unicode="&#x1eaf;" horiz-adv-x="1183" 
d="M1281 375c7.33301 0 11 -6.33008 11 -18.9971c0 -74.667 -42.333 -155.334 -127 -242.001s-163.334 -130 -236.001 -130c-121.333 0 -182 72.333 -182 217c0 62.667 3.33301 118 10 166c-154 -250.667 -300 -379 -438 -385h-23c-77.333 0 -134.666 27 -171.999 81
c-32.667 48 -49 117 -49 207c4 203.333 71.667 393.666 203 570.999c62 84.667 130.333 151 205 199c79.333 50.667 159 76 239 76c84 0 151 -19 201 -57c33.333 35.333 76.333 53 129 53c58 0 118.667 -16.333 182 -49c-18 -26.667 -39 -75.667 -63 -147
c-22 -64.667 -44 -139.334 -66 -224.001c-48 -189.333 -72 -324.333 -72 -405c0 -10 1 -19.333 3 -28l20 -58c23.333 4 56.666 27.667 99.999 71c62.667 68.667 104.334 103 125.001 103zM768 624.003c41.333 80 74 153.333 98 220c-21.333 79.333 -76 119 -164 119
c-78.667 0 -154 -76.667 -226 -230c-68 -146.667 -102 -290 -102 -430c4 -70.667 26.667 -106 68 -106c38 0 99.333 62.667 184 188c50 72 97.333 151.667 142 239zM877 1582c0 8 4.99902 14.999 14.999 20.999c70 44.667 131 92.334 183 143.001
c42.667 41.333 86.667 92 132 152c154.667 0 232 -35 232 -105c0 -42.667 -42.333 -84.334 -127 -125.001c-102.667 -57.333 -219 -97.666 -349 -120.999c-17.333 -2.66699 -35.666 -0.666992 -54.999 6c-20.667 8 -31 17.667 -31 29zM1161 1312
c-78 -50.667 -155.668 -76 -233.001 -76c-184 0 -285.333 69.667 -304 209c0 27.333 6.66699 52 20 74c16 27.333 38 41 66 41c8.66699 0 14.334 -0.666992 17.001 -2c28 -100 101 -150 219 -150c132.667 0 223.334 49.333 272.001 148c4.66699 1.33301 11 2 19 2
c50.667 0 76 -19.333 76 -58c-18.667 -71.333 -69.334 -134 -152.001 -188z" />
    <glyph glyph-name="uni1EB0" unicode="&#x1eb0;" horiz-adv-x="1318" 
d="M1233 2078c-20 -7.33301 -38.666 -9.33301 -55.999 -6c-123.333 24 -230.333 60.667 -321 110s-136 94.666 -136 136c0 28.667 25 56 75 82c53.333 27.333 109 36.666 167 28l39 -58l39 -56c31.333 -42 64.666 -77.667 99.999 -107l112 -83c8.66699 -8 13 -13.667 13 -17
c0 -12 -10.667 -21.667 -32 -29zM64.001 -29c-69.333 0 -103.998 24 -103.998 72c0 29.333 11 65 33 107l120 214l134 231l485 818l70 123c76 56.667 161.333 80 256 70c57.333 -6.66699 88 -55.334 92 -146.001l3 -220c0 -7.33301 0.333008 -15.333 1 -24l33 -628
c8.66699 -136 23 -250 43 -342c20.667 -98.667 52.667 -167.667 96 -207c-76.667 -53.333 -161.334 -76 -254.001 -68c-74 6.66699 -119.667 73.667 -137 201c-7.33301 46 -14 102 -20 168l-13 168c-24 -19.333 -55.333 -29 -94 -29c-112.667 -4 -223.334 -6 -332.001 -6
c-42.667 -22 -74.667 -53.333 -96 -94c-12.667 -18 -27.667 -44 -45 -78l-32 -66l-9 -20c-18 -44 -30 -78.333 -36 -103c-9.33301 -39.333 -10.333 -74.666 -3 -105.999c-63.333 -23.333 -127 -35 -191 -35zM845.003 647c8 0 17.001 0.666992 27.001 2l24 4
c-2.66699 226.667 -12.334 446.667 -29.001 660l-358 -666h336zM1262 1794c-78.667 -50.667 -156.668 -76 -234.001 -76c-183.333 0 -284.333 69.667 -303 209c0 27.333 6.33301 52 19 74c16 27.333 38.333 41 67 41c8.66699 0 14.334 -0.666992 17.001 -2
c28 -100 101 -150 219 -150c132 0 222.667 49.333 272 148c4 1.33301 10.333 2 19 2c50 0 75 -19.333 75 -58c-18.667 -71.333 -69 -134 -151 -188z" />
    <glyph glyph-name="uni1EB1" unicode="&#x1eb1;" horiz-adv-x="1183" 
d="M1281 375c7.33301 0 11 -6.33008 11 -18.9971c0 -74.667 -42.333 -155.334 -127 -242.001s-163.334 -130 -236.001 -130c-121.333 0 -182 72.333 -182 217c0 62.667 3.33301 118 10 166c-154 -250.667 -300 -379 -438 -385h-23c-77.333 0 -134.666 27 -171.999 81
c-32.667 48 -49 117 -49 207c4 203.333 71.667 393.666 203 570.999c62 84.667 130.333 151 205 199c79.333 50.667 159 76 239 76c84 0 151 -19 201 -57c33.333 35.333 76.333 53 129 53c58 0 118.667 -16.333 182 -49c-18 -26.667 -39 -75.667 -63 -147
c-22 -64.667 -44 -139.334 -66 -224.001c-48 -189.333 -72 -324.333 -72 -405c0 -10 1 -19.333 3 -28l20 -58c23.333 4 56.666 27.667 99.999 71c62.667 68.667 104.334 103 125.001 103zM768 624.003c41.333 80 74 153.333 98 220c-21.333 79.333 -76 119 -164 119
c-78.667 0 -154 -76.667 -226 -230c-68 -146.667 -102 -290 -102 -430c4 -70.667 26.667 -106 68 -106c38 0 99.333 62.667 184 188c50 72 97.333 151.667 142 239zM1116 1574c-20 -6.66699 -38.665 -8.66602 -55.998 -5.99902
c-123.333 24.667 -230.666 61.667 -321.999 111c-90 48.667 -135 93.667 -135 135c0 29.333 25 56.666 75 81.999c53.333 28 108.666 37.667 165.999 29l39 -58c15.333 -22.667 28.666 -41.667 39.999 -57c31.333 -42 64.666 -77.333 99.999 -106l111 -83
c9.33301 -8 14 -14 14 -18c0 -11.333 -10.667 -21 -32 -29zM1161 1312c-78 -50.667 -155.668 -76 -233.001 -76c-184 0 -285.333 69.667 -304 209c0 27.333 6.66699 52 20 74c16 27.333 38 41 66 41c8.66699 0 14.334 -0.666992 17.001 -2c28 -100 101 -150 219 -150
c132.667 0 223.334 49.333 272.001 148c4.66699 1.33301 11 2 19 2c50.667 0 76 -19.333 76 -58c-18.667 -71.333 -69.334 -134 -152.001 -188z" />
    <glyph glyph-name="uni1EB2" unicode="&#x1eb2;" horiz-adv-x="1318" 
d="M64 -29c-69.333 0 -103.998 24 -103.998 72c0 29.333 11 65 33 107l120 214l134 231l485 818l70 123c76 56.667 161.333 80 256 70c57.333 -6.66699 88 -55.334 92 -146.001l3 -220c0 -7.33301 0.333008 -15.333 1 -24l33 -628c8.66699 -136 23 -250 43 -342
c20.667 -98.667 52.667 -167.667 96 -207c-76.667 -53.333 -161.334 -76 -254.001 -68c-74 6.66699 -119.667 73.667 -137 201c-7.33301 46 -14 102 -20 168l-13 168c-24 -19.333 -55.333 -29 -94 -29c-112.667 -4 -223.334 -6 -332.001 -6
c-42.667 -22 -74.667 -53.333 -96 -94c-12.667 -18 -27.667 -44 -45 -78l-32 -66l-9 -20c-18 -44 -30 -78.333 -36 -103c-9.33301 -39.333 -10.333 -74.666 -3 -105.999c-63.333 -23.333 -127 -35 -191 -35zM845.002 647c8 0 17.001 0.666992 27.001 2l24 4
c-2.66699 226.667 -12.334 446.667 -29.001 660l-358 -666h336zM1348 2478c45.333 -22 69.668 -56 73.001 -102c3.33301 -43.333 -16.667 -84.666 -60 -124c-16 -12.667 -38 -28.334 -66 -47l-66 -44c-22 -15.333 -38.667 -29 -50 -41c-10 -10.667 -14.667 -20.667 -14 -30
c1.33301 -10.667 9.33301 -25.334 24 -44c-42 -25.333 -79.667 -39.333 -113 -42c-24.667 -2 -45.334 4.33301 -62.001 19c-15.333 13.333 -23.666 27 -24.999 41c-2 30.667 12 57.667 42 81l11 7l79 52l38 28c24 19.333 43.333 39.333 58 60s21 41 19 61
c-2.66699 33.333 -27.334 48.333 -74.001 45c-43.333 -4 -72.333 -24 -87 -60c-11.333 -12.667 -26.666 -21.667 -45.999 -27c-42.667 18.667 -64.667 38.667 -66 60c-2.66699 33.333 23.666 62.666 78.999 88c44 20 95 32.667 153 38
c65.333 4.66699 116.333 -1.66602 153 -19zM1262 1794c-78.667 -50.667 -156.668 -76 -234.001 -76c-183.333 0 -284.333 69.667 -303 209c0 27.333 6.33301 52 19 74c16 27.333 38.333 41 67 41c8.66699 0 14.334 -0.666992 17.001 -2c28 -100 101 -150 219 -150
c132 0 222.667 49.333 272 148c4 1.33301 10.333 2 19 2c50 0 75 -19.333 75 -58c-18.667 -71.333 -69 -134 -151 -188z" />
    <glyph glyph-name="uni1EB3" unicode="&#x1eb3;" horiz-adv-x="1183" 
d="M1281 375c7.33301 0 11 -6.33008 11 -18.9971c0 -74.667 -42.333 -155.334 -127 -242.001s-163.334 -130 -236.001 -130c-121.333 0 -182 72.333 -182 217c0 62.667 3.33301 118 10 166c-154 -250.667 -300 -379 -438 -385h-23c-77.333 0 -134.666 27 -171.999 81
c-32.667 48 -49 117 -49 207c4 203.333 71.667 393.666 203 570.999c62 84.667 130.333 151 205 199c79.333 50.667 159 76 239 76c84 0 151 -19 201 -57c33.333 35.333 76.333 53 129 53c58 0 118.667 -16.333 182 -49c-18 -26.667 -39 -75.667 -63 -147
c-22 -64.667 -44 -139.334 -66 -224.001c-48 -189.333 -72 -324.333 -72 -405c0 -10 1 -19.333 3 -28l20 -58c23.333 4 56.666 27.667 99.999 71c62.667 68.667 104.334 103 125.001 103zM768 624.003c41.333 80 74 153.333 98 220c-21.333 79.333 -76 119 -164 119
c-78.667 0 -154 -76.667 -226 -230c-68 -146.667 -102 -290 -102 -430c4 -70.667 26.667 -106 68 -106c38 0 99.333 62.667 184 188c50 72 97.333 151.667 142 239zM1238 1956c44.667 -22 68.6689 -55.998 72.002 -101.998c4 -43.333 -16 -84.666 -60 -123.999
c-16 -12.667 -38 -28.334 -66 -47.001l-66 -44c-22 -15.333 -38.667 -29 -50 -41c-10 -10.667 -14.667 -20.667 -14 -30c1.33301 -10.667 9.33301 -25.334 24 -44.001c-42 -25.333 -79.667 -39.333 -113 -42c-24.667 -2 -45 4.33301 -61 19c-16 13.333 -24.333 27 -25 41
c-2.66699 30.667 11 57.667 41 81l11 7l79 52c13.333 9.33301 26 18.666 38 27.999c24 19.333 43.333 39.333 58 60s21 41 19 61c-2.66699 33.333 -27.334 48.333 -74.001 45c-43.333 -4 -72.333 -24 -87 -60c-10.667 -12.667 -25.667 -21.667 -45 -27
c-42.667 18.667 -65 38.667 -67 60c-2.66699 33.333 23.666 62.666 78.999 87.999c44 20 95.333 32.667 154 38c64.667 4.66699 115.667 -1.66602 153 -18.999zM1161 1312c-78 -50.667 -155.668 -76 -233.001 -76c-184 0 -285.333 69.667 -304 209
c0 27.333 6.66699 52 20 74c16 27.333 38 41 66 41c8.66699 0 14.334 -0.666992 17.001 -2c28 -100 101 -150 219 -150c132.667 0 223.334 49.333 272.001 148c4.66699 1.33301 11 2 19 2c50.667 0 76 -19.333 76 -58c-18.667 -71.333 -69.334 -134 -152.001 -188z" />
    </font>
</defs>
</svg>
